<?xml version="1.0" encoding="UTF-8"?>
<svg width="135px" height="46px" viewBox="0 0 135 46" version="1.1" xmlns="http://www.w3.org/2000/svg" xmlns:xlink="http://www.w3.org/1999/xlink">
    <!-- Generator: Sketch 52.1 (67048) - http://www.bohemiancoding.com/sketch -->
    <title>Group 2</title>
    <desc>Created with Sketch.</desc>
    <g id="Page-1" stroke="none" stroke-width="1" fill="none" fill-rule="evenodd">
        <g id="Group-2" fill="#D0021B">
            <path d="M89,40.874172 L89,41.1349336 C88.9276157,41.2094373 88.8431686,41.308774 88.7466562,41.4329468 L88.7466562,41.8054633 C88.6260157,42.0289744 88.5777602,42.1903966 88.6018883,42.2897348 L88.3485445,42.5504964 C88.2037758,42.6995038 88.1193287,42.7740063 88.0952006,42.7740063 C88.0710725,42.7988409 88.0409128,42.8174665 88.0047207,42.8298838 C87.9685285,42.8423011 87.9323369,42.8609267 87.8961448,42.8857613 C87.8599526,42.9105959 87.8297929,42.923013 87.8056648,42.923013 C87.6367681,43.0223512 87.5402571,43.0844367 87.516129,43.1092712 L87.0818253,43.1092712 L86.9370574,42.9602646 L86.6113297,42.9602646 L86.3217939,42.6622514 C86.2735377,42.6870859 86.1890906,42.7367543 86.06845,42.811258 L85.7065303,42.811258 C85.6824022,42.811258 85.6522425,42.7926324 85.6160504,42.7553805 L85.5255704,42.6622514 L85.2722266,42.6622514 L85.1274587,42.811258 L80.7482297,42.811258 L80.6034618,42.9602646 L78.3595594,42.9602646 L78.2147915,43.1092712 L76.3690008,43.1092712 L76.2242329,43.2582778 L74.8127459,43.2582778 L74.667978,43.4072845 L73.256491,43.4072845 L73.147915,43.5562911 L72.0259638,43.5562911 C72.0018357,43.5562911 71.971676,43.5749167 71.9354839,43.6121686 L71.8450039,43.7052977 L70.7230527,43.7052977 L70.6506688,43.779801 L70.5782848,43.8170527 L69.6011015,43.8170527 L69.4563336,43.9660593 L68.6239182,43.9660593 L68.4791503,44.1150659 L67.6105429,44.1150659 L67.501967,44.2640725 L66.6695515,44.2640725 C66.6454234,44.2889071 66.6152638,44.3137412 66.5790716,44.3385758 C66.5428794,44.3634104 66.5127198,44.3882446 66.4885917,44.4130791 L65.6561762,44.4130791 C65.6320481,44.4379137 65.6018885,44.4627479 65.5656963,44.4875824 C65.5295041,44.512417 65.5114083,44.5372512 65.5114083,44.5620857 L64.6428009,44.5620857 C64.6186728,44.6117549 64.5945451,44.6490061 64.570417,44.6738407 L64.498033,44.7110923 L63.6656176,44.7110923 L63.5570417,44.8228473 L61.1683714,44.8228473 C60.9512184,44.7235091 60.7220049,44.6117552 60.4807238,44.4875824 C60.4565957,44.4379133 60.3721486,44.3385766 60.22738,44.1895692 L60.22738,43.6307944 C60.2032519,43.6307944 60.1791242,43.6121687 60.1549961,43.5749169 C60.130868,43.5376651 60.1067402,43.5066223 60.0826121,43.4817878 L60.0826121,42.1779799 C60.1308683,42.1283108 60.1851557,42.0413911 60.245476,41.9172183 C60.3057963,41.7930455 60.3600837,41.7061259 60.4083399,41.6564567 C60.432468,41.6067876 60.4807235,41.5260765 60.5531078,41.414321 C60.6254921,41.3025655 60.6978753,41.2218544 60.7702596,41.1721852 L61.2045633,40.7251654 C61.1804352,40.7003308 61.1442436,40.656871 61.0959874,40.5947846 C61.0477312,40.5326982 60.9994757,40.5016555 60.9512195,40.5016555 C60.9029633,40.5016555 60.8547078,40.5140726 60.8064516,40.5389071 C60.7581954,40.5637417 60.7159719,40.600993 60.6797797,40.6506621 C60.6435875,40.7003312 60.601364,40.7375825 60.5531078,40.762417 L60.0102282,40.762417 L59.8654603,40.9114237 L59.4311566,40.9114237 C59.4070285,40.9362582 59.3829007,40.9735095 59.3587726,41.0231786 C59.3346445,41.0480132 59.3105168,41.0604303 59.2863887,41.0604303 L58.743509,41.0604303 L58.5987411,41.2094369 L58.2006294,41.2094369 C58.1282451,41.2839406 58.0679258,41.3336089 58.0196696,41.3584435 L57.6215578,41.3584435 L57.5672699,41.3956952 C57.5310777,41.4205297 57.500918,41.4453639 57.4767899,41.4701985 C57.4285337,41.5198676 57.3380547,41.5384932 57.2053501,41.5260759 C57.0726455,41.5136587 56.9580388,41.5198672 56.8615264,41.5447018 L56.7891424,41.6192051 C56.7408862,41.6440396 56.6745349,41.6564567 56.5900865,41.6564567 L56.3548387,41.6564567 C56.3307106,41.6564567 56.3065829,41.6812909 56.2824548,41.73096 L56.1738788,41.8054633 L55.884343,41.8054633 C55.8360868,41.7806288 55.7817994,41.7992544 55.7214792,41.8613408 C55.6611589,41.9234272 55.6189353,41.95447 55.5948072,41.95447 L55.2328875,41.95447 L55.1605035,41.9917216 L55.1243116,42.0289733 L55.0881196,42.0289733 L55.0519276,42.1034766 L54.6538159,42.1034766 C54.6055597,42.1283111 54.5573042,42.1779795 54.509048,42.2524832 L54.0747443,42.2524832 L53.9661684,42.3269865 C53.9179122,42.3766556 53.8455289,42.3952813 53.7490165,42.382864 C53.6525041,42.3704467 53.568057,42.3766552 53.4956727,42.4014898 C53.4474165,42.4759935 53.3267778,42.5256619 53.133753,42.5504964 C53.1096248,42.5504964 53.0734332,42.5629135 53.025177,42.5877481 C52.9769208,42.6125826 52.9346973,42.6374168 52.8985051,42.6622514 C52.862313,42.6870859 52.8200894,42.6870859 52.7718332,42.6622514 C52.6270646,42.6374168 52.494362,42.6746681 52.3737215,42.7740063 C52.3737215,42.7988409 52.2410189,42.811258 51.9756098,42.811258 L51.8308419,42.9602646 L51.5413061,42.9602646 C51.517178,42.9850992 51.4809863,43.0099334 51.4327301,43.0347679 C51.408602,43.0596025 51.3965382,43.0844367 51.3965382,43.1092712 L51.1070024,43.1092712 L50.9622345,43.2582778 L50.5279308,43.2582778 C50.5038027,43.3327815 50.4193556,43.3762414 50.2745869,43.3886586 C50.1298183,43.4010759 50.0453712,43.4445357 50.0212431,43.5190394 C49.9488588,43.5190394 49.8825075,43.5314565 49.8221873,43.5562911 C49.761867,43.5811256 49.6955157,43.6059598 49.6231314,43.6307944 C49.5507471,43.6556289 49.4904277,43.668046 49.4421715,43.668046 C49.3939153,43.668046 49.3094682,43.7052973 49.1888277,43.779801 C49.0681872,43.8543047 48.9596123,43.8667218 48.8630999,43.8170527 L48.718332,43.9660593 L48.4287962,43.9660593 C48.4287962,43.9908938 48.4167324,44.0033109 48.3926042,44.0033109 C48.3684761,44.05298 48.3443484,44.0902313 48.3202203,44.1150659 C48.1271955,44.1150659 48.0186206,44.127483 47.9944925,44.1523175 C47.9703644,44.1523175 47.8135341,44.2516543 47.5239969,44.4503308 C47.4998687,44.5248345 47.4938368,44.6303797 47.5059009,44.7669698 C47.5179649,44.9035599 47.511933,45.0091052 47.4878049,45.0836089 L47.0896932,45.4933771 L47.0896932,45.605132 L47.0535012,45.6796353 C47.005245,45.7044699 46.9207979,45.716887 46.8001574,45.716887 C46.6795168,45.716887 46.5830059,45.7293041 46.5106216,45.7541387 C46.5347497,45.7789732 46.5649093,45.8162245 46.6011015,45.8658936 L46.6553895,45.9403969 C46.558877,46.0397352 46.4503022,46.014901 46.3296617,45.8658936 L45.6420142,45.8658936 C45.6178861,45.8658936 45.5877264,45.847268 45.5515342,45.8100161 L45.4610543,45.716887 L44.3391031,45.716887 C44.314975,45.6920524 44.2787834,45.6672183 44.2305271,45.6423837 L44.1219512,45.5678804 L43.6152636,45.5678804 L43.3619197,45.3071188 L43.2895358,45.3071188 L43.2533438,45.2698672 L43.2171518,45.2698672 L43.1447679,45.2326155 C43.1206398,45.1829464 43.1688953,45.0836096 43.2895358,44.9346023 L43.2895358,44.5993374 C43.2412796,44.5993374 43.1447686,44.5745032 43,44.5248341 L43,43.7425493 C43.0241281,43.7425493 43.0482558,43.7301323 43.0723839,43.7052977 L43.1447679,43.6307944 L43.1447679,43.1837745 C43.4825614,43.0099326 43.6635194,42.9105959 43.6876475,42.8857613 C43.7600318,42.8609267 43.8505109,42.8236755 43.9590873,42.7740063 C44.0676638,42.7243372 44.1340151,42.6870859 44.1581432,42.6622514 C44.3752961,42.5629131 44.5200626,42.5132448 44.5924469,42.5132448 C44.6407031,42.4635757 44.7191183,42.4139073 44.8276947,42.3642382 C44.9362712,42.314569 45.0146864,42.2773178 45.0629426,42.2524832 C45.0870707,42.2276486 45.14739,42.2152315 45.2439024,42.2152315 C45.3404149,42.2152315 45.4007342,42.1903974 45.4248623,42.1407282 C45.7143996,42.0910591 45.955677,41.9793053 46.1487018,41.8054633 C46.2452142,41.8302979 46.3658529,41.8054637 46.5106216,41.73096 C46.6553902,41.6564564 46.7760289,41.6316222 46.8725413,41.6564567 C46.9449256,41.5322839 47.0896921,41.4826156 47.306845,41.5074501 C47.3309731,41.4329464 47.3973244,41.3894866 47.5059009,41.3770693 C47.6144773,41.364652 47.6808286,41.3584435 47.7049567,41.3584435 C47.8014691,41.3087744 47.9341717,41.259106 48.1030685,41.2094369 C48.1271966,41.2094369 48.1875159,41.1846027 48.2840283,41.1349336 C48.3805407,41.0852645 48.4649878,41.0604303 48.5373721,41.0604303 C48.5615003,41.0604303 48.6037238,41.0355961 48.6640441,40.985927 C48.7243643,40.9362578 48.7786517,40.9114237 48.8269079,40.9114237 C48.8992923,40.9362582 48.9958032,40.8990069 49.1164437,40.7996687 C49.1405718,40.7996687 49.2370828,40.7872516 49.4059795,40.762417 C49.4301076,40.762417 49.4542354,40.7437914 49.4783635,40.7065396 C49.5024916,40.6692877 49.5266193,40.6506621 49.5507474,40.6506621 L49.8402832,40.6506621 C49.8644113,40.600993 49.9126668,40.5513246 49.9850511,40.5016555 L50.4193548,40.5016555 C50.467611,40.4271518 50.5038027,40.3899005 50.5279308,40.3899005 C50.5520589,40.3650659 50.6123782,40.3526488 50.7088906,40.3526488 C50.8054031,40.3526488 50.8657224,40.3278147 50.8898505,40.2781455 C50.9139786,40.253311 51.0225535,40.2284768 51.2155783,40.2036422 C51.3603469,40.2036422 51.444794,40.178808 51.4689221,40.1291389 C51.4930502,40.0794698 51.5413057,40.0546356 51.61369,40.0546356 C51.6860743,40.0546356 51.7524256,40.0484271 51.8127459,40.0360098 C51.8730661,40.0235925 51.9152897,39.9801327 51.9394178,39.905629 L52.3737215,39.905629 C52.3978496,39.8807944 52.4340412,39.8559603 52.4822974,39.8311257 C52.5064255,39.8062911 52.5184894,39.7814569 52.5184894,39.7566224 L52.8080252,39.7566224 C52.8321533,39.7566224 52.856281,39.7379967 52.8804091,39.7007449 C52.9045372,39.6634931 52.928665,39.6324503 52.9527931,39.6076158 L53.3870968,39.6076158 L53.4956727,39.4958608 L53.8937844,39.4958608 C53.9179125,39.4710262 53.9782319,39.4213579 54.0747443,39.3468542 L54.509048,39.3468542 C54.5331761,39.3220196 54.5573038,39.2909769 54.5814319,39.2537251 L54.6176239,39.1978476 L55.0519276,39.1978476 C55.0760557,39.173013 55.1001835,39.1357617 55.1243116,39.0860926 L55.1966955,39.048841 L55.7395751,39.048841 L55.8300551,38.9557118 C55.8662472,38.91846 55.8964069,38.8998343 55.920535,38.8998343 L56.3186467,38.8998343 C56.3427748,38.8749998 56.3729345,38.8501656 56.4091267,38.825331 C56.4453188,38.8004965 56.4754785,38.7756623 56.4996066,38.7508277 L56.8977183,38.7508277 L57.0062943,38.6390728 L57.0786782,38.6018211 L57.4767899,38.6018211 C57.500918,38.552152 57.5371096,38.5024836 57.5853659,38.4528145 L58.1644375,38.4528145 L58.3092054,38.3038079 L58.743509,38.3038079 L58.8882769,38.1548013 L59.5759245,38.1548013 L59.6845004,38.080298 C59.6845004,38.0306288 59.7568836,38.0120032 59.9016522,38.0244205 C60.0464209,38.0368378 60.130868,38.0306292 60.1549961,38.0057947 C60.1791242,38.0057947 60.2153158,37.9685434 60.263572,37.8940397 L60.4807238,37.8940397 C60.5048519,37.8940397 60.5410436,37.8878311 60.5892998,37.8754139 C60.637556,37.8629966 60.6858115,37.856788 60.7340677,37.856788 L60.8426436,37.7450331 C60.9632841,37.7450331 61.1080506,37.732616 61.2769473,37.7077814 L61.4217152,37.5960265 L61.9645948,37.5960265 L62.1093627,37.4470198 L62.5074744,37.4470198 C62.6039868,37.3725162 62.6643062,37.3228478 62.6884343,37.2980132 L63.2313139,37.2980132 L63.3036979,37.2421358 C63.3519541,37.2048839 63.3760818,37.1738412 63.3760818,37.1490066 L64.0999213,37.1490066 L64.2084972,37.0372517 L64.3170732,37 L64.9323367,37 L65.0771046,37.1490066 L65.4752164,37.1490066 L65.6561762,37.2980132 C65.6561762,37.2731787 65.680304,37.2483445 65.7285602,37.2235099 L65.7647522,37.1490066 L65.981904,37.1490066 L66.0904799,37.1862583 L66.6695515,37.4842715 L66.8505114,37.6705298 L66.8505114,37.9312913 C66.8263833,37.9561259 66.8022556,37.9871686 66.7781275,38.0244205 C66.7539994,38.0616723 66.7298716,38.0927151 66.7057435,38.1175496 L66.7057435,38.3783112 L66.6514555,38.4528145 C66.6152634,38.5024836 66.5851037,38.5273178 66.5609756,38.5273178 L66.5609756,38.9743377 L66.4162077,39.1233443 C66.4403358,39.1481788 66.4765274,39.173013 66.5247836,39.1978476 L66.5971676,39.2723509 L66.3076318,39.4213575 C66.2835037,39.4710266 66.2714398,39.5144864 66.2714398,39.5517383 L66.2714398,39.7193707 L66.1085759,39.8870032 C66.0482557,39.9490896 65.9939682,40.011175 65.945712,40.0732614 C65.8974558,40.1353478 65.8431684,40.1974333 65.7828482,40.2595197 C65.7225279,40.3216061 65.6561766,40.3650659 65.5837923,40.3899005 C65.4148956,40.4892387 65.2098098,40.6630781 64.9685287,40.9114237 C64.7272477,41.1597693 64.5824812,41.2963573 64.534225,41.3211918 C64.4859688,41.3460264 64.4256495,41.3708606 64.3532651,41.3956952 C64.329137,41.4950334 64.3050093,41.569536 64.2808812,41.6192051 L64.1904013,41.6378309 C64.130081,41.6502482 64.0878575,41.6688738 64.0637293,41.6937084 C64.0396012,41.7682121 64.0275374,41.8302975 64.0275374,41.8799667 C64.2205622,41.9296358 64.3773925,41.9048016 64.498033,41.8054633 L65.2218725,41.8054633 C65.2218725,41.7806288 65.2339364,41.7557946 65.2580645,41.73096 C65.3063207,41.7061255 65.3425123,41.6812913 65.3666404,41.6564567 L66.3438238,41.6564567 L66.4885917,41.5447018 L67.1762392,41.5447018 L67.2486231,41.4701985 C67.2727512,41.4205293 67.296879,41.3832781 67.3210071,41.3584435 L68.1896145,41.3584435 L68.3343824,41.2094369 L69.3115657,41.2094369 L69.3839496,41.1349336 C69.4080777,41.110099 69.4322055,41.0976819 69.4563336,41.0976819 L70.4335169,41.0976819 C70.4335169,41.0728474 70.4516127,41.0418046 70.4878049,41.0045528 C70.523997,40.9673009 70.5541567,40.9486753 70.5782848,40.9486753 L71.700236,40.9486753 L71.8450039,40.7996687 L73.1117231,40.7996687 L73.220299,40.6879137 L73.2926829,40.6506621 L74.667978,40.6506621 L74.8127459,40.5016555 L76.3328088,40.5016555 C76.3569369,40.5016555 76.3870966,40.4830298 76.4232887,40.445778 L76.5137687,40.3526488 L78.3595594,40.3526488 L78.4681353,40.2036422 L81.1463415,40.2036422 C81.1704696,40.2036422 81.2006292,40.1850166 81.2368214,40.1477648 L81.3273013,40.0546356 L86.7922895,40.0546356 C86.8164176,40.0546356 86.8646731,40.104304 86.9370574,40.2036422 L87.552321,40.2036422 C87.6970896,40.3774842 87.7815367,40.4644038 87.8056648,40.4644038 L87.8599528,40.4271522 C87.8961449,40.4023176 87.9263046,40.3774834 87.9504327,40.3526488 C87.9745608,40.3774834 88.0228163,40.4147347 88.0952006,40.4644038 L88.1494886,40.4271522 C88.1856807,40.4023176 88.2158404,40.3774834 88.2399685,40.3526488 C88.2399685,40.3774834 88.2580643,40.4023176 88.2942565,40.4271522 C88.3304486,40.4519867 88.3606083,40.4768209 88.3847364,40.5016555 L88.6380803,40.5016555 C88.6622084,40.5016555 88.7828471,40.6258264 89,40.874172 Z M88.52,42.58 C88.5466668,42.5266664 88.56,42.5 88.56,42.5 C88.56,42.5 88.5466668,42.4733336 88.52,42.42 C88.4933332,42.4466668 88.4666668,42.4866664 88.44,42.54 L88.52,42.58 Z" id="e"></path>
            <path d="M4.56,32.92 L0.04,7.52 C-0.12,6.72 0.52,6 1.32,6 L3.08,6 C3.72,6 4.28,6.44 4.36,7.08 L7.28,25.16 C7.36,25.64 8.08,25.64 8.16,25.16 L11.08,7.08 C11.16,6.44 11.72,6 12.36,6 L14.12,6 C14.92,6 15.56,6.72 15.4,7.52 L10.8,32.96 C10.68,33.56 10.12,34 9.48,34 L5.88,34 C5.24,34 4.68,33.56 4.56,32.92 Z M23.52,5.64 C25.36,5.64 26.96,6.28 28.28,7.6 C29.56,8.92 30.2,10.52 30.2,12.36 L30.2,27.64 C30.2,29.52 29.56,31.12 28.24,32.4 C26.92,33.72 25.36,34.36 23.52,34.36 C21.64,34.36 20.08,33.72 18.76,32.4 C17.48,31.08 16.8,29.52 16.8,27.64 L16.8,12.36 C16.8,10.48 17.48,8.92 18.8,7.6 C20.08,6.28 21.68,5.64 23.52,5.64 Z M25.8,12.28 C25.8,11.6 25.56,11 25.12,10.56 C24.64,10.08 24.08,9.84 23.4,9.84 C22.72,9.84 22.16,10.08 21.68,10.56 C21.2,11 20.96,11.6 20.96,12.28 L20.96,27.6 C20.96,28.28 21.2,28.84 21.68,29.32 C22.16,29.8 22.72,30.04 23.4,30.04 C24.08,30.04 24.64,29.8 25.12,29.32 C25.56,28.84 25.8,28.28 25.8,27.6 L25.8,12.28 Z M34.96,10.24 L32.68,10.24 C31.96,10.24 31.36,9.64 31.36,8.92 L31.36,7.28 C31.36,6.56 31.96,6 32.68,6 L43.24,6 C43.96,6 44.56,6.56 44.56,7.28 L44.56,8.92 C44.56,9.64 43.96,10.24 43.24,10.24 L40.96,10.24 C40.48,10.24 40.08,10.64 40.08,11.12 L40.08,32.72 C40.08,33.44 39.48,34 38.76,34 L37.16,34 C36.44,34 35.84,33.44 35.84,32.72 L35.84,11.12 C35.84,10.64 35.48,10.24 34.96,10.24 Z M45.88,32.72 L45.88,7.28 C45.88,6.56 46.48,5.96 47.2,5.96 L56.64,5.96 C57.36,5.96 57.92,6.56 57.92,7.28 L57.92,8.92 C57.92,9.64 57.36,10.24 56.64,10.24 L51,10.24 C50.52,10.24 50.12,10.6 50.12,11.12 L50.12,17 C50.12,17.48 50.52,17.88 51,17.88 L54.52,17.88 C55.24,17.88 55.84,18.48 55.84,19.2 L55.84,20.8 C55.84,21.52 55.24,22.12 54.52,22.12 L51,22.12 C50.52,22.12 50.12,22.52 50.12,23 L50.12,28.92 C50.12,29.4 50.52,29.76 51,29.76 L56.64,29.76 C57.36,29.76 57.92,30.36 57.92,31.08 L57.92,32.72 C57.92,33.44 57.36,34.04 56.64,34.04 L47.2,34.04 C46.48,34.04 45.88,33.44 45.88,32.72 Z M75.92,6.92 L80.84,23.4 C80.92,23.64 81.28,23.56 81.28,23.32 L81.28,7.28 C81.28,6.56 81.84,5.96 82.56,5.96 L84.16,5.96 C84.92,5.96 85.48,6.56 85.48,7.28 L85.48,32.72 C85.48,33.44 84.92,34.04 84.16,34.04 L81.92,34.04 C81.32,34.04 80.84,33.68 80.64,33.12 L75.56,17.4 C75.48,17.16 75.12,17.2 75.12,17.44 L75.12,32.72 C75.12,33.44 74.56,34.04 73.84,34.04 L72.2,34.04 C71.48,34.04 70.92,33.44 70.92,32.72 L70.92,7.28 C70.92,6.56 71.48,5.96 72.2,5.96 L74.68,5.96 C75.24,5.96 75.76,6.36 75.92,6.92 Z M94.24,5.64 C96.08,5.64 97.68,6.28 99,7.6 C100.28,8.92 100.92,10.52 100.92,12.36 L100.92,27.64 C100.92,29.52 100.28,31.12 98.96,32.4 C97.64,33.72 96.08,34.36 94.24,34.36 C92.36,34.36 90.8,33.72 89.48,32.4 C88.2,31.08 87.52,29.52 87.52,27.64 L87.52,12.36 C87.52,10.48 88.2,8.92 89.52,7.6 C90.8,6.28 92.4,5.64 94.24,5.64 Z M96.52,12.28 C96.52,11.6 96.28,11 95.84,10.56 C95.36,10.08 94.8,9.84 94.12,9.84 C93.44,9.84 92.88,10.08 92.4,10.56 C91.92,11 91.68,11.6 91.68,12.28 L91.68,27.6 C91.68,28.28 91.92,28.84 92.4,29.32 C92.88,29.8 93.44,30.04 94.12,30.04 C94.8,30.04 95.36,29.8 95.84,29.32 C96.28,28.84 96.52,28.28 96.52,27.6 L96.52,12.28 Z" id="VOTE-NO"></path>
            <path d="M132.517278,29.4430396 L132.517278,30.0776005 C132.902753,30.4402067 133.095491,30.9387903 133.480966,31.3467223 L133.480966,32.026609 C133.159737,32.2985636 132.774262,32.5251925 132.453033,32.7971472 C132.196049,32.842473 131.939066,32.9331245 131.489345,33.0691019 L129.369234,33.0691019 C129.240742,33.0237761 129.048005,32.9331245 128.855267,32.842473 C128.598284,32.9331245 128.405547,33.0237761 128.148563,33.0691019 C128.084318,33.0691019 128.020072,33.1144277 128.020072,33.0691019 C127.570351,32.7971472 127.184876,32.5251925 126.799401,32.2532379 L126.799401,32.026609 L126.413926,31.7546543 L126.413926,31.3013965 L125.771468,30.8481387 L125.771468,29.9416231 C125.707223,29.8509716 125.578731,29.76032 125.450239,29.6243427 L125.450239,29.1257591 C125.257502,29.0351075 124.936273,28.8991302 124.743535,28.7631529 L124.743535,28.0379404 C124.486552,27.7206599 124.293815,27.4940311 124.036832,27.1767506 L124.036832,26.5421897 C123.972586,26.4515381 123.90834,26.4062124 123.779848,26.3608866 C123.779848,26.1795835 123.715602,25.9982803 123.715602,25.8169772 L123.073144,25.3637194 L123.073144,24.9104616 C122.944653,24.8198101 122.880407,24.7291585 122.751915,24.638507 L122.751915,23.9132945 C122.430686,23.7319914 122.173703,23.5506883 121.852474,23.3693852 C121.723982,23.4600367 121.595491,23.5506883 121.402753,23.6413398 C121.274262,23.8679687 121.531245,24.1399234 121.210016,24.2759007 C120.888787,24.4572039 121.14577,24.6838328 121.017278,24.8198101 C120.824541,25.0011132 120.760295,25.2277421 120.567558,25.4090452 C120.37482,25.6809999 120.053591,25.9529546 120.053591,26.2249092 C120.053591,26.5421897 119.668116,26.7234928 119.668116,27.086099 C119.603871,27.4487053 119.15415,27.7659857 119.411133,28.2192435 C119.15415,28.3552209 118.897167,28.4911982 118.704429,28.5818497 L118.704429,29.3977138 L118.318954,29.6696684 L118.318954,30.1229262 L117.740742,30.5308582 C117.740742,31.0294418 117.291021,31.3467223 117.034038,31.7999801 L117.291021,31.9812832 C116.777055,32.3438894 116.263088,32.7064956 115.813368,33.0691019 L113.757502,33.0691019 L113.500519,32.8877988 L112.472586,32.8877988 C112.344094,32.9331245 112.087111,33.0237761 111.894373,33.1144277 C111.251915,32.842473 110.930686,32.434541 110.609457,31.8906316 L110.609457,30.6215098 C110.930686,30.4402067 110.86644,30.0322747 111.251915,29.8962973 C111.251915,29.6243427 111.187669,29.3070622 111.573144,29.1257591 C111.508899,28.8084786 112.215602,28.6271755 111.958619,28.3098951 C112.087111,28.0379404 112.279848,27.8566373 112.279848,27.5393568 C112.344094,27.3127279 112.601077,27.086099 112.793815,26.9047959 C113.050798,26.7234928 112.858061,26.4968639 112.986552,26.3155608 C113.17929,26.1342577 113.372027,25.9982803 113.62901,25.8169772 C113.500519,25.5450226 113.821748,25.4996968 113.950239,25.2730679 L113.950239,24.5931812 C114.142977,24.5478554 114.39996,24.5025296 114.592697,24.4572039 C114.592697,24.3665523 114.592697,24.3212265 114.656943,24.230575 C114.721189,23.9132945 114.39996,23.5053625 114.913926,23.2334078 C114.913926,22.9161274 115.042418,22.6441727 115.299401,22.4175438 C115.556385,22.1455891 115.684876,21.7829829 116.006105,21.5110282 C115.813368,21.1937478 116.198843,20.9671189 116.327334,20.6951642 C116.455826,20.4232095 116.712809,20.1512548 116.969792,19.8339744 L116.969792,19.2447393 C117.226776,18.9727846 117.419513,18.7008299 117.676496,18.3835495 L117.676496,17.9756175 C117.804988,17.8849659 117.869234,17.7943143 117.997725,17.7036628 L117.997725,17.250405 L118.3832,16.9784503 C118.126217,16.6611699 117.93348,16.3892152 117.740742,16.0719347 C117.548005,15.7999801 117.098284,15.5280254 117.355267,15.1200934 C116.969792,14.9387903 116.905547,14.6215098 116.712809,14.3495551 C116.455826,14.1229262 116.327334,13.76032 116.006105,13.3977138 L116.006105,12.6271755 C115.813368,12.3552209 115.749122,12.128592 115.556385,11.9926146 C115.235156,11.8113115 115.363647,11.5393568 115.106664,11.4033795 C114.849681,11.2674022 114.913926,10.9501217 114.656943,10.8141444 C114.721189,10.5421897 114.39996,10.3155608 114.335714,10.0889319 C114.207223,9.81697723 114.078731,9.59034833 113.950239,9.36371944 C113.564764,8.45720386 113.564764,8.45720386 112.922306,7.95862029 L112.922306,7.5053625 C112.858061,7.46003672 112.793815,7.36938516 112.729569,7.32405938 C112.601077,6.87080159 112.40834,6.46286958 111.958619,6.05493757 L111.958619,5.51102822 L110.930686,4.06060329 C110.86644,3.96995173 110.930686,3.8339744 110.930686,3.69799706 L110.609457,3.47136816 L110.609457,2.29289791 C110.930686,2.06626901 111.187669,1.8849659 111.444653,1.658337 L112.601077,1.658337 C112.729569,1.52235966 112.922306,1.34105655 113.115044,1.11442765 C113.372027,1.25040499 113.564764,1.29573077 113.885994,1.43170811 L115.427893,1.43170811 C115.556385,1.52235966 115.684876,1.56768544 115.813368,1.658337 L116.520072,1.658337 C116.712809,1.83964012 116.969792,2.06626901 117.291021,2.33822369 L117.291021,2.97278459 C117.419513,3.06343615 117.548005,3.10876193 117.676496,3.24473927 L117.676496,3.69799706 C117.804988,3.78864862 117.869234,3.87930017 117.997725,3.92462595 L117.997725,4.28723219 C118.3832,4.96711887 119.025658,5.46570244 119.089904,6.14558913 C119.603871,6.6441727 119.796608,7.2787336 120.37482,7.77731717 L120.37482,8.95578743 C120.888787,9.13709054 120.953033,9.59034833 121.338507,9.86230301 C121.338507,10.1342577 121.402753,10.4062124 121.402753,10.678167 L122.237949,10.678167 C122.494932,10.5421897 122.302195,10.3155608 122.494932,10.0889319 C122.494932,10.0436061 122.623424,9.95295457 122.751915,9.86230301 L122.751915,9.40904522 C122.816161,9.36371944 122.880407,9.27306788 123.008899,9.2277421 C123.13739,9.09176476 122.944653,8.91046165 123.073144,8.77448431 C123.394373,8.32122652 123.844094,7.82264295 124.036832,7.2787336 L124.036832,6.59884692 C124.293815,6.4175438 124.486552,6.23624068 124.743535,6.05493757 C124.615044,5.82830867 124.936273,5.73765712 125.064764,5.556354 L125.064764,4.74048998 C125.385994,4.33255797 125.707223,3.87930017 126.092697,3.38071661 L126.092697,2.5195268 C126.67091,2.29289791 126.735156,1.74898856 127.249122,1.43170811 L130.589904,1.43170811 C130.718396,1.34105655 130.846887,1.29573077 131.039625,1.15975343 C131.360854,1.25040499 131.682083,1.38638233 131.939066,1.47703389 C132.388787,1.74898856 132.774262,2.02094323 133.159737,2.33822369 L133.159737,2.65550414 C133.288228,2.83680726 133.41672,2.97278459 133.609457,3.19941349 C133.288228,3.33539083 132.966999,3.42604238 132.838507,3.47136816 L132.838507,4.42320952 C132.131804,4.74048998 132.067558,5.37505088 131.553591,5.78298289 C131.617837,6.4175438 130.718396,6.82547581 130.782642,7.5053625 L130.461413,7.73199139 L130.461413,8.68383275 C129.818954,9.18241632 129.754709,9.27306788 129.497725,9.95295457 C129.43348,9.99828034 129.497725,10.1342577 129.43348,10.1795835 C129.048005,10.3608866 129.048005,10.678167 128.791021,10.9501217 C128.919513,11.2220764 128.534038,11.4033795 128.469792,11.6753342 C128.405547,11.8113115 128.277055,11.9019631 128.084318,12.0832662 L128.084318,12.7631529 L127.441859,13.2164107 L127.441859,13.76032 C127.249122,13.8056458 126.992139,13.9416231 126.799401,14.0776005 C126.799401,14.3042294 126.863647,14.5308582 126.735156,14.6215098 C126.413926,14.8481387 126.478172,15.2107449 126.092697,15.3920481 L126.092697,16.0719347 C126.028452,16.1625863 125.89996,16.2079121 125.835714,16.2532379 C125.835714,16.2985636 125.771468,16.2985636 125.771468,16.3438894 L125.771468,17.7489886 L126.092697,17.9756175 L126.092697,18.6101784 C126.606664,19.1540877 126.863647,19.8339744 127.441859,20.3778837 L127.441859,21.0577704 C127.570351,21.148422 127.698843,21.1937478 127.698843,21.2390735 C127.763088,21.8736345 128.277055,22.372218 128.66253,22.8708016 C128.855267,23.0521047 128.726776,23.2334078 128.791021,23.4600367 C128.919513,23.5053625 128.983759,23.5960141 129.112251,23.6866656 L129.112251,24.1852492 C129.240742,24.230575 129.304988,24.2759007 129.43348,24.3665523 L129.43348,25.0917648 L130.075938,25.5450226 C130.140183,25.862303 130.140183,26.1342577 130.461413,26.4062124 C130.397167,26.6328413 130.846887,26.7234928 130.846887,26.9954475 C130.846887,27.1314248 131.232362,27.2674022 131.168116,27.4940311 C131.489345,27.6300084 131.489345,27.8566373 131.489345,28.128592 C131.553591,28.2645693 131.682083,28.4458724 131.810575,28.6271755 C132.003312,28.8538044 132.260295,29.1257591 132.517278,29.4430396 Z M112.409466,27.6144277 C112.48946,27.6144334 112.569454,27.6544305 112.649449,27.6944277 L112.809449,27.6144277 C112.729449,27.5744277 112.649449,27.5344277 112.569449,27.5344277 C112.490286,27.5344277 112.489457,27.5735944 112.411936,27.6131712 L112.409466,27.6144277 Z M112.623912,28.6850004 C112.783912,28.6450004 112.863912,28.4450004 112.463912,28.6050004 L112.623912,28.6850004 Z M112.889457,31.1045246 C112.969457,30.9761312 113.129457,30.7835412 113.449457,30.3983612 C113.209457,30.2699678 112.889457,30.1415745 112.569457,29.9489844 C112.729457,29.7563944 112.889457,29.6921977 112.969457,29.5638044 C112.809457,29.435411 112.649457,29.3070177 112.249457,29.1144277 C112.009457,29.3070177 111.849457,29.435411 111.769457,29.6280011 L111.769457,30.2699678 C111.849457,30.3983612 112.009457,30.4625578 112.169457,30.5909512 C112.089457,30.9119346 112.169457,31.1687213 112.889457,31.1045246 Z M114.569457,30.6744277 C114.649457,30.6744277 114.729457,30.6344277 114.809457,30.6344277 C114.809457,30.5944277 114.729457,30.5944277 114.649457,30.5544277 C114.569457,30.5944277 114.489457,30.5944277 114.409457,30.6344277 C114.489457,30.6344277 114.489457,30.6744277 114.569457,30.6744277 Z M115.84392,28.8144277 C116.08392,28.6544277 116.08392,28.5344277 115.76392,28.4144277 C115.60392,28.4144277 115.52392,28.4144277 115.20392,28.4944277 C115.36392,28.6544277 115.60392,28.7344277 115.84392,28.8144277 Z M115.227079,27.7790955 C115.38003,27.6683175 115.456506,27.6129285 115.609457,27.4467616 C115.609457,27.3359836 115.532982,27.2252056 115.532982,27.1144277 L114.921177,27.1144277 C114.768226,27.2805946 114.768226,27.5575395 114.538799,27.7237065 C114.309372,27.8898734 114.385848,28.2222074 114.309372,28.4991523 C114.079945,28.3883743 113.926994,28.3329853 113.697567,28.2775963 C113.391665,28.8314862 113.926994,29.1638201 114.615274,29.1084311 C114.844701,28.9976532 114.921177,28.7760972 115.227079,28.6653192 L115.227079,27.7790955 Z M115.580657,27.7144277 C115.660657,27.7144277 115.660657,27.6744277 115.740657,27.6744277 C115.660657,27.5944277 115.660657,27.5544277 115.580657,27.5144277 C115.580657,27.5544277 115.420657,27.5544277 115.500657,27.5944277 C115.500657,27.6344277 115.580657,27.6744277 115.580657,27.7144277 Z M122.649457,14.5544277 C122.569457,14.5544277 122.489457,14.5944277 122.409457,14.6344277 L122.489457,14.6744277 C122.649457,14.6744277 122.729457,14.6344277 122.809457,14.6344277 C122.729457,14.5944277 122.729457,14.5544277 122.649457,14.5544277 Z M123.049457,18.6144277 C122.729457,18.4544277 122.489457,18.4544277 122.169457,18.6144277 C122.489457,18.7744277 122.729457,18.7744277 123.049457,18.6144277 Z M121.609457,17.1789438 C121.31534,17.1144277 121.197693,17.1144277 121.138869,17.1144277 C120.609457,17.5015244 120.138869,17.8886212 119.609457,18.275718 C119.727104,18.5337825 119.550634,18.791847 119.727104,19.0499115 C119.844751,19.0499115 119.962398,19.1144277 120.080045,19.1144277 C120.49181,18.8563631 120.49181,18.4692664 120.727104,18.1466857 C120.962398,17.8241051 121.256516,17.5660406 121.609457,17.1789438 Z M120.434988,16.8744277 C120.594988,16.8344277 120.834988,16.8344277 120.994988,16.8344277 C120.834988,16.6744277 120.674988,16.5544277 120.434988,16.3544277 C120.194988,16.5944277 120.114988,16.7144277 120.434988,16.8744277 Z M120.587235,15.2894277 C120.347235,15.4494277 120.187235,15.5694277 119.947235,15.7294277 C119.947235,15.7294277 119.867235,15.8094277 119.947235,15.8494277 C120.027235,15.9694277 120.187235,15.9694277 120.347235,15.8494277 C120.667235,15.7294277 120.907235,15.6094277 121.307235,15.4494277 C120.987235,15.4094277 120.827235,15.3694277 120.587235,15.2894277 Z M120.679331,12.8144277 C120.919331,12.6944277 120.919331,12.5744277 120.599331,12.4144277 C120.359331,12.6144277 120.199331,12.7344277 120.679331,12.8144277 Z M118.471679,12.4344277 C118.471679,12.5544277 118.391679,12.6344277 118.391679,12.7144277 C118.391679,12.7544277 118.551679,12.7944277 118.551679,12.7944277 C118.631679,12.7944277 118.791679,12.7544277 118.791679,12.7144277 C118.871679,12.6344277 118.791679,12.5144277 118.791679,12.4344277 L118.471679,12.4344277 Z M118.649457,19.5544277 C118.569457,19.5544277 118.489457,19.5944277 118.409457,19.5944277 C118.409457,19.6344277 118.489457,19.6744277 118.569457,19.6744277 C118.649457,19.6744277 118.729457,19.6344277 118.809457,19.5944277 C118.729457,19.5944277 118.729457,19.5544277 118.649457,19.5544277 Z M122.609457,21.7144277 C122.689457,21.6744277 122.689457,21.6344277 122.769457,21.5944277 C122.689457,21.5544277 122.689457,21.5144277 122.609457,21.5144277 C122.529457,21.5544277 122.529457,21.5944277 122.449457,21.6344277 C122.449457,21.6744277 122.529457,21.7144277 122.609457,21.7144277 Z M123.569457,22.7144277 C123.649457,22.6744277 123.729457,22.6344277 123.729457,22.5944277 C123.729457,22.5544277 123.649457,22.5144277 123.569457,22.5144277 C123.569457,22.5544277 123.489457,22.5944277 123.489457,22.6344277 C123.489457,22.6744277 123.569457,22.6744277 123.569457,22.7144277 Z M121.895171,19.6858562 C122.109457,19.6382372 122.323743,19.6382372 122.609457,19.6382372 C122.609457,19.447761 122.538029,19.3049038 122.538029,19.1144277 C122.252314,19.1620467 122.038029,19.2096657 121.895171,19.2572848 L121.895171,19.6382372 L120.609457,19.6382372 C120.395171,19.7810943 120.180886,19.8763324 120.038029,19.9715705 C119.752314,19.8287134 119.538029,19.7810943 119.395171,19.6858562 C118.895171,20.0191896 118.395171,20.3525229 117.895171,20.6382372 L117.180886,20.6382372 C116.9666,20.8763324 116.823743,21.1144277 116.609457,21.4001419 L116.609457,21.49538 C116.752314,21.5906181 116.895171,21.6858562 116.9666,21.7810943 C117.038029,21.8763324 116.823743,22.1144277 117.252314,22.1144277 C117.4666,21.9715705 117.680886,21.8287134 117.895171,21.6382372 L121.109457,21.6382372 C121.180886,21.6382372 121.252314,21.6858562 121.252314,21.6382372 C121.323743,21.6382372 121.395171,21.5906181 121.395171,21.5906181 C121.680886,21.2096657 121.180886,21.1144277 120.895171,20.9239515 C120.752314,21.0191896 120.680886,21.0668086 120.4666,21.1620467 C120.395171,21.0191896 120.395171,20.9239515 120.323743,20.7810943 C120.538029,20.6858562 120.680886,20.5429991 120.895171,20.4001419 C121.323743,20.6382372 121.680886,20.9239515 122.038029,21.1620467 C122.395171,20.8763324 122.180886,20.5906181 122.252314,20.3049038 C122.109457,20.2096657 121.9666,20.1144277 121.895171,20.0191896 L121.895171,19.6858562 Z M125.609457,11.7144277 C125.609457,11.6744277 125.689457,11.6344277 125.769457,11.5944277 C125.689457,11.5544277 125.609457,11.5544277 125.609457,11.5144277 C125.529457,11.5544277 125.449457,11.5944277 125.449457,11.6744277 C125.449457,11.6744277 125.529457,11.7144277 125.609457,11.7144277 Z M126.489457,9.63442765 C126.569457,9.67442765 126.489457,9.75442765 126.329457,9.79442765 C126.089457,9.63442765 126.409457,9.63442765 126.729457,9.59442765 C126.649457,9.51442765 126.729457,9.47442765 126.889457,9.43442765 C127.129457,9.59442765 126.809457,9.59442765 126.489457,9.63442765 Z M126.536089,7.29746248 C126.229412,7.33746248 125.846066,7.21746248 125.616059,7.37746248 C125.539389,7.65746248 126.152743,7.37746248 126.306081,7.57746248 C126.306081,7.69746248 126.38275,7.81746248 126.45942,7.93746248 L127.456119,7.93746248 C127.456119,7.81746248 127.532788,7.69746248 127.609457,7.41746248 C126.996104,7.65746248 126.842765,7.41746248 126.536089,7.29746248 Z M127.609457,8.55429052 C127.070996,8.47429052 126.609457,8.51429052 125.609457,8.63429052 C127.532534,8.75429052 127.532534,8.75429052 127.609457,8.55429052 Z M125.580689,8.73441969 C125.660657,8.694425 125.660668,8.65443562 125.740657,8.65443562 C125.660657,8.61443562 125.660657,8.57443562 125.580657,8.49443562 C125.580657,8.53443562 125.420657,8.57443562 125.500657,8.57443562 C125.500657,8.61398364 125.57886,8.65353167 125.580627,8.73173903 L125.580689,8.73441969 Z M123.609457,13.8344277 C123.929457,13.6744277 123.929457,13.5544277 123.609457,13.3944277 C123.289457,13.5544277 123.289457,13.6744277 123.609457,13.8344277 Z M123.449457,21.9344277 L124.169457,21.5744277 C124.089457,21.4944277 124.089457,21.4144277 124.009457,21.2944277 C123.609457,21.4144277 123.209457,21.4944277 123.049457,21.5344277 C123.129457,21.6544277 123.289457,21.7744277 123.449457,21.9344277 Z M125.409457,9.61442765 C125.409457,9.65442765 125.489457,9.69442765 125.489457,9.69442765 C125.649457,9.65442765 125.729457,9.65442765 125.809457,9.61442765 C125.729457,9.57442765 125.729457,9.53442765 125.649457,9.53442765 C125.569457,9.57442765 125.489457,9.57442765 125.409457,9.61442765 Z M126.009457,25.7044277 L126.009457,25.5044277 C125.769457,25.3844277 125.449457,25.3444277 125.209457,25.5444277 C125.209457,25.6244277 125.209457,25.7044277 125.289457,25.7844277 C125.449457,25.8244277 125.609457,25.8244277 125.689457,25.8244277 C125.849457,25.8244277 125.929457,25.7444277 126.009457,25.7044277 Z M127.016865,29.0344277 C127.387235,28.7944277 127.387235,28.7944277 127.609457,28.5544277 C127.461309,28.3544277 127.165013,28.3544277 126.942791,28.3944277 C126.57242,28.4344277 126.424272,28.2344277 126.276124,28.1944277 C126.053902,28.3144277 125.831679,28.3944277 125.609457,28.4744277 L126.646494,29.0344277 L127.016865,29.0344277 Z M129.384871,31.5269277 C129.374871,31.5969277 129.454871,31.6569277 129.654871,31.7169277 C129.774871,31.6369277 129.834871,31.5769277 129.834871,31.5119277 L129.384871,31.5269277 Z" id="X" transform="translate(122.109457, 17.114428) rotate(-6.000000) translate(-122.109457, -17.114428) "></path>
        </g>
    </g>
</svg>