<?xml version="1.0" encoding="UTF-8"?>
<svg width="1614px" height="546px" viewBox="0 0 1614 546" version="1.1" xmlns="http://www.w3.org/2000/svg" xmlns:xlink="http://www.w3.org/1999/xlink" style="background: #FFFFFF;">
    <!-- Generator: Sketch 52.1 (67048) - http://www.bohemiancoding.com/sketch -->
    <title>Group</title>
    <desc>Created with Sketch.</desc>
    <defs>
        <linearGradient x1="72.2745903%" y1="-76.3678574%" x2="-20.8304804%" y2="100%" id="linearGradient-1">
            <stop stop-color="#000000" offset="0%"></stop>
            <stop stop-color="#383838" offset="100%"></stop>
        </linearGradient>
        <polygon id="path-2" points="0 0 1614 0 1614 546 1048.43228 546 0 546"></polygon>
        <filter x="-0.6%" y="-1.8%" width="101.2%" height="103.7%" filterUnits="objectBoundingBox" id="filter-3">
            <feMorphology radius="14" operator="erode" in="SourceAlpha" result="shadowSpreadInner1"></feMorphology>
            <feGaussianBlur stdDeviation="1.5" in="shadowSpreadInner1" result="shadowBlurInner1"></feGaussianBlur>
            <feOffset dx="3" dy="3" in="shadowBlurInner1" result="shadowOffsetInner1"></feOffset>
            <feComposite in="shadowOffsetInner1" in2="SourceAlpha" operator="arithmetic" k2="-1" k3="1" result="shadowInnerInner1"></feComposite>
            <feColorMatrix values="0 0 0 0 0   0 0 0 0 0   0 0 0 0 0  0 0 0 0.5 0" type="matrix" in="shadowInnerInner1"></feColorMatrix>
        </filter>
    </defs>
    <g id="Page-1" stroke="none" stroke-width="1" fill="none" fill-rule="evenodd">
        <g id="Group">
            <rect id="Rectangle" fill="url(#linearGradient-1)" x="12" y="1" width="1602" height="539"></rect>
            <path d="M862.445345,275.482877 L862.445345,319.162877 L850.265345,319.162877 L850.265345,221.162877 L870.705345,221.162877 L870.705345,231.802877 L862.445345,231.802877 L862.445345,264.842877 L869.025345,264.842877 L869.025345,275.482877 L862.445345,275.482877 Z M897.545345,275.482877 L896.985345,275.482877 L896.985345,319.162877 L884.805345,319.162877 L884.805345,221.162877 L898.945345,221.162877 C905.385345,221.162877 912.525345,223.262877 912.525345,234.042877 L912.525345,259.802877 C912.525345,266.102877 910.285345,269.042877 907.205345,270.302877 C910.285345,271.562877 912.525345,274.502877 912.525345,280.802877 L912.525345,299.142877 C912.525345,313.282877 913.505345,317.062877 914.625345,319.162877 L901.885345,319.162877 C901.045345,317.762877 900.345345,315.522877 900.345345,309.782877 L900.345345,280.802877 C900.345345,276.322877 899.365345,275.482877 897.545345,275.482877 Z M896.985345,264.982877 L898.665345,264.982877 C899.785345,264.982877 900.345345,264.422877 900.345345,263.162877 L900.345345,233.622877 C900.345345,232.362877 899.785345,231.802877 898.665345,231.802877 L896.985345,231.802877 L896.985345,264.982877 Z M941.045345,273.382877 L941.045345,308.522877 L950.145345,308.522877 L950.145345,319.162877 L928.865345,319.162877 L928.865345,221.162877 L949.865345,221.162877 L949.865345,231.802877 L941.045345,231.802877 L941.045345,262.742877 L948.185345,262.742877 L948.185345,273.382877 L941.045345,273.382877 Z M977.265345,273.382877 L977.265345,308.522877 L986.365345,308.522877 L986.365345,319.162877 L965.085345,319.162877 L965.085345,221.162877 L986.085345,221.162877 L986.085345,231.802877 L977.265345,231.802877 L977.265345,262.742877 L984.405345,262.742877 L984.405345,273.382877 L977.265345,273.382877 Z M1001.30534,319.162877 L1001.30534,221.162877 L1015.44534,221.162877 C1021.88534,221.162877 1029.02534,223.262877 1029.02534,234.042877 L1029.02534,306.282877 C1029.02534,317.062877 1021.88534,319.162877 1015.44534,319.162877 L1001.30534,319.162877 Z M1015.16534,231.802877 L1013.48534,231.802877 L1013.48534,308.522877 L1015.16534,308.522877 C1016.28534,308.522877 1016.84534,307.962877 1016.84534,306.702877 L1016.84534,233.622877 C1016.84534,232.362877 1016.28534,231.802877 1015.16534,231.802877 Z M1044.24534,306.002877 L1044.24534,234.322877 C1044.24534,224.802877 1049.00534,220.042877 1058.10534,220.042877 C1067.20534,220.042877 1071.96534,224.802877 1071.96534,234.322877 L1071.96534,306.002877 C1071.96534,315.522877 1067.20534,320.282877 1058.10534,320.282877 C1049.00534,320.282877 1044.24534,315.522877 1044.24534,306.002877 Z M1056.42534,307.822877 C1056.42534,309.082877 1056.98534,309.642877 1058.10534,309.642877 C1059.22534,309.642877 1059.78534,309.082877 1059.78534,307.822877 L1059.78534,232.502877 C1059.78534,231.242877 1059.22534,230.682877 1058.10534,230.682877 C1056.98534,230.682877 1056.42534,231.242877 1056.42534,232.502877 L1056.42534,307.822877 Z M1107.20534,260.082877 C1107.48534,252.522877 1107.90534,243.842877 1108.32534,237.682877 L1109.58534,221.162877 L1126.52534,221.162877 L1126.52534,319.162877 L1114.62534,319.162877 L1114.62534,294.382877 C1114.62534,280.382877 1115.46534,265.262877 1115.74534,251.262877 C1114.62534,265.262877 1113.36534,280.382877 1112.24534,294.382877 L1110.14534,319.162877 L1102.30534,319.162877 L1100.20534,294.382877 C1098.94534,280.382877 1097.96534,265.262877 1096.70534,251.262877 C1096.98534,265.262877 1097.82534,280.382877 1097.82534,294.382877 L1097.82534,319.162877 L1087.46534,319.162877 L1087.46534,221.162877 L1104.82534,221.162877 L1106.22534,237.682877 C1106.78534,243.842877 1107.06534,252.522877 1107.20534,260.082877 Z" id="F-R-E-E-D-O-M" stroke="#0E0E0E" stroke-width="3" fill="#FFFFFF" transform="translate(988.395345, 270.162877) rotate(-15.000000) translate(-988.395345, -270.162877) "></path>
            <g id="Compass-Isometric-Vector" transform="translate(779.000000, 0.000000)" fill="#FFFFFF">
                <g id="Mask">
                    <path d="M692.369627,323.955578 C684.988547,319.870193 691.581288,336.750385 607.033738,34.1801151 C604.951905,26.7261845 609.228768,18.9781094 616.633328,16.7892502 L670.96589,0.699552091 C678.438754,-1.51424432 686.28645,2.76563559 688.49421,10.2589315 C690.701971,17.7522275 686.433761,25.6213808 678.960897,27.8351777 L637.953347,39.9724065 L708.917757,293.944793 L816.794542,261.961271 C824.199527,259.941568 831.856896,264.224979 834.032929,271.604153 C836.208963,278.983328 832.106111,286.753683 824.796526,289.096897 L703.197071,325.144816 C699.57498,326.22114 695.673469,325.792615 692.369627,323.955578 Z" id="Path"></path>
                    <path d="M330.292075,331.902489 C297.028381,303.605607 315.362481,245.542784 360.158241,238.428339 C419.939407,226.976671 400.468146,232.3982 445.522035,214.643568 C451.613127,212.225905 455.01803,205.698121 453.524019,199.302391 C449.491633,182.345248 404.05404,186.892337 389.033751,187.654848 C381.451995,187.865652 375.090907,181.964799 374.711579,174.368908 C374.332251,166.773017 380.073631,160.264475 387.638462,159.714738 L421.027733,158.014826 C429.225057,157.46218 473.09295,160.813035 480.6903,192.817543 C485.34635,212.765823 474.738415,233.126263 455.749505,240.687892 L417.860427,255.616334 C415.907022,256.392837 367.043993,265.591947 364.985942,265.983696 C343.951957,269.341546 332.936149,297.46354 348.368047,310.545164 C358.086237,318.806874 364.072027,315.3301 422.911373,303.836459 C423.602022,303.703074 424.301586,303.621235 425.004307,303.591616 C591.413475,296.910894 570.016715,304.738882 663.598763,243.716953 C670.051025,239.671207 678.546278,241.555891 682.694321,247.95333 C686.842365,254.35077 685.113154,262.901208 678.807415,267.172934 C631.848957,297.785334 599.115472,324.613157 537.576241,327.07558 C405.121436,332.392176 441.671037,328.670559 371.188002,342.465726 C356.669176,345.175278 341.698565,341.308436 330.292075,331.902489 Z" id="Path"></path>
                    <path d="M83.9762878,528.369148 L0.480587468,221.79299 C-0.477829084,218.206576 0.0247429906,214.385234 1.87761711,211.170578 C3.73049123,207.955922 6.7816966,205.611613 10.3592351,204.653964 L370.755463,108.192726 C378.186282,106.207359 385.818225,110.62509 387.81985,118.070402 L411.107227,204.688942 C412.983628,212.10191 408.576101,219.652027 401.211297,221.640722 C393.846492,223.629416 386.253919,219.319648 384.164192,211.964283 L364.476661,138.826112 L31.0513742,228.053982 L113.429249,536.346588 C115.253664,543.745154 103.994615,534.374185 96.6529554,536.346588 C89.3112955,538.318991 86.0851853,535.691285 83.9762878,528.369148 Z" id="Path"></path>
                    <path d="M472.072575,536.325601 L425.681023,366.369421 C423.882585,358.988768 428.287118,351.517826 435.602927,349.53995 C442.918736,347.562074 450.471662,351.80024 452.617081,359.087084 L500.273184,536.325601 C501.570501,541.155419 491.414444,532.784111 487.891763,536.325601 C484.369081,539.867092 483.785732,537.613929 478.965734,536.325601 C474.145736,535.037274 473.369892,541.155419 472.072575,536.325601 Z" id="Path"></path>
                    <path d="M758.450524,252.13956 C733.335318,254.783867 729.295956,216.651282 754.45302,214.006976 C779.610085,211.362669 783.607588,249.488258 758.450524,252.13956 Z" id="Path"></path>
                    <path d="M333.417523,399.493212 C340.863416,397.501568 348.509649,401.939614 350.495863,409.405866 C352.482077,416.872117 348.056132,424.539256 340.610239,426.530901 L202.064997,463.607161 C194.619104,465.598806 186.97287,461.16076 184.986657,453.694508 C183.000443,446.228257 187.426388,438.561117 194.872281,436.569473 L333.417523,399.493212 Z" id="Path"></path>
                    <path d="M213.304051,497.143689 L351.863247,460.067428 C359.311066,458.075784 366.958861,462.515396 368.945074,469.983579 C370.931288,477.451762 366.503782,485.120467 359.055963,487.112112 L220.503744,524.188373 C213.055924,526.181948 205.406568,521.743902 203.418428,514.275719 C201.430288,506.807536 205.856232,499.137265 213.304051,497.143689 Z" id="Path"></path>
                </g>
            </g>
            <path d="M107,110.339031 C107,114.891738 105.26506,119.347578 102.084337,122.447293 C99,125.450142 95.3373494,127 91,127 L78.1807229,127 C76.4457831,127 75,125.547009 75,123.803419 L75,62.1965812 C75,60.4529915 76.4457831,59 78.1807229,59 L91,59 C95.4337349,59 99.1927711,60.6467236 102.373494,63.8433048 C105.457831,66.9430199 107,70.8176638 107,75.2735043 L107,110.339031 Z M88.0487805,117 L92.1463415,117 C93.6097561,117 94.9756098,116.519427 96.0487805,115.558282 C97.3170732,114.308793 98,112.867076 98,111.137014 L98,75.8629857 C98,74.5173824 97.5121951,73.0756646 96.6341463,72.0184049 C95.3658537,70.6728016 93.902439,70 92.1463415,70 L88.0487805,70 C86.8780488,70 86,70.9611452 86,72.1145194 L86,114.885481 C86,116.038855 86.8780488,117 88.0487805,117 Z M129.961228,59 C135.600224,59 139.710001,60.5542857 142.386135,63.6628571 C144.679964,66.48 145.826879,70.2685714 145.826879,75.2228571 L145.826879,85.1314286 C145.826879,89.5028571 144.297659,93.2914286 141.334797,96.4971429 C140.76134,96.9828571 140.570187,97.76 140.76134,98.5371429 L146.878217,123.114286 C147.451674,125.057143 145.922455,127 143.915355,127 L139.423273,127 C137.989629,127 136.747139,126.028571 136.46041,124.571429 L130.91699,101.354286 L126.233755,101.354286 C125.086841,101.354286 124.131079,102.325714 124.131079,103.491429 L124.131079,123.891429 C124.131079,125.64 122.697435,127 120.977064,127 L117.154015,127 C115.433643,127 114,125.64 114,123.891429 L114,62.1085714 C114,60.36 115.433643,59 117.154015,59 L129.961228,59 Z M136,74.9910714 C136,70.9642857 134.064516,69 130.193548,69 L126.129032,69 C124.967742,69 124,69.8839286 124,71.0625 L124,88.8392857 C124,90.0178571 124.967742,91 126.129032,91 L130.193548,91 C131.548387,91 133,90.5089286 133.967742,89.5267857 C135.322581,88.3482143 136,86.7767857 136,85.0089286 L136,74.9910714 Z M154,123.803419 L154,62.1965812 C154,60.4529915 155.445183,59 157.179402,59 L179.916944,59 C181.651163,59 183,60.4529915 183,62.1965812 L183,66.1680912 C183,67.9116809 181.651163,69.3646724 179.916944,69.3646724 L166.332226,69.3646724 C165.17608,69.3646724 164.212625,70.2364672 164.212625,71.4957265 L164.212625,85.7350427 C164.212625,86.8974359 165.17608,87.8660969 166.332226,87.8660969 L174.810631,87.8660969 C176.54485,87.8660969 177.990033,89.3190883 177.990033,91.0626781 L177.990033,94.9373219 C177.990033,96.6809117 176.54485,98.1339031 174.810631,98.1339031 L166.332226,98.1339031 C165.17608,98.1339031 164.212625,99.1025641 164.212625,100.264957 L164.212625,114.60114 C164.212625,115.763533 165.17608,116.635328 166.332226,116.635328 L179.916944,116.635328 C181.651163,116.635328 183,118.088319 183,119.831909 L183,123.803419 C183,125.547009 181.651163,127 179.916944,127 L157.179402,127 C155.445183,127 154,125.547009 154,123.803419 Z M200.393972,113.205714 L198.54532,124.377143 C198.350725,125.931429 196.98856,127 195.431801,127 L191.248009,127 C189.204762,127 187.7453,125.251429 188.037192,123.308571 L198.54532,61.6228571 C198.837213,60.0685714 200.199377,59 201.756137,59 L210.512911,59 C212.06967,59 213.334538,60.0685714 213.62643,61.6228571 L223.939963,123.308571 C224.329153,125.251429 222.772393,127 220.826444,127 L216.545354,127 C214.988595,127 213.62643,125.931429 213.334538,124.377143 L211.68048,113.205714 C211.485885,112.137143 210.610208,111.36 209.539936,111.36 L202.437219,111.36 C201.464245,111.36 200.49127,112.137143 200.393972,113.205714 Z M204.668685,79.6578073 L202.025014,98.6611296 C201.829186,99.9280177 202.808324,101 204.081202,101 L206.822787,101 C208.095665,101 209.172716,99.9280177 208.976889,98.6611296 L206.235304,79.6578073 C206.137391,78.7807309 204.766598,78.7807309 204.668685,79.6578073 Z M236.002041,127 L232.165306,127 C230.342857,127 229,125.547009 229,123.803419 L229,62.1965812 C229,60.4529915 230.342857,59 232.165306,59 L240.893878,59 C242.428571,59 243.771429,60.0655271 244.059184,61.6153846 L251.34898,99.6837607 C251.732653,101.42735 254.130612,101.42735 254.514286,99.6837607 L261.516327,61.6153846 C261.804082,60.1623932 263.146939,59 264.681633,59 L272.834694,59 C274.657143,59 276,60.4529915 276,62.1965812 L276,123.803419 C276,125.547009 274.657143,127 272.834694,127 L268.997959,127 C267.271429,127 265.832653,125.547009 265.832653,123.803419 L265.832653,89.4159544 C265.832653,88.8347578 264.969388,88.7378917 264.873469,89.3190883 L257.583673,124.481481 C257.295918,125.934473 256.04898,127 254.514286,127 L251.444898,127 C250.006122,127 248.663265,125.934473 248.37551,124.481481 L240.126531,88.8347578 C240.030612,88.2535613 239.071429,88.3504274 239.071429,89.02849 L239.071429,123.803419 C239.071429,125.547009 237.728571,127 236.002041,127 Z M344,110.339031 C344,114.891738 342.26506,119.347578 339.084337,122.447293 C336,125.450142 332.337349,127 328,127 L315.180723,127 C313.445783,127 312,125.547009 312,123.803419 L312,62.1965812 C312,60.4529915 313.445783,59 315.180723,59 L328,59 C332.433735,59 336.192771,60.6467236 339.373494,63.8433048 C342.457831,66.9430199 344,70.8176638 344,75.2735043 L344,110.339031 Z M324.04878,117 L328.146341,117 C329.609756,117 330.97561,116.519427 332.04878,115.558282 C333.317073,114.308793 334,112.867076 334,111.137014 L334,75.8629857 C334,74.5173824 333.512195,73.0756646 332.634146,72.0184049 C331.365854,70.6728016 329.902439,70 328.146341,70 L324.04878,70 C322.878049,70 322,70.9611452 322,72.1145194 L322,114.885481 C322,116.038855 322.878049,117 324.04878,117 Z M351,123.803419 L351,62.1965812 C351,60.4529915 352.445183,59 354.179402,59 L376.916944,59 C378.651163,59 380,60.4529915 380,62.1965812 L380,66.1680912 C380,67.9116809 378.651163,69.3646724 376.916944,69.3646724 L363.332226,69.3646724 C362.17608,69.3646724 361.212625,70.2364672 361.212625,71.4957265 L361.212625,85.7350427 C361.212625,86.8974359 362.17608,87.8660969 363.332226,87.8660969 L371.810631,87.8660969 C373.54485,87.8660969 374.990033,89.3190883 374.990033,91.0626781 L374.990033,94.9373219 C374.990033,96.6809117 373.54485,98.1339031 371.810631,98.1339031 L363.332226,98.1339031 C362.17608,98.1339031 361.212625,99.1025641 361.212625,100.264957 L361.212625,114.60114 C361.212625,115.763533 362.17608,116.635328 363.332226,116.635328 L376.916944,116.635328 C378.651163,116.635328 380,118.088319 380,119.831909 L380,123.803419 C380,125.547009 378.651163,127 376.916944,127 L354.179402,127 C352.445183,127 351,125.547009 351,123.803419 Z M393.033223,127 L389.179402,127 C387.445183,127 386,125.547009 386,123.803419 L386,62.1965812 C386,60.4529915 387.445183,59 389.179402,59 L411.916944,59 C413.651163,59 415,60.4529915 415,62.1965812 L415,66.1680912 C415,67.9116809 413.651163,69.3646724 411.916944,69.3646724 L398.332226,69.3646724 C397.17608,69.3646724 396.212625,70.2364672 396.212625,71.4957265 L396.212625,85.7350427 C396.212625,86.8974359 397.17608,87.8660969 398.332226,87.8660969 L406.810631,87.8660969 C408.54485,87.8660969 409.990033,89.3190883 409.990033,91.0626781 L409.990033,94.9373219 C409.990033,96.6809117 408.54485,98.1339031 406.810631,98.1339031 L398.332226,98.1339031 C397.17608,98.1339031 396.212625,99.1025641 396.212625,100.264957 L396.212625,123.803419 C396.212625,125.547009 394.863787,127 393.033223,127 Z M419,123.803419 L419,62.1965812 C419,60.4529915 420.445183,59 422.179402,59 L444.916944,59 C446.651163,59 448,60.4529915 448,62.1965812 L448,66.1680912 C448,67.9116809 446.651163,69.3646724 444.916944,69.3646724 L431.332226,69.3646724 C430.17608,69.3646724 429.212625,70.2364672 429.212625,71.4957265 L429.212625,85.7350427 C429.212625,86.8974359 430.17608,87.8660969 431.332226,87.8660969 L439.810631,87.8660969 C441.54485,87.8660969 442.990033,89.3190883 442.990033,91.0626781 L442.990033,94.9373219 C442.990033,96.6809117 441.54485,98.1339031 439.810631,98.1339031 L431.332226,98.1339031 C430.17608,98.1339031 429.212625,99.1025641 429.212625,100.264957 L429.212625,114.60114 C429.212625,115.763533 430.17608,116.635328 431.332226,116.635328 L444.916944,116.635328 C446.651163,116.635328 448,118.088319 448,119.831909 L448,123.803419 C448,125.547009 446.651163,127 444.916944,127 L422.179402,127 C420.445183,127 419,125.547009 419,123.803419 Z M467.019231,61.3247863 L478.846154,101.233618 C479.038462,101.814815 479.903846,101.621083 479.903846,101.039886 L479.903846,62.1965812 C479.903846,60.4529915 481.25,59 482.980769,59 L486.826923,59 C488.653846,59 490,60.4529915 490,62.1965812 L490,123.803419 C490,125.547009 488.653846,127 486.826923,127 L481.442308,127 C480,127 478.846154,126.128205 478.365385,124.77208 L466.153846,86.7037037 C465.961538,86.1225071 465.096154,86.2193732 465.096154,86.8005698 L465.096154,123.803419 C465.096154,125.547009 463.75,127 462.019231,127 L458.076923,127 C456.346154,127 455,125.547009 455,123.803419 L455,62.1965812 C455,60.4529915 456.346154,59 458.076923,59 L464.038462,59 C465.384615,59 466.634615,59.968661 467.019231,61.3247863 Z M529,110.339031 C529,114.891738 527.26506,119.347578 524.084337,122.447293 C521,125.450142 517.337349,127 513,127 L500.180723,127 C498.445783,127 497,125.547009 497,123.803419 L497,62.1965812 C497,60.4529915 498.445783,59 500.180723,59 L513,59 C517.433735,59 521.192771,60.6467236 524.373494,63.8433048 C527.457831,66.9430199 529,70.8176638 529,75.2735043 L529,110.339031 Z M509.04878,117 L513.146341,117 C514.609756,117 515.97561,116.519427 517.04878,115.558282 C518.317073,114.308793 519,112.867076 519,111.137014 L519,75.8629857 C519,74.5173824 518.512195,73.0756646 517.634146,72.0184049 C516.365854,70.6728016 514.902439,70 513.146341,70 L509.04878,70 C507.878049,70 507,70.9611452 507,72.1145194 L507,114.885481 C507,116.038855 507.878049,117 509.04878,117 Z M536,123.803419 L536,62.1965812 C536,60.4529915 537.445183,59 539.179402,59 L561.916944,59 C563.651163,59 565,60.4529915 565,62.1965812 L565,66.1680912 C565,67.9116809 563.651163,69.3646724 561.916944,69.3646724 L548.332226,69.3646724 C547.17608,69.3646724 546.212625,70.2364672 546.212625,71.4957265 L546.212625,85.7350427 C546.212625,86.8974359 547.17608,87.8660969 548.332226,87.8660969 L556.810631,87.8660969 C558.54485,87.8660969 559.990033,89.3190883 559.990033,91.0626781 L559.990033,94.9373219 C559.990033,96.6809117 558.54485,98.1339031 556.810631,98.1339031 L548.332226,98.1339031 C547.17608,98.1339031 546.212625,99.1025641 546.212625,100.264957 L546.212625,114.60114 C546.212625,115.763533 547.17608,116.635328 548.332226,116.635328 L561.916944,116.635328 C563.651163,116.635328 565,118.088319 565,119.831909 L565,123.803419 C565,125.547009 563.651163,127 561.916944,127 L539.179402,127 C537.445183,127 536,125.547009 536,123.803419 Z M586.961228,59 C592.600224,59 596.710001,60.5542857 599.386135,63.6628571 C601.679964,66.48 602.826879,70.2685714 602.826879,75.2228571 L602.826879,85.1314286 C602.826879,89.5028571 601.297659,93.2914286 598.334797,96.4971429 C597.76134,96.9828571 597.570187,97.76 597.76134,98.5371429 L603.878217,123.114286 C604.451674,125.057143 602.922455,127 600.915355,127 L596.423273,127 C594.989629,127 593.747139,126.028571 593.46041,124.571429 L587.91699,101.354286 L583.233755,101.354286 C582.086841,101.354286 581.131079,102.325714 581.131079,103.491429 L581.131079,123.891429 C581.131079,125.64 579.697435,127 577.977064,127 L574.154015,127 C572.433643,127 571,125.64 571,123.891429 L571,62.1085714 C571,60.36 572.433643,59 574.154015,59 L586.961228,59 Z M594,74.9910714 C594,70.9642857 592.064516,69 588.193548,69 L584.129032,69 C582.967742,69 582,69.8839286 582,71.0625 L582,88.8392857 C582,90.0178571 582.967742,91 584.129032,91 L588.193548,91 C589.548387,91 591,90.5089286 591.967742,89.5267857 C593.322581,88.3482143 594,86.7767857 594,85.0089286 L594,74.9910714 Z M642.994893,110.413649 C643.090142,115.122563 641.851902,119.158774 639.375421,122.522284 C637.756183,124.732591 635.374951,126.366295 632.422223,127.231198 C630.802986,127.807799 628.99325,128 626.802516,128 C622.897296,128 619.658821,127.038997 617.08709,125.020891 C614.896357,123.483287 613.18187,121.272981 611.943629,118.486072 C611.086386,116.660167 610.419641,114.642061 610.038644,112.431755 C609.752896,110.509749 611.086386,108.876045 612.896122,108.683844 L616.420345,108.395543 C617.944334,108.299443 619.373073,109.356546 619.658821,110.89415 C620.230316,113.488858 621.182809,115.410864 622.3258,116.756267 C623.564041,118.101671 624.99278,118.774373 626.516768,118.678273 C628.707502,118.582173 630.517238,117.52507 631.755479,115.410864 C632.517473,114.35376 632.803221,112.816156 632.803221,110.89415 C632.803221,108.107242 631.56498,105.320334 628.99325,102.533426 C626.993015,100.707521 624.040287,97.8245125 620.039818,93.9805014 C616.706093,90.7130919 614.420111,87.8300836 612.991371,85.235376 C611.467383,82.3523677 610.800638,79.1810585 610.800638,75.8175487 C610.800638,69.6671309 612.800873,64.9582173 616.896592,61.8830084 C619.373073,59.9610028 622.516299,59 626.231021,59 C629.850493,59 632.89847,59.7688022 635.4702,61.402507 C637.470435,62.6518106 639.089673,64.3816156 640.327913,66.6880223 C641.089908,68.0334262 641.661403,69.5710306 642.0424,71.2047354 C642.423397,72.9345404 641.280406,74.6643454 639.47067,75.0487465 L635.851197,75.7214485 C634.23196,76.0097493 632.803221,74.9526462 632.326974,73.4150418 C631.945977,71.9735376 631.279232,70.724234 630.517238,69.7632312 C629.564745,68.7061281 628.231255,68.1295265 626.516768,68.1295265 C624.707032,68.1295265 623.278293,68.994429 622.3258,70.6281337 C621.563806,71.9735376 621.182809,73.6072423 621.182809,75.5292479 C621.182809,78.6044568 622.42105,81.775766 625.088029,84.9470752 C626.040522,86.1963788 627.56451,87.637883 629.564745,89.2715877 C631.945977,91.1935933 633.469966,92.6350975 634.23196,93.4038997 C636.708441,95.902507 638.613426,98.4011142 639.946916,100.803621 C640.613661,101.956825 641.089908,103.013928 641.470905,103.97493 C642.423397,106.377437 642.994893,108.491643 642.994893,110.413649 Z M75.0959302,175.276353 C75.0959302,168.883191 76.8226744,163.94302 80.2761628,160.552707 C83.25,157.549858 87.1831395,156 91.9796512,156 C96.3924419,156 100.229651,157.74359 103.299419,161.037037 C106.465116,164.42735 108,168.39886 108,172.854701 C108,177.407407 107.040698,181.960114 104.930233,186.222222 C103.875,188.643875 101.284884,192.712251 97.1598837,198.524217 C96.1046512,200.074074 94.4738372,202.592593 92.2674419,205.88604 L90.4447674,208.695157 C89.1976744,210.535613 88.3343023,211.891738 87.7587209,212.957265 C87.4709302,213.538462 87.2790698,213.82906 87.2790698,213.925926 L105.505814,213.925926 C106.465116,213.925926 107.232558,214.700855 107.232558,215.669516 L107.232558,222.25641 C107.232558,223.225071 106.465116,224 105.505814,224 L78.0697674,224 C76.3430233,224 75,222.547009 75,220.803419 L75,214.603989 C75,214.410256 75.6715116,213.150997 77.2063953,210.826211 C77.877907,209.760684 78.6453488,208.598291 79.5087209,207.339031 L82.0988372,203.561254 C83.6337209,201.430199 86.127907,198.039886 89.3895349,193.293447 C92.4593023,188.934473 94.8575581,184.866097 96.3924419,181.378917 C97.6395349,178.376068 98.2151163,175.663818 98.2151163,173.145299 C98.2151163,171.111111 97.6395349,169.367521 96.5843023,167.91453 C95.2412791,166.364672 93.7063953,165.589744 91.6918605,165.589744 C88.9098837,165.589744 86.8953488,167.236467 85.744186,170.529915 C85.2645349,171.595442 85.0726744,172.951567 85.0726744,174.501425 L85.0726744,175.276353 C85.0726744,176.245014 84.3052326,177.019943 83.3459302,177.019943 L76.9186047,177.019943 C75.9593023,177.019943 75.0959302,176.245014 75.0959302,175.276353 Z M146,207.951253 C146,212.371866 144.471642,216.215877 141.319403,219.291086 C138.167164,222.462396 134.441791,224 130.047761,224 C125.653731,224 121.832836,222.462396 118.680597,219.291086 C115.623881,216.119777 114,212.371866 114,207.951253 L114,171.144847 C114,166.628134 115.623881,162.880223 118.776119,159.708914 C121.832836,156.633705 125.653731,155 130.047761,155 C134.537313,155 138.262687,156.633705 141.414925,159.708914 C144.471642,162.880223 146,166.724234 146,171.144847 L146,207.951253 Z M136,170.918812 C136,169.269307 135.409836,167.910891 134.229508,166.746535 C133.04918,165.582178 131.672131,165 130,165 C128.327869,165 126.95082,165.582178 125.770492,166.746535 C124.590164,167.910891 124,169.269307 124,170.918812 L124,208.081188 C124,209.730693 124.590164,211.089109 125.770492,212.253465 C126.95082,213.417822 128.327869,214 130,214 C131.672131,214 133.04918,213.417822 134.229508,212.253465 C135.409836,211.089109 136,209.730693 136,208.081188 L136,170.918812 Z M157.72449,220.803419 L157.72449,173.823362 C157.72449,172.660969 156.755102,171.692308 155.591837,171.692308 L152.19898,171.692308 C150.454082,171.692308 149,170.239316 149,168.495726 L149,167.139601 C149,165.68661 149.872449,164.524217 151.229592,164.136752 C152.877551,163.652422 154.52551,162.877493 156.076531,161.7151 C157.72449,160.552707 158.984694,159.196581 159.954082,157.646724 C160.632653,156.678063 161.602041,156 162.765306,156 L164.80102,156 C166.545918,156 168,157.452991 168,159.196581 L168,220.803419 C168,222.547009 166.545918,224 164.80102,224 L160.923469,224 C159.178571,224 157.72449,222.547009 157.72449,220.803419 Z M208,207.951253 C208,212.275766 206.465116,216.023677 203.491279,219.098886 C200.325581,222.270195 196.008721,224 191.5,224 L191.020349,224 C186.607558,224 182.770349,222.366295 179.700581,219.291086 C176.534884,216.119777 175,212.275766 175,207.951253 L175,201.800836 C175,197.668524 176.438953,194.112813 179.125,190.941504 C180.180233,189.884401 181.235465,188.923398 182.482558,188.154596 C182.866279,187.962396 182.866279,187.481894 182.482558,187.289694 C180.180233,185.848189 178.261628,183.637883 176.918605,180.754875 C176.247093,179.02507 175.863372,176.910864 175.863372,174.412256 L175.863372,170.760446 C175.863372,166.339833 177.110465,162.688022 179.700581,159.901114 C182.578488,156.633705 186.319767,155 191.020349,155 L191.883721,155 C196.584302,155 200.421512,156.633705 203.299419,159.901114 C205.889535,162.784123 207.136628,166.339833 207.136628,170.760446 L207.136628,174.412256 C207.136628,178.544568 205.889535,182.004178 203.395349,184.791086 C202.531977,185.752089 201.572674,186.616992 200.517442,187.289694 C200.133721,187.481894 200.133721,187.962396 200.421512,188.154596 C203.107558,189.884401 205.218023,192.286908 206.656977,195.362117 C207.520349,197.188022 208,199.302228 208,201.800836 L208,207.951253 Z M197.988211,174.048128 C197.988211,169.427807 196.486257,166.540107 193.763965,165.385027 C193.106861,165.096257 192.355884,165 191.511034,165 C189.821336,165 188.413254,165.481283 187.286789,166.44385 C186.44194,167.213904 185.784835,168.176471 185.409346,169.427807 C185.033858,170.679144 184.939986,172.219251 185.033858,174.048128 C185.12773,177.032086 185.597091,179.149733 186.348068,180.40107 C187.380661,182.13369 189.164231,183 191.511034,183 C193.857838,183 195.641408,182.037433 196.674001,180.304813 C197.612723,178.764706 198.082083,176.647059 197.988211,174.048128 Z M198,203.841584 C198,199.891089 197.015152,197.257426 195.143939,195.940594 C194.257576,195.282178 193.075758,195 191.5,195 C188.742424,195 186.871212,196.128713 185.886364,198.386139 C185.295455,199.70297 185,201.584158 185,203.841584 L185,206.945545 C185,209.20297 185.689394,210.89604 187.068182,212.212871 C188.25,213.341584 189.727273,214 191.5,214 C194.356061,213.905941 196.325758,212.589109 197.409091,210.049505 C197.80303,209.20297 198,208.168317 198,206.945545 L198,203.841584 Z M251.912406,221.377143 L241.059264,159.691429 C240.675082,157.748571 242.21181,156 244.13272,156 L248.358722,156 C249.89545,156 251.240087,157.068571 251.432178,158.622857 L258.4435,202.531429 C258.635591,203.697143 260.364409,203.697143 260.5565,202.531429 L267.567822,158.622857 C267.759913,157.068571 269.10455,156 270.641278,156 L274.86728,156 C276.78819,156 278.324918,157.748571 277.940736,159.691429 L266.895503,221.474286 C266.607367,222.931429 265.26273,224 263.726002,224 L255.081907,224 C253.545179,224 252.200542,222.931429 251.912406,221.377143 Z M299.047761,155 C303.441791,155 307.262687,156.537604 310.414925,159.708914 C313.471642,162.880223 315,166.724234 315,171.144847 L315,207.855153 C315,212.371866 313.471642,216.215877 310.319403,219.291086 C307.167164,222.462396 303.441791,224 299.047761,224 C294.558209,224 290.832836,222.462396 287.680597,219.291086 C284.623881,216.119777 283,212.371866 283,207.855153 L283,171.144847 C283,166.628134 284.623881,162.880223 287.776119,159.708914 C290.832836,156.537604 294.653731,155 299.047761,155 Z M305,170.918812 C305,169.269307 304.404959,167.813861 303.31405,166.746535 C302.123967,165.582178 300.735537,165 299.049587,165 C297.363636,165 295.975207,165.582178 294.785124,166.746535 C293.595041,167.813861 293,169.269307 293,170.918812 L293,208.081188 C293,209.730693 293.595041,211.089109 294.785124,212.253465 C295.975207,213.417822 297.363636,214 299.049587,214 C300.735537,214 302.123967,213.417822 303.31405,212.253465 C304.404959,211.089109 305,209.730693 305,208.081188 L305,170.918812 Z M328.727273,166.297143 L323.2,166.297143 C321.454545,166.297143 320,164.84 320,163.091429 L320,159.108571 C320,157.36 321.454545,156 323.2,156 L348.8,156 C350.545455,156 352,157.36 352,159.108571 L352,163.091429 C352,164.84 350.545455,166.297143 348.8,166.297143 L343.272727,166.297143 C342.109091,166.297143 341.139394,167.268571 341.139394,168.434286 L341.139394,220.891429 C341.139394,222.64 339.684848,224 337.939394,224 L334.060606,224 C332.315152,224 330.860606,222.64 330.860606,220.891429 L330.860606,168.434286 C330.860606,167.268571 329.987879,166.297143 328.727273,166.297143 Z M357,220.803419 L357,159.196581 C357,157.452991 358.445183,156 360.179402,156 L382.916944,156 C384.651163,156 386,157.452991 386,159.196581 L386,163.168091 C386,164.911681 384.651163,166.364672 382.916944,166.364672 L369.332226,166.364672 C368.17608,166.364672 367.212625,167.236467 367.212625,168.495726 L367.212625,182.735043 C367.212625,183.897436 368.17608,184.866097 369.332226,184.866097 L377.810631,184.866097 C379.54485,184.866097 380.990033,186.319088 380.990033,188.062678 L380.990033,191.937322 C380.990033,193.680912 379.54485,195.133903 377.810631,195.133903 L369.332226,195.133903 C368.17608,195.133903 367.212625,196.102564 367.212625,197.264957 L367.212625,211.60114 C367.212625,212.763533 368.17608,213.635328 369.332226,213.635328 L382.916944,213.635328 C384.651163,213.635328 386,215.088319 386,216.831909 L386,220.803419 C386,222.547009 384.651163,224 382.916944,224 L360.179402,224 C358.445183,224 357,222.547009 357,220.803419 Z M407.961228,156 C413.600224,156 417.710001,157.554286 420.386135,160.662857 C422.679964,163.48 423.826879,167.268571 423.826879,172.222857 L423.826879,182.131429 C423.826879,186.502857 422.297659,190.291429 419.334797,193.497143 C418.76134,193.982857 418.570187,194.76 418.76134,195.537143 L424.878217,220.114286 C425.451674,222.057143 423.922455,224 421.915355,224 L417.423273,224 C415.989629,224 414.747139,223.028571 414.46041,221.571429 L408.91699,198.354286 L404.233755,198.354286 C403.086841,198.354286 402.131079,199.325714 402.131079,200.491429 L402.131079,220.891429 C402.131079,222.64 400.697435,224 398.977064,224 L395.154015,224 C393.433643,224 392,222.64 392,220.891429 L392,159.108571 C392,157.36 393.433643,156 395.154015,156 L407.961228,156 Z M414,171.991071 C414,167.964286 412.064516,166 408.193548,166 L404.129032,166 C402.967742,166 402,166.883929 402,168.0625 L402,185.839286 C402,187.017857 402.967742,188 404.129032,188 L408.193548,188 C409.548387,188 411,187.508929 411.967742,186.526786 C413.322581,185.348214 414,183.776786 414,182.008929 L414,171.991071 Z M476.047761,224 C471.653731,224 467.832836,222.366295 464.680597,219.291086 C461.623881,216.119777 460,212.275766 460,207.951253 L460,171.433148 C460,168.550139 460.668657,165.667131 462.101493,163.168524 C465.062687,157.979109 470.41194,155 476.047761,155 C480.441791,155 484.071642,156.537604 487.128358,159.516713 C490.376119,162.688022 492,167.012535 492,171.529248 L492,175.66156 C492,177.391365 490.662687,178.832869 488.943284,178.832869 L484.740299,178.832869 C483.020896,178.832869 481.58806,177.391365 481.58806,175.66156 L481.58806,171.048747 C481.58806,169.511142 481.014925,167.973538 479.964179,166.916435 C478.81791,165.667131 477.385075,165.090529 475.665672,165.090529 C474.137313,165.090529 472.704478,165.667131 471.653731,166.820334 C470.507463,167.973538 469.934328,169.318942 469.934328,170.952646 L469.934328,207.759053 C469.934328,209.392758 470.507463,210.834262 471.653731,211.891365 C472.8,213.044568 474.137313,213.62117 475.761194,213.62117 C477.289552,213.62117 478.722388,213.044568 479.773134,211.987465 C481.014925,210.834262 481.58806,209.488858 481.58806,207.855153 L481.58806,196.707521 C481.58806,195.554318 480.632836,194.593315 479.486567,194.593315 L479.104478,194.593315 C477.385075,194.593315 475.952239,193.151811 475.952239,191.422006 L475.952239,187.481894 C475.952239,185.752089 477.385075,184.406685 479.104478,184.406685 L488.943284,184.406685 C490.662687,184.406685 492,185.752089 492,187.481894 L492,207.951253 C492,212.371866 490.471642,216.215877 487.319403,219.291086 C484.167164,222.462396 480.441791,224 476.047761,224 Z M515.047761,224 C510.558209,224 506.832836,222.463277 503.680597,219.389831 C500.623881,216.220339 499,212.474576 499,208.056497 L499,159.169492 C499,157.344633 500.432836,156 502.152239,156 L505.78209,156 C507.501493,156 508.934328,157.344633 508.934328,159.169492 L508.934328,207.960452 C508.934328,209.305085 509.41194,210.649718 510.367164,211.706215 C511.513433,213.050847 513.041791,213.723164 514.761194,213.723164 C516.385075,213.723164 517.722388,213.146893 518.868657,211.99435 C519.919403,210.937853 520.492537,209.497175 520.492537,207.960452 L520.492537,159.169492 C520.492537,157.344633 521.925373,156 523.644776,156 L527.943284,156 C529.662687,156 531,157.344633 531,159.169492 L531,208.056497 C531,212.570621 529.471642,216.316384 526.319403,219.389831 C523.167164,222.463277 519.441791,224 515.047761,224 Z M544.886792,224 L541.113208,224 C539.415094,224 538,222.64 538,220.891429 L538,159.108571 C538,157.36 539.415094,156 541.113208,156 L544.886792,156 C546.584906,156 548,157.36 548,159.108571 L548,220.891429 C548,222.64 546.584906,224 544.886792,224 Z M587,207.339031 C587,211.891738 585.26506,216.347578 582.084337,219.447293 C579,222.450142 575.337349,224 571,224 L558.180723,224 C556.445783,224 555,222.547009 555,220.803419 L555,159.196581 C555,157.452991 556.445783,156 558.180723,156 L571,156 C575.433735,156 579.192771,157.646724 582.373494,160.843305 C585.457831,163.94302 587,167.817664 587,172.273504 L587,207.339031 Z M567.04878,214 L571.146341,214 C572.609756,214 573.97561,213.519427 575.04878,212.558282 C576.317073,211.308793 577,209.867076 577,208.137014 L577,172.862986 C577,171.517382 576.512195,170.075665 575.634146,169.018405 C574.365854,167.672802 572.902439,167 571.146341,167 L567.04878,167 C565.878049,167 565,167.961145 565,169.114519 L565,211.885481 C565,213.038855 565.878049,214 567.04878,214 Z M594,220.803419 L594,159.196581 C594,157.452991 595.445183,156 597.179402,156 L619.916944,156 C621.651163,156 623,157.452991 623,159.196581 L623,163.168091 C623,164.911681 621.651163,166.364672 619.916944,166.364672 L606.332226,166.364672 C605.17608,166.364672 604.212625,167.236467 604.212625,168.495726 L604.212625,182.735043 C604.212625,183.897436 605.17608,184.866097 606.332226,184.866097 L614.810631,184.866097 C616.54485,184.866097 617.990033,186.319088 617.990033,188.062678 L617.990033,191.937322 C617.990033,193.680912 616.54485,195.133903 614.810631,195.133903 L606.332226,195.133903 C605.17608,195.133903 604.212625,196.102564 604.212625,197.264957 L604.212625,211.60114 C604.212625,212.763533 605.17608,213.635328 606.332226,213.635328 L619.916944,213.635328 C621.651163,213.635328 623,215.088319 623,216.831909 L623,220.803419 C623,222.547009 621.651163,224 619.916944,224 L597.179402,224 C595.445183,224 594,222.547009 594,220.803419 Z" id="DREAM-DEFENDERS-2018" fill="#FFFFFF"></path>
            <g id="Rectangle">
                <use fill="black" fill-opacity="1" filter="url(#filter-3)" xlink:href="#path-2"></use>
                <path stroke="#FFFFFF" stroke-width="20" d="M10,10 L10,536 L1604,536 L1604,10 L10,10 Z" stroke-linejoin="square"></path>
            </g>
            <path d="M1003.43839,117.495607 C1047.05513,78.5165649 1022.07248,94.3054555 1133.13052,38.6071181 C1166.83373,18.7118566 1187.24682,27.1624459 1290.70751,43.2101709 C1333.43824,49.8349292 1361.02311,46.0433568 1401.70974,42.4616501 C1409.38682,41.787466 1416.15536,47.4814445 1416.8277,55.1795071 C1417.50005,62.8775698 1411.8216,69.6646168 1404.14452,70.3388009 C1315.16693,78.1597933 1329.73375,77.5791651 1185.98408,55.2774444 C1162.80135,51.6887422 1160.08751,56.3757412 1054.54783,109.303852 L1021.99574,138.384233 C1016.22092,143.31206 1007.57837,142.713153 1002.53447,137.035614 C997.490579,131.358076 997.891999,122.680559 1003.43839,117.495607 Z" id="Path" fill="#FFFFFF"></path>
            <rect id="Rectangle" stroke="#979797" fill="#FFFFFF" x="75.5" y="253.5" width="567" height="16"></rect>
        </g>
    </g>
</svg>