<svg xmlns="http://www.w3.org/2000/svg" width="50" height="50" style="width: 50px; height: 50px;" viewBox="0 0 151.827 165.272">
  <g class="nc-icon-wrapper">
    <path d="M54.9 51.6c-2.889-9.832-3.93-11.518-2.208-14.676s3.714-3.2 13.537-6.084a6.908 6.908 0 0 1 8.563 4.672l2.77 9.427a6.894 6.894 0 0 1-4.675 8.561l-9.428 2.77A6.907 6.907 0 0 1 54.9 51.6zm12.445-16.958C53.16 38.811 54.534 36.29 58.7 50.476a2.931 2.931 0 0 0 3.638 1.986l9.426-2.771a2.932 2.932 0 0 0 1.985-3.636c-2.975-10.125-2.769-10.4-4.178-11.174a2.9 2.9 0 0 0-2.226-.239zM72.327 51.6z" fill="#f86464" />
    <path d="M59.868 44.887a1.984 1.984 0 0 1 1.758-3.557l5.051 2.5 5.518-11.668a1.984 1.984 0 0 1 3.586 1.7c-7 14.788-6.453 14.143-7.522 14.516-1.045.36-1.03.147-8.391-3.491z" fill="#FFFFFF"/>
    <path fill="rgba(151, 22, 38, 0.8);" d="M23.4 98.886h104.165v54.855H23.4z"/>
    <path d="M135.679 165.258a2.064 2.064 0 0 1-.431-4.105 2.064 2.064 0 0 1 .431 4.105z" fill="#FFFFFF"/>
    <path d="M131.4 46.309c-1.058-.584-.113 1.829-12.232-41.423a2.023 2.023 0 0 1 1.376-2.486l7.788-2.3a2.022 2.022 0 0 1 1.146 3.879L123.6 5.714l10.172 36.305 15.463-4.572a2.023 2.023 0 0 1 1.147 3.879l-17.43 5.153a2.018 2.018 0 0 1-1.552-.17z" fill="#FFFFFF"/>
    <path d="M64.34 16.741c6.252-5.572 2.671-3.315 18.59-11.277 4.831-2.844 7.757-1.636 22.587.658 6.125.947 10.079.405 15.911-.107a2 2 0 0 1 .349 3.985c-12.754 1.118-10.666 1.035-31.271-2.153-3.323-.513-3.712.157-18.84 7.723L67 19.727a2 2 0 0 1-2.66-2.986z" fill="#FFFFFF"/>
    s<path d="M79.5 47.445C74.732 43.4 77.36 35.1 83.781 34.083c8.569-1.637 5.778-.862 12.236-3.4a1.894 1.894 0 0 0 1.147-2.193c-.578-2.424-7.091-1.774-9.244-1.665a2 2 0 0 1-.2-3.994l4.786-.243c1.175-.079 7.463.4 8.552 4.975a5.913 5.913 0 0 1-3.575 6.843l-5.431 2.134c-.28.111-7.284 1.426-7.579 1.482-3.015.48-4.594 4.5-2.382 6.37 1.393 1.181 2.251.684 10.685-.959a2.039 2.039 0 0 1 .3-.035c23.853-.955 20.786.164 34.2-8.559a2 2 0 0 1 2.18 3.353c-6.731 4.376-11.423 8.211-20.244 8.563-18.986.76-13.747.228-23.85 2.2a7.165 7.165 0 0 1-5.862-1.51z" fill="#FFFFFF"/>
    <path d="M127.565 155.741H18.789a2 2 0 0 1-2-2v-59.1a2 2 0 0 1 2-2h108.776a2 2 0 0 1 2 2v59.1a2 2 0 0 1-2 2zm-106.776-4h104.776v-55.1H20.789z" fill="#FFFFFF"/>
    <path d="M109.883 85.221h-72.1a2 2 0 0 1 0-4h72.1a2 2 0 0 1 0 4z" fill="#FFFFFF"/>
    <path d="M119.189 107.645h-3a2 2 0 0 1 0-4h3a2 2 0 0 1 0 4zm-13 0h-3a2 2 0 0 1 0-4h3a2 2 0 0 1 0 4zm-13 0h-3a2 2 0 0 1 0-4h3a2 2 0 0 1 0 4zm-13 0h-3a2 2 0 0 1 0-4h3a2 2 0 0 1 0 4zm-13 0h-3a2 2 0 0 1 0-4h3a2 2 0 0 1 0 4zm-13 0h-3a2 2 0 0 1 0-4h3a2 2 0 1 1 0 4zm-13 0h-3a2 2 0 0 1 0-4h3a2 2 0 1 1 0 4zm-13 0h-3a2 2 0 0 1 0-4h3a2 2 0 1 1 0 4z" fill="#FFFFFF"/>
    <path d="M119.189 145.018h-3a2 2 0 0 1 0-4h3a2 2 0 0 1 0 4zm-13 0h-3a2 2 0 0 1 0-4h3a2 2 0 0 1 0 4zm-13 0h-3a2 2 0 0 1 0-4h3a2 2 0 0 1 0 4zm-13 0h-3a2 2 0 0 1 0-4h3a2 2 0 0 1 0 4zm-13 0h-3a2 2 0 0 1 0-4h3a2 2 0 0 1 0 4zm-13 0h-3a2 2 0 0 1 0-4h3a2 2 0 0 1 0 4zm-13 0h-3a2 2 0 0 1 0-4h3a2 2 0 0 1 0 4zm-13 0h-3a2 2 0 0 1 0-4h3a2 2 0 0 1 0 4z" fill="#FFFFFF"/>
    <path d="M127.865 96.645c-116.816 0-109.832.418-110.72-.859-.821-1.187-.867-.136 8.121-24.2.652-1.743 1.276-1.3 14.717-1.3a2 2 0 0 1 0 4H28.528l-6.857 18.36h103.223l-7.458-18.36h-11.453a2 2 0 0 1 0-4c13.452 0 13.977-.419 14.653 1.247 9.773 24.062 9.706 23.012 8.888 24.231a2 2 0 0 1-1.659.881z" fill="#FFFFFF"/>
    s<path d="M44.552 77.705l-12.327-46a2 2 0 0 1 1.416-2.45L85.3 15.466a2 2 0 0 1 2.446 1.412l3.338 12.382a2 2 0 0 1-3.862 1.04L84.4 19.845 36.607 32.6l11.808 44.07a2 2 0 0 1-3.863 1.035z" fill="#FFFFFF"/>
    <path d="M100 77.708l-6.827-25.336a2 2 0 0 1 3.861-1.041l6.831 25.336A2 2 0 1 1 100 77.708z" fill="#FFFFFF"/
    ><path d="M53.482 131.331h-2.97l-6.312-15.24h3.209l4.574 11.815 4.6-11.815h3.209z" fill="#fff"/>
    <path d="M68.676 131.614c-10.627 0-10.24-15.826 0-15.826 10.368 0 10.418 15.826 0 15.826zm0-2.624c6.7 0 6.6-10.6 0-10.6-6.644-.001-6.71 10.6 0 10.6z" fill="#fff"/>
    <path d="M81.594 118.693h-4.812v-2.6h12.487v2.6h-4.814v12.574h-2.861z" fill="#fff"/>
    <path d="M102.317 131.267h-11.36v-15.176h11.36v2.775H93.8v3.491h8.217v2.665H93.8v3.426h8.521z" fill="#fff"/>'
    <path d="M140.872 36.043c-3.6.378-4.179-5.073-.573-5.451s4.179 5.072.573 5.451z" fill="#FFFFFF"/>
    <path d="M60.089 62.407l19.859-5.3a2 2 0 0 1 1.031 3.865l-19.859 5.3a2 2 0 0 1-1.031-3.865z" fill="#FFFFFF"/>
    <path d="M62.731 71.066l19.861-5.3a2 2 0 0 1 1.031 3.866l-19.86 5.3a2 2 0 0 1-1.032-3.866z" fill="#FFFFFF"/>
    <path d="M127.565 164.741H17.671a2 2 0 1 1 0-4h109.894a2 2 0 0 1 0 4z" fill="#FFFFFF"/>
    <path d="M18.789 155.741H1.983a2 2 0 0 1 0-4h16.806a2 2 0 1 1 0 4z" fill="#FFFFFF"/>
    <path d="M147.921 155.741H127.86a2 2 0 0 1 0-4h20.061a2 2 0 0 1 0 4z" fill="#FFFFFF"/>
  </g>
</svg>