<svg viewBox="0 0 1539 545" version="1.1" xmlns="http://www.w3.org/2000/svg" xmlns:xlink="http://www.w3.org/1999/xlink">
    <g id="Page-1" stroke="none" stroke-width="1" fill="none" fill-rule="evenodd">
        <g id="Group" fill="#FFFFFF">
            <path d="M787.445345,275.482877 L787.445345,319.162877 L775.265345,319.162877 L775.265345,221.162877 L795.705345,221.162877 L795.705345,231.802877 L787.445345,231.802877 L787.445345,264.842877 L794.025345,264.842877 L794.025345,275.482877 L787.445345,275.482877 Z M822.545345,275.482877 L821.985345,275.482877 L821.985345,319.162877 L809.805345,319.162877 L809.805345,221.162877 L823.945345,221.162877 C830.385345,221.162877 837.525345,223.262877 837.525345,234.042877 L837.525345,259.802877 C837.525345,266.102877 835.285345,269.042877 832.205345,270.302877 C835.285345,271.562877 837.525345,274.502877 837.525345,280.802877 L837.525345,299.142877 C837.525345,313.282877 838.505345,317.062877 839.625345,319.162877 L826.885345,319.162877 C826.045345,317.762877 825.345345,315.522877 825.345345,309.782877 L825.345345,280.802877 C825.345345,276.322877 824.365345,275.482877 822.545345,275.482877 Z M821.985345,264.982877 L823.665345,264.982877 C824.785345,264.982877 825.345345,264.422877 825.345345,263.162877 L825.345345,233.622877 C825.345345,232.362877 824.785345,231.802877 823.665345,231.802877 L821.985345,231.802877 L821.985345,264.982877 Z M866.045345,273.382877 L866.045345,308.522877 L875.145345,308.522877 L875.145345,319.162877 L853.865345,319.162877 L853.865345,221.162877 L874.865345,221.162877 L874.865345,231.802877 L866.045345,231.802877 L866.045345,262.742877 L873.185345,262.742877 L873.185345,273.382877 L866.045345,273.382877 Z M902.265345,273.382877 L902.265345,308.522877 L911.365345,308.522877 L911.365345,319.162877 L890.085345,319.162877 L890.085345,221.162877 L911.085345,221.162877 L911.085345,231.802877 L902.265345,231.802877 L902.265345,262.742877 L909.405345,262.742877 L909.405345,273.382877 L902.265345,273.382877 Z M926.305345,319.162877 L926.305345,221.162877 L940.445345,221.162877 C946.885345,221.162877 954.025345,223.262877 954.025345,234.042877 L954.025345,306.282877 C954.025345,317.062877 946.885345,319.162877 940.445345,319.162877 L926.305345,319.162877 Z M940.165345,231.802877 L938.485345,231.802877 L938.485345,308.522877 L940.165345,308.522877 C941.285345,308.522877 941.845345,307.962877 941.845345,306.702877 L941.845345,233.622877 C941.845345,232.362877 941.285345,231.802877 940.165345,231.802877 Z M969.245345,306.002877 L969.245345,234.322877 C969.245345,224.802877 974.005345,220.042877 983.105345,220.042877 C992.205345,220.042877 996.965345,224.802877 996.965345,234.322877 L996.965345,306.002877 C996.965345,315.522877 992.205345,320.282877 983.105345,320.282877 C974.005345,320.282877 969.245345,315.522877 969.245345,306.002877 Z M981.425345,307.822877 C981.425345,309.082877 981.985345,309.642877 983.105345,309.642877 C984.225345,309.642877 984.785345,309.082877 984.785345,307.822877 L984.785345,232.502877 C984.785345,231.242877 984.225345,230.682877 983.105345,230.682877 C981.985345,230.682877 981.425345,231.242877 981.425345,232.502877 L981.425345,307.822877 Z M1032.20534,260.082877 C1032.48534,252.522877 1032.90534,243.842877 1033.32534,237.682877 L1034.58534,221.162877 L1051.52534,221.162877 L1051.52534,319.162877 L1039.62534,319.162877 L1039.62534,294.382877 C1039.62534,280.382877 1040.46534,265.262877 1040.74534,251.262877 C1039.62534,265.262877 1038.36534,280.382877 1037.24534,294.382877 L1035.14534,319.162877 L1027.30534,319.162877 L1025.20534,294.382877 C1023.94534,280.382877 1022.96534,265.262877 1021.70534,251.262877 C1021.98534,265.262877 1022.82534,280.382877 1022.82534,294.382877 L1022.82534,319.162877 L1012.46534,319.162877 L1012.46534,221.162877 L1029.82534,221.162877 L1031.22534,237.682877 C1031.78534,243.842877 1032.06534,252.522877 1032.20534,260.082877 Z" id="F-R-E-E-D-O-M" stroke="#0E0E0E" stroke-width="3" transform="translate(913.395345, 270.162877) rotate(-15.000000) translate(-913.395345, -270.162877) "></path>
            <g id="Compass-Isometric-Vector" transform="translate(704.000000, 0.000000)">
                <g id="Mask">
                    <path d="M692.369627,323.955578 C684.988547,319.870193 691.581288,336.750385 607.033738,34.1801151 C604.951905,26.7261845 609.228768,18.9781094 616.633328,16.7892502 L670.96589,0.699552091 C678.438754,-1.51424432 686.28645,2.76563559 688.49421,10.2589315 C690.701971,17.7522275 686.433761,25.6213808 678.960897,27.8351777 L637.953347,39.9724065 L708.917757,293.944793 L816.794542,261.961271 C824.199527,259.941568 831.856896,264.224979 834.032929,271.604153 C836.208963,278.983328 832.106111,286.753683 824.796526,289.096897 L703.197071,325.144816 C699.57498,326.22114 695.673469,325.792615 692.369627,323.955578 Z" id="Path"></path>
                    <path d="M330.292075,331.902489 C297.028381,303.605607 315.362481,245.542784 360.158241,238.428339 C419.939407,226.976671 400.468146,232.3982 445.522035,214.643568 C451.613127,212.225905 455.01803,205.698121 453.524019,199.302391 C449.491633,182.345248 404.05404,186.892337 389.033751,187.654848 C381.451995,187.865652 375.090907,181.964799 374.711579,174.368908 C374.332251,166.773017 380.073631,160.264475 387.638462,159.714738 L421.027733,158.014826 C429.225057,157.46218 473.09295,160.813035 480.6903,192.817543 C485.34635,212.765823 474.738415,233.126263 455.749505,240.687892 L417.860427,255.616334 C415.907022,256.392837 367.043993,265.591947 364.985942,265.983696 C343.951957,269.341546 332.936149,297.46354 348.368047,310.545164 C358.086237,318.806874 364.072027,315.3301 422.911373,303.836459 C423.602022,303.703074 424.301586,303.621235 425.004307,303.591616 C591.413475,296.910894 570.016715,304.738882 663.598763,243.716953 C670.051025,239.671207 678.546278,241.555891 682.694321,247.95333 C686.842365,254.35077 685.113154,262.901208 678.807415,267.172934 C631.848957,297.785334 599.115472,324.613157 537.576241,327.07558 C405.121436,332.392176 441.671037,328.670559 371.188002,342.465726 C356.669176,345.175278 341.698565,341.308436 330.292075,331.902489 Z" id="Path"></path>
                    <path d="M83.9762878,528.369148 L0.480587468,221.79299 C-0.477829084,218.206576 0.0247429906,214.385234 1.87761711,211.170578 C3.73049123,207.955922 6.7816966,205.611613 10.3592351,204.653964 L370.755463,108.192726 C378.186282,106.207359 385.818225,110.62509 387.81985,118.070402 L411.107227,204.688942 C412.983628,212.10191 408.576101,219.652027 401.211297,221.640722 C393.846492,223.629416 386.253919,219.319648 384.164192,211.964283 L364.476661,138.826112 L31.0513742,228.053982 L114.76003,545 L88.8155831,545 C86.9953179,538.79419 85.3822195,533.250573 83.9762878,528.369148 Z" id="Path"></path>
                    <path d="M472.072575,536.325601 L425.681023,366.369421 C423.882585,358.988768 428.287118,351.517826 435.602927,349.53995 C442.918736,347.562074 450.471662,351.80024 452.617081,359.087084 L500.273184,536.325601 L472.072575,536.325601 Z" id="Path"></path>
                    <path d="M758.450524,252.13956 C733.335318,254.783867 729.295956,216.651282 754.45302,214.006976 C779.610085,211.362669 783.607588,249.488258 758.450524,252.13956 Z" id="Path"></path>
                    <path d="M333.417523,399.493212 C340.863416,397.501568 348.509649,401.939614 350.495863,409.405866 C352.482077,416.872117 348.056132,424.539256 340.610239,426.530901 L202.064997,463.607161 C194.619104,465.598806 186.97287,461.16076 184.986657,453.694508 C183.000443,446.228257 187.426388,438.561117 194.872281,436.569473 L333.417523,399.493212 Z" id="Path"></path>
                    <path d="M213.304051,497.143689 L351.863247,460.067428 C359.311066,458.075784 366.958861,462.515396 368.945074,469.983579 C370.931288,477.451762 366.503782,485.120467 359.055963,487.112112 L220.503744,524.188373 C213.055924,526.181948 205.406568,521.743902 203.418428,514.275719 C201.430288,506.807536 205.856232,499.137265 213.304051,497.143689 Z" id="Path"></path>
                </g>
            </g>
            <path d="M32,110.339031 C32,114.891738 30.2650602,119.347578 27.0843373,122.447293 C24,125.450142 20.3373494,127 16,127 L3.18072289,127 C1.44578313,127 0,125.547009 0,123.803419 L0,62.1965812 C0,60.4529915 1.44578313,59 3.18072289,59 L16,59 C20.4337349,59 24.1927711,60.6467236 27.373494,63.8433048 C30.4578313,66.9430199 32,70.8176638 32,75.2735043 L32,110.339031 Z M13.0487805,117 L17.1463415,117 C18.6097561,117 19.9756098,116.519427 21.0487805,115.558282 C22.3170732,114.308793 23,112.867076 23,111.137014 L23,75.8629857 C23,74.5173824 22.5121951,73.0756646 21.6341463,72.0184049 C20.3658537,70.6728016 18.902439,70 17.1463415,70 L13.0487805,70 C11.8780488,70 11,70.9611452 11,72.1145194 L11,114.885481 C11,116.038855 11.8780488,117 13.0487805,117 Z M54.9612275,59 C60.6002241,59 64.7100012,60.5542857 67.3861352,63.6628571 C69.6799643,66.48 70.8268788,70.2685714 70.8268788,75.2228571 L70.8268788,85.1314286 C70.8268788,89.5028571 69.2976594,93.2914286 66.3347968,96.4971429 C65.7613395,96.9828571 65.5701871,97.76 65.7613395,98.5371429 L71.8782172,123.114286 C72.4516744,125.057143 70.922455,127 68.9153546,127 L64.4232726,127 C62.9896294,127 61.7471386,126.028571 61.46041,124.571429 L55.9169896,101.354286 L51.2337552,101.354286 C50.0868407,101.354286 49.1310785,102.325714 49.1310785,103.491429 L49.1310785,123.891429 C49.1310785,125.64 47.6974354,127 45.9770635,127 L42.154015,127 C40.4336432,127 39,125.64 39,123.891429 L39,62.1085714 C39,60.36 40.4336432,59 42.154015,59 L54.9612275,59 Z M61,74.9910714 C61,70.9642857 59.0645161,69 55.1935484,69 L51.1290323,69 C49.9677419,69 49,69.8839286 49,71.0625 L49,88.8392857 C49,90.0178571 49.9677419,91 51.1290323,91 L55.1935484,91 C56.5483871,91 58,90.5089286 58.9677419,89.5267857 C60.3225806,88.3482143 61,86.7767857 61,85.0089286 L61,74.9910714 Z M79,123.803419 L79,62.1965812 C79,60.4529915 80.4451827,59 82.179402,59 L104.916944,59 C106.651163,59 108,60.4529915 108,62.1965812 L108,66.1680912 C108,67.9116809 106.651163,69.3646724 104.916944,69.3646724 L91.3322259,69.3646724 C90.1760797,69.3646724 89.2126246,70.2364672 89.2126246,71.4957265 L89.2126246,85.7350427 C89.2126246,86.8974359 90.1760797,87.8660969 91.3322259,87.8660969 L99.8106312,87.8660969 C101.54485,87.8660969 102.990033,89.3190883 102.990033,91.0626781 L102.990033,94.9373219 C102.990033,96.6809117 101.54485,98.1339031 99.8106312,98.1339031 L91.3322259,98.1339031 C90.1760797,98.1339031 89.2126246,99.1025641 89.2126246,100.264957 L89.2126246,114.60114 C89.2126246,115.763533 90.1760797,116.635328 91.3322259,116.635328 L104.916944,116.635328 C106.651163,116.635328 108,118.088319 108,119.831909 L108,123.803419 C108,125.547009 106.651163,127 104.916944,127 L82.179402,127 C80.4451827,127 79,125.547009 79,123.803419 Z M125.393972,113.205714 L123.54532,124.377143 C123.350725,125.931429 121.98856,127 120.431801,127 L116.248009,127 C114.204762,127 112.7453,125.251429 113.037192,123.308571 L123.54532,61.6228571 C123.837213,60.0685714 125.199377,59 126.756137,59 L135.512911,59 C137.06967,59 138.334538,60.0685714 138.62643,61.6228571 L148.939963,123.308571 C149.329153,125.251429 147.772393,127 145.826444,127 L141.545354,127 C139.988595,127 138.62643,125.931429 138.334538,124.377143 L136.68048,113.205714 C136.485885,112.137143 135.610208,111.36 134.539936,111.36 L127.437219,111.36 C126.464245,111.36 125.49127,112.137143 125.393972,113.205714 Z M129.668685,79.6578073 L127.025014,98.6611296 C126.829186,99.9280177 127.808324,101 129.081202,101 L131.822787,101 C133.095665,101 134.172716,99.9280177 133.976889,98.6611296 L131.235304,79.6578073 C131.137391,78.7807309 129.766598,78.7807309 129.668685,79.6578073 Z M161.002041,127 L157.165306,127 C155.342857,127 154,125.547009 154,123.803419 L154,62.1965812 C154,60.4529915 155.342857,59 157.165306,59 L165.893878,59 C167.428571,59 168.771429,60.0655271 169.059184,61.6153846 L176.34898,99.6837607 C176.732653,101.42735 179.130612,101.42735 179.514286,99.6837607 L186.516327,61.6153846 C186.804082,60.1623932 188.146939,59 189.681633,59 L197.834694,59 C199.657143,59 201,60.4529915 201,62.1965812 L201,123.803419 C201,125.547009 199.657143,127 197.834694,127 L193.997959,127 C192.271429,127 190.832653,125.547009 190.832653,123.803419 L190.832653,89.4159544 C190.832653,88.8347578 189.969388,88.7378917 189.873469,89.3190883 L182.583673,124.481481 C182.295918,125.934473 181.04898,127 179.514286,127 L176.444898,127 C175.006122,127 173.663265,125.934473 173.37551,124.481481 L165.126531,88.8347578 C165.030612,88.2535613 164.071429,88.3504274 164.071429,89.02849 L164.071429,123.803419 C164.071429,125.547009 162.728571,127 161.002041,127 Z M269,110.339031 C269,114.891738 267.26506,119.347578 264.084337,122.447293 C261,125.450142 257.337349,127 253,127 L240.180723,127 C238.445783,127 237,125.547009 237,123.803419 L237,62.1965812 C237,60.4529915 238.445783,59 240.180723,59 L253,59 C257.433735,59 261.192771,60.6467236 264.373494,63.8433048 C267.457831,66.9430199 269,70.8176638 269,75.2735043 L269,110.339031 Z M249.04878,117 L253.146341,117 C254.609756,117 255.97561,116.519427 257.04878,115.558282 C258.317073,114.308793 259,112.867076 259,111.137014 L259,75.8629857 C259,74.5173824 258.512195,73.0756646 257.634146,72.0184049 C256.365854,70.6728016 254.902439,70 253.146341,70 L249.04878,70 C247.878049,70 247,70.9611452 247,72.1145194 L247,114.885481 C247,116.038855 247.878049,117 249.04878,117 Z M276,123.803419 L276,62.1965812 C276,60.4529915 277.445183,59 279.179402,59 L301.916944,59 C303.651163,59 305,60.4529915 305,62.1965812 L305,66.1680912 C305,67.9116809 303.651163,69.3646724 301.916944,69.3646724 L288.332226,69.3646724 C287.17608,69.3646724 286.212625,70.2364672 286.212625,71.4957265 L286.212625,85.7350427 C286.212625,86.8974359 287.17608,87.8660969 288.332226,87.8660969 L296.810631,87.8660969 C298.54485,87.8660969 299.990033,89.3190883 299.990033,91.0626781 L299.990033,94.9373219 C299.990033,96.6809117 298.54485,98.1339031 296.810631,98.1339031 L288.332226,98.1339031 C287.17608,98.1339031 286.212625,99.1025641 286.212625,100.264957 L286.212625,114.60114 C286.212625,115.763533 287.17608,116.635328 288.332226,116.635328 L301.916944,116.635328 C303.651163,116.635328 305,118.088319 305,119.831909 L305,123.803419 C305,125.547009 303.651163,127 301.916944,127 L279.179402,127 C277.445183,127 276,125.547009 276,123.803419 Z M318.033223,127 L314.179402,127 C312.445183,127 311,125.547009 311,123.803419 L311,62.1965812 C311,60.4529915 312.445183,59 314.179402,59 L336.916944,59 C338.651163,59 340,60.4529915 340,62.1965812 L340,66.1680912 C340,67.9116809 338.651163,69.3646724 336.916944,69.3646724 L323.332226,69.3646724 C322.17608,69.3646724 321.212625,70.2364672 321.212625,71.4957265 L321.212625,85.7350427 C321.212625,86.8974359 322.17608,87.8660969 323.332226,87.8660969 L331.810631,87.8660969 C333.54485,87.8660969 334.990033,89.3190883 334.990033,91.0626781 L334.990033,94.9373219 C334.990033,96.6809117 333.54485,98.1339031 331.810631,98.1339031 L323.332226,98.1339031 C322.17608,98.1339031 321.212625,99.1025641 321.212625,100.264957 L321.212625,123.803419 C321.212625,125.547009 319.863787,127 318.033223,127 Z M344,123.803419 L344,62.1965812 C344,60.4529915 345.445183,59 347.179402,59 L369.916944,59 C371.651163,59 373,60.4529915 373,62.1965812 L373,66.1680912 C373,67.9116809 371.651163,69.3646724 369.916944,69.3646724 L356.332226,69.3646724 C355.17608,69.3646724 354.212625,70.2364672 354.212625,71.4957265 L354.212625,85.7350427 C354.212625,86.8974359 355.17608,87.8660969 356.332226,87.8660969 L364.810631,87.8660969 C366.54485,87.8660969 367.990033,89.3190883 367.990033,91.0626781 L367.990033,94.9373219 C367.990033,96.6809117 366.54485,98.1339031 364.810631,98.1339031 L356.332226,98.1339031 C355.17608,98.1339031 354.212625,99.1025641 354.212625,100.264957 L354.212625,114.60114 C354.212625,115.763533 355.17608,116.635328 356.332226,116.635328 L369.916944,116.635328 C371.651163,116.635328 373,118.088319 373,119.831909 L373,123.803419 C373,125.547009 371.651163,127 369.916944,127 L347.179402,127 C345.445183,127 344,125.547009 344,123.803419 Z M392.019231,61.3247863 L403.846154,101.233618 C404.038462,101.814815 404.903846,101.621083 404.903846,101.039886 L404.903846,62.1965812 C404.903846,60.4529915 406.25,59 407.980769,59 L411.826923,59 C413.653846,59 415,60.4529915 415,62.1965812 L415,123.803419 C415,125.547009 413.653846,127 411.826923,127 L406.442308,127 C405,127 403.846154,126.128205 403.365385,124.77208 L391.153846,86.7037037 C390.961538,86.1225071 390.096154,86.2193732 390.096154,86.8005698 L390.096154,123.803419 C390.096154,125.547009 388.75,127 387.019231,127 L383.076923,127 C381.346154,127 380,125.547009 380,123.803419 L380,62.1965812 C380,60.4529915 381.346154,59 383.076923,59 L389.038462,59 C390.384615,59 391.634615,59.968661 392.019231,61.3247863 Z M454,110.339031 C454,114.891738 452.26506,119.347578 449.084337,122.447293 C446,125.450142 442.337349,127 438,127 L425.180723,127 C423.445783,127 422,125.547009 422,123.803419 L422,62.1965812 C422,60.4529915 423.445783,59 425.180723,59 L438,59 C442.433735,59 446.192771,60.6467236 449.373494,63.8433048 C452.457831,66.9430199 454,70.8176638 454,75.2735043 L454,110.339031 Z M434.04878,117 L438.146341,117 C439.609756,117 440.97561,116.519427 442.04878,115.558282 C443.317073,114.308793 444,112.867076 444,111.137014 L444,75.8629857 C444,74.5173824 443.512195,73.0756646 442.634146,72.0184049 C441.365854,70.6728016 439.902439,70 438.146341,70 L434.04878,70 C432.878049,70 432,70.9611452 432,72.1145194 L432,114.885481 C432,116.038855 432.878049,117 434.04878,117 Z M461,123.803419 L461,62.1965812 C461,60.4529915 462.445183,59 464.179402,59 L486.916944,59 C488.651163,59 490,60.4529915 490,62.1965812 L490,66.1680912 C490,67.9116809 488.651163,69.3646724 486.916944,69.3646724 L473.332226,69.3646724 C472.17608,69.3646724 471.212625,70.2364672 471.212625,71.4957265 L471.212625,85.7350427 C471.212625,86.8974359 472.17608,87.8660969 473.332226,87.8660969 L481.810631,87.8660969 C483.54485,87.8660969 484.990033,89.3190883 484.990033,91.0626781 L484.990033,94.9373219 C484.990033,96.6809117 483.54485,98.1339031 481.810631,98.1339031 L473.332226,98.1339031 C472.17608,98.1339031 471.212625,99.1025641 471.212625,100.264957 L471.212625,114.60114 C471.212625,115.763533 472.17608,116.635328 473.332226,116.635328 L486.916944,116.635328 C488.651163,116.635328 490,118.088319 490,119.831909 L490,123.803419 C490,125.547009 488.651163,127 486.916944,127 L464.179402,127 C462.445183,127 461,125.547009 461,123.803419 Z M511.961228,59 C517.600224,59 521.710001,60.5542857 524.386135,63.6628571 C526.679964,66.48 527.826879,70.2685714 527.826879,75.2228571 L527.826879,85.1314286 C527.826879,89.5028571 526.297659,93.2914286 523.334797,96.4971429 C522.76134,96.9828571 522.570187,97.76 522.76134,98.5371429 L528.878217,123.114286 C529.451674,125.057143 527.922455,127 525.915355,127 L521.423273,127 C519.989629,127 518.747139,126.028571 518.46041,124.571429 L512.91699,101.354286 L508.233755,101.354286 C507.086841,101.354286 506.131079,102.325714 506.131079,103.491429 L506.131079,123.891429 C506.131079,125.64 504.697435,127 502.977064,127 L499.154015,127 C497.433643,127 496,125.64 496,123.891429 L496,62.1085714 C496,60.36 497.433643,59 499.154015,59 L511.961228,59 Z M519,74.9910714 C519,70.9642857 517.064516,69 513.193548,69 L509.129032,69 C507.967742,69 507,69.8839286 507,71.0625 L507,88.8392857 C507,90.0178571 507.967742,91 509.129032,91 L513.193548,91 C514.548387,91 516,90.5089286 516.967742,89.5267857 C518.322581,88.3482143 519,86.7767857 519,85.0089286 L519,74.9910714 Z M567.994893,110.413649 C568.090142,115.122563 566.851902,119.158774 564.375421,122.522284 C562.756183,124.732591 560.374951,126.366295 557.422223,127.231198 C555.802986,127.807799 553.99325,128 551.802516,128 C547.897296,128 544.658821,127.038997 542.08709,125.020891 C539.896357,123.483287 538.18187,121.272981 536.943629,118.486072 C536.086386,116.660167 535.419641,114.642061 535.038644,112.431755 C534.752896,110.509749 536.086386,108.876045 537.896122,108.683844 L541.420345,108.395543 C542.944334,108.299443 544.373073,109.356546 544.658821,110.89415 C545.230316,113.488858 546.182809,115.410864 547.3258,116.756267 C548.564041,118.101671 549.99278,118.774373 551.516768,118.678273 C553.707502,118.582173 555.517238,117.52507 556.755479,115.410864 C557.517473,114.35376 557.803221,112.816156 557.803221,110.89415 C557.803221,108.107242 556.56498,105.320334 553.99325,102.533426 C551.993015,100.707521 549.040287,97.8245125 545.039818,93.9805014 C541.706093,90.7130919 539.420111,87.8300836 537.991371,85.235376 C536.467383,82.3523677 535.800638,79.1810585 535.800638,75.8175487 C535.800638,69.6671309 537.800873,64.9582173 541.896592,61.8830084 C544.373073,59.9610028 547.516299,59 551.231021,59 C554.850493,59 557.89847,59.7688022 560.4702,61.402507 C562.470435,62.6518106 564.089673,64.3816156 565.327913,66.6880223 C566.089908,68.0334262 566.661403,69.5710306 567.0424,71.2047354 C567.423397,72.9345404 566.280406,74.6643454 564.47067,75.0487465 L560.851197,75.7214485 C559.23196,76.0097493 557.803221,74.9526462 557.326974,73.4150418 C556.945977,71.9735376 556.279232,70.724234 555.517238,69.7632312 C554.564745,68.7061281 553.231255,68.1295265 551.516768,68.1295265 C549.707032,68.1295265 548.278293,68.994429 547.3258,70.6281337 C546.563806,71.9735376 546.182809,73.6072423 546.182809,75.5292479 C546.182809,78.6044568 547.42105,81.775766 550.088029,84.9470752 C551.040522,86.1963788 552.56451,87.637883 554.564745,89.2715877 C556.945977,91.1935933 558.469966,92.6350975 559.23196,93.4038997 C561.708441,95.902507 563.613426,98.4011142 564.946916,100.803621 C565.613661,101.956825 566.089908,103.013928 566.470905,103.97493 C567.423397,106.377437 567.994893,108.491643 567.994893,110.413649 Z M0.0959302326,175.276353 C0.0959302326,168.883191 1.82267442,163.94302 5.27616279,160.552707 C8.25,157.549858 12.1831395,156 16.9796512,156 C21.3924419,156 25.2296512,157.74359 28.2994186,161.037037 C31.4651163,164.42735 33,168.39886 33,172.854701 C33,177.407407 32.0406977,181.960114 29.9302326,186.222222 C28.875,188.643875 26.2848837,192.712251 22.1598837,198.524217 C21.1046512,200.074074 19.4738372,202.592593 17.2674419,205.88604 L15.4447674,208.695157 C14.1976744,210.535613 13.3343023,211.891738 12.7587209,212.957265 C12.4709302,213.538462 12.2790698,213.82906 12.2790698,213.925926 L30.505814,213.925926 C31.4651163,213.925926 32.2325581,214.700855 32.2325581,215.669516 L32.2325581,222.25641 C32.2325581,223.225071 31.4651163,224 30.505814,224 L3.06976744,224 C1.34302326,224 0,222.547009 0,220.803419 L0,214.603989 C0,214.410256 0.671511628,213.150997 2.20639535,210.826211 C2.87790698,209.760684 3.64534884,208.598291 4.50872093,207.339031 L7.09883721,203.561254 C8.63372093,201.430199 11.127907,198.039886 14.3895349,193.293447 C17.4593023,188.934473 19.8575581,184.866097 21.3924419,181.378917 C22.6395349,178.376068 23.2151163,175.663818 23.2151163,173.145299 C23.2151163,171.111111 22.6395349,169.367521 21.5843023,167.91453 C20.2412791,166.364672 18.7063953,165.589744 16.6918605,165.589744 C13.9098837,165.589744 11.8953488,167.236467 10.744186,170.529915 C10.2645349,171.595442 10.0726744,172.951567 10.0726744,174.501425 L10.0726744,175.276353 C10.0726744,176.245014 9.30523256,177.019943 8.34593023,177.019943 L1.91860465,177.019943 C0.959302326,177.019943 0.0959302326,176.245014 0.0959302326,175.276353 Z M71,207.951253 C71,212.371866 69.4716418,216.215877 66.319403,219.291086 C63.1671642,222.462396 59.441791,224 55.0477612,224 C50.6537313,224 46.8328358,222.462396 43.680597,219.291086 C40.6238806,216.119777 39,212.371866 39,207.951253 L39,171.144847 C39,166.628134 40.6238806,162.880223 43.7761194,159.708914 C46.8328358,156.633705 50.6537313,155 55.0477612,155 C59.5373134,155 63.2626866,156.633705 66.4149254,159.708914 C69.4716418,162.880223 71,166.724234 71,171.144847 L71,207.951253 Z M61,170.918812 C61,169.269307 60.4098361,167.910891 59.2295082,166.746535 C58.0491803,165.582178 56.6721311,165 55,165 C53.3278689,165 51.9508197,165.582178 50.7704918,166.746535 C49.5901639,167.910891 49,169.269307 49,170.918812 L49,208.081188 C49,209.730693 49.5901639,211.089109 50.7704918,212.253465 C51.9508197,213.417822 53.3278689,214 55,214 C56.6721311,214 58.0491803,213.417822 59.2295082,212.253465 C60.4098361,211.089109 61,209.730693 61,208.081188 L61,170.918812 Z M82.7244898,220.803419 L82.7244898,173.823362 C82.7244898,172.660969 81.755102,171.692308 80.5918367,171.692308 L77.1989796,171.692308 C75.4540816,171.692308 74,170.239316 74,168.495726 L74,167.139601 C74,165.68661 74.872449,164.524217 76.2295918,164.136752 C77.877551,163.652422 79.5255102,162.877493 81.0765306,161.7151 C82.7244898,160.552707 83.9846939,159.196581 84.9540816,157.646724 C85.6326531,156.678063 86.6020408,156 87.7653061,156 L89.8010204,156 C91.5459184,156 93,157.452991 93,159.196581 L93,220.803419 C93,222.547009 91.5459184,224 89.8010204,224 L85.9234694,224 C84.1785714,224 82.7244898,222.547009 82.7244898,220.803419 Z M133,207.951253 C133,212.275766 131.465116,216.023677 128.491279,219.098886 C125.325581,222.270195 121.008721,224 116.5,224 L116.020349,224 C111.607558,224 107.770349,222.366295 104.700581,219.291086 C101.534884,216.119777 100,212.275766 100,207.951253 L100,201.800836 C100,197.668524 101.438953,194.112813 104.125,190.941504 C105.180233,189.884401 106.235465,188.923398 107.482558,188.154596 C107.866279,187.962396 107.866279,187.481894 107.482558,187.289694 C105.180233,185.848189 103.261628,183.637883 101.918605,180.754875 C101.247093,179.02507 100.863372,176.910864 100.863372,174.412256 L100.863372,170.760446 C100.863372,166.339833 102.110465,162.688022 104.700581,159.901114 C107.578488,156.633705 111.319767,155 116.020349,155 L116.883721,155 C121.584302,155 125.421512,156.633705 128.299419,159.901114 C130.889535,162.784123 132.136628,166.339833 132.136628,170.760446 L132.136628,174.412256 C132.136628,178.544568 130.889535,182.004178 128.395349,184.791086 C127.531977,185.752089 126.572674,186.616992 125.517442,187.289694 C125.133721,187.481894 125.133721,187.962396 125.421512,188.154596 C128.107558,189.884401 130.218023,192.286908 131.656977,195.362117 C132.520349,197.188022 133,199.302228 133,201.800836 L133,207.951253 Z M122.988211,174.048128 C122.988211,169.427807 121.486257,166.540107 118.763965,165.385027 C118.106861,165.096257 117.355884,165 116.511034,165 C114.821336,165 113.413254,165.481283 112.286789,166.44385 C111.44194,167.213904 110.784835,168.176471 110.409346,169.427807 C110.033858,170.679144 109.939986,172.219251 110.033858,174.048128 C110.12773,177.032086 110.597091,179.149733 111.348068,180.40107 C112.380661,182.13369 114.164231,183 116.511034,183 C118.857838,183 120.641408,182.037433 121.674001,180.304813 C122.612723,178.764706 123.082083,176.647059 122.988211,174.048128 Z M123,203.841584 C123,199.891089 122.015152,197.257426 120.143939,195.940594 C119.257576,195.282178 118.075758,195 116.5,195 C113.742424,195 111.871212,196.128713 110.886364,198.386139 C110.295455,199.70297 110,201.584158 110,203.841584 L110,206.945545 C110,209.20297 110.689394,210.89604 112.068182,212.212871 C113.25,213.341584 114.727273,214 116.5,214 C119.356061,213.905941 121.325758,212.589109 122.409091,210.049505 C122.80303,209.20297 123,208.168317 123,206.945545 L123,203.841584 Z M176.912406,221.377143 L166.059264,159.691429 C165.675082,157.748571 167.21181,156 169.13272,156 L173.358722,156 C174.89545,156 176.240087,157.068571 176.432178,158.622857 L183.4435,202.531429 C183.635591,203.697143 185.364409,203.697143 185.5565,202.531429 L192.567822,158.622857 C192.759913,157.068571 194.10455,156 195.641278,156 L199.86728,156 C201.78819,156 203.324918,157.748571 202.940736,159.691429 L191.895503,221.474286 C191.607367,222.931429 190.26273,224 188.726002,224 L180.081907,224 C178.545179,224 177.200542,222.931429 176.912406,221.377143 Z M224.047761,155 C228.441791,155 232.262687,156.537604 235.414925,159.708914 C238.471642,162.880223 240,166.724234 240,171.144847 L240,207.855153 C240,212.371866 238.471642,216.215877 235.319403,219.291086 C232.167164,222.462396 228.441791,224 224.047761,224 C219.558209,224 215.832836,222.462396 212.680597,219.291086 C209.623881,216.119777 208,212.371866 208,207.855153 L208,171.144847 C208,166.628134 209.623881,162.880223 212.776119,159.708914 C215.832836,156.537604 219.653731,155 224.047761,155 Z M230,170.918812 C230,169.269307 229.404959,167.813861 228.31405,166.746535 C227.123967,165.582178 225.735537,165 224.049587,165 C222.363636,165 220.975207,165.582178 219.785124,166.746535 C218.595041,167.813861 218,169.269307 218,170.918812 L218,208.081188 C218,209.730693 218.595041,211.089109 219.785124,212.253465 C220.975207,213.417822 222.363636,214 224.049587,214 C225.735537,214 227.123967,213.417822 228.31405,212.253465 C229.404959,211.089109 230,209.730693 230,208.081188 L230,170.918812 Z M253.727273,166.297143 L248.2,166.297143 C246.454545,166.297143 245,164.84 245,163.091429 L245,159.108571 C245,157.36 246.454545,156 248.2,156 L273.8,156 C275.545455,156 277,157.36 277,159.108571 L277,163.091429 C277,164.84 275.545455,166.297143 273.8,166.297143 L268.272727,166.297143 C267.109091,166.297143 266.139394,167.268571 266.139394,168.434286 L266.139394,220.891429 C266.139394,222.64 264.684848,224 262.939394,224 L259.060606,224 C257.315152,224 255.860606,222.64 255.860606,220.891429 L255.860606,168.434286 C255.860606,167.268571 254.987879,166.297143 253.727273,166.297143 Z M282,220.803419 L282,159.196581 C282,157.452991 283.445183,156 285.179402,156 L307.916944,156 C309.651163,156 311,157.452991 311,159.196581 L311,163.168091 C311,164.911681 309.651163,166.364672 307.916944,166.364672 L294.332226,166.364672 C293.17608,166.364672 292.212625,167.236467 292.212625,168.495726 L292.212625,182.735043 C292.212625,183.897436 293.17608,184.866097 294.332226,184.866097 L302.810631,184.866097 C304.54485,184.866097 305.990033,186.319088 305.990033,188.062678 L305.990033,191.937322 C305.990033,193.680912 304.54485,195.133903 302.810631,195.133903 L294.332226,195.133903 C293.17608,195.133903 292.212625,196.102564 292.212625,197.264957 L292.212625,211.60114 C292.212625,212.763533 293.17608,213.635328 294.332226,213.635328 L307.916944,213.635328 C309.651163,213.635328 311,215.088319 311,216.831909 L311,220.803419 C311,222.547009 309.651163,224 307.916944,224 L285.179402,224 C283.445183,224 282,222.547009 282,220.803419 Z M332.961228,156 C338.600224,156 342.710001,157.554286 345.386135,160.662857 C347.679964,163.48 348.826879,167.268571 348.826879,172.222857 L348.826879,182.131429 C348.826879,186.502857 347.297659,190.291429 344.334797,193.497143 C343.76134,193.982857 343.570187,194.76 343.76134,195.537143 L349.878217,220.114286 C350.451674,222.057143 348.922455,224 346.915355,224 L342.423273,224 C340.989629,224 339.747139,223.028571 339.46041,221.571429 L333.91699,198.354286 L329.233755,198.354286 C328.086841,198.354286 327.131079,199.325714 327.131079,200.491429 L327.131079,220.891429 C327.131079,222.64 325.697435,224 323.977064,224 L320.154015,224 C318.433643,224 317,222.64 317,220.891429 L317,159.108571 C317,157.36 318.433643,156 320.154015,156 L332.961228,156 Z M339,171.991071 C339,167.964286 337.064516,166 333.193548,166 L329.129032,166 C327.967742,166 327,166.883929 327,168.0625 L327,185.839286 C327,187.017857 327.967742,188 329.129032,188 L333.193548,188 C334.548387,188 336,187.508929 336.967742,186.526786 C338.322581,185.348214 339,183.776786 339,182.008929 L339,171.991071 Z M401.047761,224 C396.653731,224 392.832836,222.366295 389.680597,219.291086 C386.623881,216.119777 385,212.275766 385,207.951253 L385,171.433148 C385,168.550139 385.668657,165.667131 387.101493,163.168524 C390.062687,157.979109 395.41194,155 401.047761,155 C405.441791,155 409.071642,156.537604 412.128358,159.516713 C415.376119,162.688022 417,167.012535 417,171.529248 L417,175.66156 C417,177.391365 415.662687,178.832869 413.943284,178.832869 L409.740299,178.832869 C408.020896,178.832869 406.58806,177.391365 406.58806,175.66156 L406.58806,171.048747 C406.58806,169.511142 406.014925,167.973538 404.964179,166.916435 C403.81791,165.667131 402.385075,165.090529 400.665672,165.090529 C399.137313,165.090529 397.704478,165.667131 396.653731,166.820334 C395.507463,167.973538 394.934328,169.318942 394.934328,170.952646 L394.934328,207.759053 C394.934328,209.392758 395.507463,210.834262 396.653731,211.891365 C397.8,213.044568 399.137313,213.62117 400.761194,213.62117 C402.289552,213.62117 403.722388,213.044568 404.773134,211.987465 C406.014925,210.834262 406.58806,209.488858 406.58806,207.855153 L406.58806,196.707521 C406.58806,195.554318 405.632836,194.593315 404.486567,194.593315 L404.104478,194.593315 C402.385075,194.593315 400.952239,193.151811 400.952239,191.422006 L400.952239,187.481894 C400.952239,185.752089 402.385075,184.406685 404.104478,184.406685 L413.943284,184.406685 C415.662687,184.406685 417,185.752089 417,187.481894 L417,207.951253 C417,212.371866 415.471642,216.215877 412.319403,219.291086 C409.167164,222.462396 405.441791,224 401.047761,224 Z M440.047761,224 C435.558209,224 431.832836,222.463277 428.680597,219.389831 C425.623881,216.220339 424,212.474576 424,208.056497 L424,159.169492 C424,157.344633 425.432836,156 427.152239,156 L430.78209,156 C432.501493,156 433.934328,157.344633 433.934328,159.169492 L433.934328,207.960452 C433.934328,209.305085 434.41194,210.649718 435.367164,211.706215 C436.513433,213.050847 438.041791,213.723164 439.761194,213.723164 C441.385075,213.723164 442.722388,213.146893 443.868657,211.99435 C444.919403,210.937853 445.492537,209.497175 445.492537,207.960452 L445.492537,159.169492 C445.492537,157.344633 446.925373,156 448.644776,156 L452.943284,156 C454.662687,156 456,157.344633 456,159.169492 L456,208.056497 C456,212.570621 454.471642,216.316384 451.319403,219.389831 C448.167164,222.463277 444.441791,224 440.047761,224 Z M469.886792,224 L466.113208,224 C464.415094,224 463,222.64 463,220.891429 L463,159.108571 C463,157.36 464.415094,156 466.113208,156 L469.886792,156 C471.584906,156 473,157.36 473,159.108571 L473,220.891429 C473,222.64 471.584906,224 469.886792,224 Z M512,207.339031 C512,211.891738 510.26506,216.347578 507.084337,219.447293 C504,222.450142 500.337349,224 496,224 L483.180723,224 C481.445783,224 480,222.547009 480,220.803419 L480,159.196581 C480,157.452991 481.445783,156 483.180723,156 L496,156 C500.433735,156 504.192771,157.646724 507.373494,160.843305 C510.457831,163.94302 512,167.817664 512,172.273504 L512,207.339031 Z M492.04878,214 L496.146341,214 C497.609756,214 498.97561,213.519427 500.04878,212.558282 C501.317073,211.308793 502,209.867076 502,208.137014 L502,172.862986 C502,171.517382 501.512195,170.075665 500.634146,169.018405 C499.365854,167.672802 497.902439,167 496.146341,167 L492.04878,167 C490.878049,167 490,167.961145 490,169.114519 L490,211.885481 C490,213.038855 490.878049,214 492.04878,214 Z M519,220.803419 L519,159.196581 C519,157.452991 520.445183,156 522.179402,156 L544.916944,156 C546.651163,156 548,157.452991 548,159.196581 L548,163.168091 C548,164.911681 546.651163,166.364672 544.916944,166.364672 L531.332226,166.364672 C530.17608,166.364672 529.212625,167.236467 529.212625,168.495726 L529.212625,182.735043 C529.212625,183.897436 530.17608,184.866097 531.332226,184.866097 L539.810631,184.866097 C541.54485,184.866097 542.990033,186.319088 542.990033,188.062678 L542.990033,191.937322 C542.990033,193.680912 541.54485,195.133903 539.810631,195.133903 L531.332226,195.133903 C530.17608,195.133903 529.212625,196.102564 529.212625,197.264957 L529.212625,211.60114 C529.212625,212.763533 530.17608,213.635328 531.332226,213.635328 L544.916944,213.635328 C546.651163,213.635328 548,215.088319 548,216.831909 L548,220.803419 C548,222.547009 546.651163,224 544.916944,224 L522.179402,224 C520.445183,224 519,222.547009 519,220.803419 Z" id="DREAM-DEFENDERS-2018"></path>
            <path d="M928.43839,117.495607 C972.055131,78.5165649 947.072478,94.3054555 1058.13052,38.6071181 C1091.83373,18.7118566 1112.24682,27.1624459 1215.70751,43.2101709 C1258.43824,49.8349292 1286.02311,46.0433568 1326.70974,42.4616501 C1334.38682,41.787466 1341.15536,47.4814445 1341.8277,55.1795071 C1342.50005,62.8775698 1336.8216,69.6646168 1329.14452,70.3388009 C1240.16693,78.1597933 1254.73375,77.5791651 1110.98408,55.2774444 C1087.80135,51.6887422 1085.08751,56.3757412 979.547834,109.303852 L946.995737,138.384233 C941.220918,143.31206 932.57837,142.713153 927.534475,137.035614 C922.490579,131.358076 922.891999,122.680559 928.43839,117.495607 Z" id="Path"></path>
            <rect id="Rectangle" stroke="#979797" x="0.5" y="253.5" width="567" height="16"></rect>
        </g>
    </g>
</svg>