<?xml version="1.0" encoding="UTF-8"?>
<svg width="165px" height="30px" viewBox="0 0 165 30" version="1.1" xmlns="http://www.w3.org/2000/svg" xmlns:xlink="http://www.w3.org/1999/xlink">
    <!-- Generator: Sketch 52.1 (67048) - http://www.bohemiancoding.com/sketch -->
    <title>Group</title>
    <desc>Created with Sketch.</desc>
    <g id="Page-1" stroke="none" stroke-width="1" fill="none" fill-rule="evenodd">
        <g id="Group" transform="translate(-1.000000, -1.000000)" fill="#417505">
            <path d="M163.895999,8.55711285 C163.840533,8.54313962 163.798933,8.50820638 163.7712,8.45231303 L163.5216,8.45231303 L163.2928,8.68287196 C163.195733,8.78068532 163.1472,8.8435644 163.1472,8.87151108 L163.2304,8.97631059 C163.285867,9.04617728 163.299733,9.12302949 163.272,9.20686952 C163.244266,9.26276287 163.154134,9.28372257 163.0016,9.26974923 C162.849066,9.25577589 162.758933,9.30468184 162.7312,9.41646855 C162.592532,9.41646855 162.453867,9.50030732 162.3152,9.66798738 C162.3152,9.69593405 162.335999,9.73086687 162.3776,9.77278689 C162.4192,9.8147069 162.453866,9.8356666 162.4816,9.8356666 L162.0656,10.2548646 L161.8992,10.0871854 L161.6496,10.0871854 L161.6496,9.96142601 C161.677333,9.87758598 161.6496,9.82169347 161.5664,9.79374679 C161.510933,9.93348017 161.538666,10.0312921 161.6496,10.0871854 C161.621866,10.2269188 161.510934,10.3387038 161.3168,10.4225439 C161.233599,10.3666505 161.178133,10.3247311 161.1504,10.2967845 C161.1504,10.2688378 161.1712,10.2199318 161.2128,10.1500651 C161.2544,10.0801984 161.289066,10.0312925 161.3168,10.0033458 C161.3168,9.94745246 161.268267,9.91950621 161.1712,9.91950621 L161.0256,9.91950621 C161.0256,9.77977282 160.956267,9.72388031 160.8176,9.75182699 C160.734399,9.77977366 160.6928,9.83566618 160.6928,9.91950621 C160.665066,10.0312929 160.720532,10.0871854 160.8592,10.0871854 C160.886933,10.1710255 160.928533,10.2548642 160.984,10.3387043 C160.623465,10.534331 160.360001,10.6181698 160.1936,10.5902231 C160.165866,10.4784364 160.145066,10.4295304 160.1312,10.4435038 L160.0688,10.5063835 C160.124267,10.5343302 160.165866,10.5622764 160.1936,10.5902231 C160.1936,10.6181698 160.179733,10.646116 160.152,10.6740627 C160.124266,10.7020094 160.1104,10.7299556 160.1104,10.7579023 L159.8608,10.7579023 C159.8608,10.6461156 159.805334,10.5902231 159.6944,10.5902231 C159.6944,10.5622764 159.742933,10.4854242 159.84,10.3596642 C159.937067,10.2339041 159.916267,10.1430788 159.7776,10.0871854 C159.722133,10.1710255 159.6528,10.2967836 159.5696,10.4644637 L159.5696,10.5902231 L159.528,10.5902231 C159.417066,10.6181698 159.389333,10.6600892 159.4448,10.7159825 L159.5696,10.5902231 L159.6944,10.5902231 C159.6944,10.7020098 159.749866,10.7579023 159.8608,10.7579023 C159.888533,10.785849 159.874667,10.8277684 159.8192,10.8836617 C159.763733,10.9395551 159.722133,10.9954476 159.6944,11.0513409 C159.888534,11.0792876 160.054932,11.0932608 160.1936,11.0932608 L160.1936,11.3447796 C160.165866,11.3447796 160.096534,11.3727258 159.9856,11.4286192 L159.7776,11.2190202 L159.528,11.3028598 C159.555733,11.3028598 159.625066,11.3727254 159.736,11.5124588 C159.680533,11.5124588 159.625067,11.5194454 159.5696,11.5334187 C159.514133,11.547392 159.472533,11.5683517 159.4448,11.5962984 C159.306132,11.7080851 159.209067,11.805897 159.1536,11.889737 C159.014932,11.8617904 158.779201,11.9456291 158.4464,12.1412559 C158.418666,12.1412559 158.266134,12.1692021 157.9888,12.2250955 L157.8224,12.3927747 C157.8224,12.3368814 157.808533,12.2879754 157.7808,12.2460554 C157.753066,12.2041354 157.732266,12.162216 157.7184,12.120296 C157.704533,12.078376 157.683733,12.0364566 157.656,11.9945366 C157.628266,11.9526165 157.6144,11.9176837 157.6144,11.889737 L157.9056,11.8478172 C157.933333,11.5962972 157.9472,11.4565659 157.9472,11.4286192 C158.196801,11.4006725 158.335466,11.3727263 158.3632,11.3447796 L158.4048,11.2190202 L158.7376,11.2190202 C158.7376,11.0513401 158.723733,10.9535282 158.696,10.9255815 C158.529599,11.0094216 158.432533,11.1072335 158.4048,11.2190202 L158.1552,11.0932608 C158.099733,11.1212074 158.058133,11.1631268 158.0304,11.2190202 L157.656,11.2190202 C157.461865,11.4425936 157.337067,11.5823249 157.2816,11.6382182 L157.3232,11.680138 C157.3232,11.7080847 157.406399,11.7220578 157.5728,11.7220578 L157.6976,11.5962984 C157.753067,11.6521918 157.725334,11.6941112 157.6144,11.7220578 L157.6144,11.889737 L156.8656,11.889737 C156.837866,11.9176837 156.817066,11.94563 156.8032,11.9735767 C156.789333,12.0015233 156.7616,12.0364562 156.72,12.0783762 C156.6784,12.1202962 156.643733,12.1692021 156.616,12.2250955 L156.616,12.3508549 C156.643733,12.3788016 156.699199,12.420721 156.7824,12.4766143 C156.699199,12.5325077 156.643733,12.5045614 156.616,12.3927747 L156.3664,12.3927747 C156.310933,12.5325081 156.2832,12.6163469 156.2832,12.6442935 C156.2832,12.6722402 156.2624,12.6862133 156.2208,12.6862133 C156.1792,12.6862133 156.1584,12.7001865 156.1584,12.7281332 C156.130666,12.7001865 156.130666,12.6582671 156.1584,12.6023737 C156.1584,12.490587 156.1168,12.4207214 156.0336,12.3927747 C156.0336,12.4207214 156.0128,12.4486676 155.9712,12.4766143 C155.9296,12.504561 155.901866,12.5325073 155.888,12.5604539 C155.874133,12.5884006 155.8672,12.63032 155.8672,12.6862133 C155.978134,12.6862133 156.075199,12.7001865 156.1584,12.7281332 C156.130666,12.7560798 156.144533,12.7910126 156.2,12.8329327 C156.255467,12.8748527 156.2832,12.9097855 156.2832,12.9377322 C156.255466,12.9936255 156.2,13.1193837 156.1168,13.3150104 C155.146128,13.7901039 154.605334,14.0555934 154.4944,14.1114867 C153.551462,14.5865802 153.066133,14.8380965 153.0384,14.8660432 C152.955199,14.8939899 152.761068,14.9498824 152.456,15.0337224 C152.456,15.0616691 152.449067,15.0966019 152.4352,15.1385219 C152.421333,15.180442 152.4144,15.2153748 152.4144,15.2433215 C152.331199,15.2712681 152.116268,15.3760666 151.7696,15.55772 C151.422931,15.7393734 151.166401,15.8721181 151,15.9559581 C150.944533,15.9559581 150.896,15.9699313 150.8544,15.997878 C150.8128,16.0258246 150.7712,16.067744 150.7296,16.1236374 C150.688,16.1795307 150.653333,16.2214501 150.6256,16.2493968 C150.597866,16.2773435 150.549333,16.2983032 150.48,16.3122765 C150.410666,16.3262498 150.3552,16.340223 150.3136,16.3541963 C150.272,16.3681696 150.237333,16.4031025 150.2096,16.4589958 C150.154133,16.4310491 150.0848,16.4520088 150.0016,16.5218755 C149.918399,16.5917422 149.856,16.626675 149.8144,16.626675 C149.7728,16.626675 149.7104,16.6546213 149.6272,16.7105146 C149.543999,16.7943547 149.4608,16.8223009 149.3776,16.7943542 C149.294399,16.9340876 149.128001,17.0668324 148.8784,17.1925924 L148.4208,17.4231513 L148.2544,17.2554721 C148.226666,17.3952055 148.198933,17.4930174 148.1712,17.5489107 C147.977066,17.6327508 147.8384,17.7026164 147.7552,17.7585098 L147.6304,17.6327504 C147.491732,17.8563238 147.394667,18.0100282 147.3392,18.0938682 L147.048,18.0938682 C146.909332,18.1497616 146.756801,18.2336003 146.5904,18.345387 L146.5904,18.5130663 L146.4656,18.5969059 C146.437866,18.5969059 146.3824,18.610879 146.2992,18.6388257 C146.215999,18.6667724 146.1536,18.6947186 146.112,18.7226653 C146.0704,18.750612 146.021867,18.7785582 145.9664,18.8065049 C145.855466,18.9182916 145.654401,19.0510363 145.3632,19.204743 C145.071998,19.3584498 144.8848,19.4492751 144.8016,19.4772218 C144.773866,19.5051685 144.711467,19.5331147 144.6144,19.5610614 C144.517333,19.5890081 144.441067,19.6449006 144.3856,19.7287406 C144.3856,19.7566873 144.357867,19.7846335 144.3024,19.8125802 C144.246933,19.8405269 144.191467,19.8614866 144.136,19.8754599 C144.080533,19.8894333 144.038933,19.910393 144.0112,19.9383396 C143.983466,19.994233 143.928,20.0291658 143.8448,20.0431391 C143.761599,20.0571125 143.706133,20.0780722 143.6784,20.1060189 C143.650666,20.1619122 143.553601,20.2038316 143.3872,20.2317783 L143.304,20.3156179 C143.248533,20.3715112 143.193067,20.3994575 143.1376,20.3994575 C143.082133,20.3994575 143.040533,20.4274037 143.0128,20.4832971 C142.985066,20.5391905 142.894934,20.6020695 142.7424,20.6719362 C142.589866,20.7418029 142.499733,20.804682 142.472,20.8605753 C142.416533,20.9164687 142.340267,20.9653747 142.2432,21.0072947 C142.146133,21.0492147 142.083733,21.0841475 142.056,21.1120942 C142.028266,21.1400409 141.965867,21.1679871 141.8688,21.1959338 C141.771733,21.2238805 141.709333,21.2657999 141.6816,21.3216932 C141.570666,21.4893733 141.432001,21.573212 141.2656,21.573212 C141.182399,21.7129454 141.009068,21.8387036 140.7456,21.9504903 C140.482132,22.062277 140.294934,22.174062 140.184,22.2858487 C140.156266,22.3417421 140.107734,22.3836615 140.0384,22.4116081 C139.969066,22.4395548 139.899734,22.4605145 139.8304,22.4744878 C139.761066,22.4884612 139.698667,22.5094209 139.6432,22.5373676 C139.338132,22.760941 139.171733,22.8866991 139.144,22.9146458 L138.6864,23.1661646 C138.575466,23.305898 138.422934,23.4037099 138.2288,23.4596033 C138.173333,23.4875499 138.034668,23.5853618 137.8128,23.7530419 C137.785066,23.7530419 137.743467,23.7600285 137.688,23.7740018 C137.632533,23.7879751 137.6048,23.8089348 137.6048,23.8368815 C137.577066,23.8368815 137.473067,23.892774 137.2928,24.0045607 C137.112532,24.1163474 136.9808,24.2141593 136.8976,24.2979994 L136.648,24.2979994 L136.5232,24.381839 C136.495466,24.4097857 136.453867,24.4586916 136.3984,24.5285583 C136.342933,24.598425 136.2944,24.6543175 136.2528,24.6962375 C136.2112,24.7381575 136.1696,24.7661038 136.128,24.7800771 C136.0864,24.7940505 136.017067,24.8289833 135.92,24.8848766 C135.822933,24.94077 135.746667,24.9687163 135.6912,24.9687163 C135.635733,24.9687163 135.573334,25.0036491 135.504,25.0735158 L135.4,25.1783153 C135.372266,25.206262 135.3168,25.2342082 135.2336,25.2621549 C135.1504,25.2901016 135.094933,25.3250344 135.0672,25.3669544 C135.039466,25.4088744 134.873068,25.527646 134.568,25.7232727 C134.540266,25.7512194 134.491734,25.7721791 134.4224,25.7861525 C134.353066,25.8001258 134.2976,25.8210855 134.256,25.8490322 C134.2144,25.8769788 134.179733,25.9119117 134.152,25.9538317 C134.124266,25.9957517 134.0896,26.0306845 134.048,26.0586312 C134.0064,26.0865779 133.957867,26.1075376 133.9024,26.1215109 C133.846933,26.1354842 133.805333,26.1564439 133.7776,26.1843906 C133.722133,26.2682306 133.555735,26.3800157 133.2784,26.519749 C133.250666,26.5476957 133.202134,26.5686554 133.1328,26.5826287 C133.063466,26.5966021 133.008,26.6175618 132.9664,26.6455085 C132.9248,26.6734551 132.890133,26.7153745 132.8624,26.7712679 C132.834666,26.8271612 132.772267,26.8690806 132.6752,26.8970273 C132.578133,26.924974 132.515733,26.9529202 132.488,26.9808669 C132.432533,27.0647069 132.328534,27.1485457 132.176,27.2323857 C132.023466,27.3162258 131.919467,27.3860914 131.864,27.4419848 C131.808533,27.4978781 131.704534,27.5677438 131.552,27.6515838 C131.399466,27.7354238 131.295467,27.8192626 131.24,27.9031026 C131.129066,27.9031026 131.018134,27.9659817 130.9072,28.0917417 C130.796266,28.2175018 130.685334,28.2803809 130.5744,28.2803809 C130.4912,28.3642209 130.394134,28.4480597 130.2832,28.5318997 C130.172266,28.6157397 130.040534,28.6856054 129.888,28.7414987 C129.735466,28.7973921 129.6176,28.8602711 129.5344,28.9301378 C129.4512,29.0000045 129.354134,29.0698702 129.2432,29.1397369 C129.132266,29.2096036 129.007467,29.2724826 128.8688,29.328376 C128.730133,29.3842693 128.633067,29.4401619 128.5776,29.4960552 C128.522133,29.5240019 128.445867,29.537975 128.3488,29.537975 L128.1616,29.537975 C128.1616,29.5659217 128.133867,29.5938679 128.0784,29.6218146 L127.9952,29.7056542 L127.5376,29.7056542 C127.4544,29.7615476 127.385067,29.8174401 127.3296,29.8733335 L126.456,29.8733335 C126.095465,29.7336001 125.818134,29.5379763 125.624,29.2864562 L125.624,28.9510977 L125.4992,28.8253383 L125.4992,28.1546214 C125.416,28.0987281 125.360533,28.0428356 125.3328,27.9869422 L125.3328,26.9808669 L125.1664,26.9389471 L125.0832,26.9389471 L125,26.8551075 L125,25.6813529 L125.0832,25.6394331 L125.1664,25.5555935 L125.1664,24.7591172 C125.1664,24.7311705 125.208,24.6473318 125.2912,24.5075984 C125.3744,24.367865 125.443733,24.2700531 125.4992,24.2141598 L125.4992,23.7530419 C125.554667,23.6692019 125.596267,23.6272825 125.624,23.6272825 C125.624,23.5713891 125.651733,23.4945369 125.7072,23.3967236 C125.762667,23.2989102 125.797333,23.2360311 125.8112,23.2080844 C125.825067,23.1801378 125.832,23.1242452 125.832,23.0404052 C125.832,22.9565652 125.845867,22.8866995 125.8736,22.8308062 C125.9568,22.6910728 126.150932,22.3137983 126.456,21.6989715 C126.566934,21.4474514 126.6224,21.2797738 126.6224,21.1959338 C126.650133,21.1400404 126.6848,21.0771614 126.7264,21.0072947 C126.768,20.937428 126.8096,20.8745489 126.8512,20.8186555 C126.8928,20.7627622 126.9136,20.7068697 126.9136,20.6509763 C126.9136,20.595083 126.948266,20.5182308 127.0176,20.4204174 C127.086934,20.322604 127.1216,20.2317787 127.1216,20.1479387 C127.177067,20.119992 127.2256,20.0361532 127.2672,19.8964198 C127.3088,19.7566864 127.357333,19.6728477 127.4128,19.644901 C127.4128,19.5890076 127.4336,19.5331151 127.4752,19.4772218 C127.5168,19.4213284 127.551467,19.3654359 127.5792,19.3095426 C127.606933,19.2536492 127.6208,19.1977567 127.6208,19.1418633 L127.6624,19.0999435 C127.690133,19.0999435 127.717867,19.0859704 127.7456,19.0580237 L127.7456,19.0999435 C127.773333,19.2117302 127.8288,19.2396765 127.912,19.1837831 C127.856533,19.1278898 127.801067,19.0859704 127.7456,19.0580237 L127.7456,18.8065049 C127.8288,18.7785582 127.898133,18.7296523 127.9536,18.6597856 C128.009067,18.5899189 128.064533,18.492107 128.12,18.3663469 C128.175467,18.2405869 128.217067,18.1637347 128.2448,18.135788 C128.2448,18.1078413 128.279466,18.0309891 128.3488,17.9052291 C128.418134,17.779469 128.466667,17.6886437 128.4944,17.6327504 C128.633067,17.4091769 128.730133,17.2554725 128.7856,17.1716325 C128.813333,17.0877925 128.882666,17.0249134 128.9936,16.9829934 C129.104534,16.9410734 129.173866,16.9061405 129.2016,16.8781939 C129.173866,16.8223005 129.132267,16.7803811 129.0768,16.7524344 L129.0768,16.7105146 C129.132267,16.6266746 129.243199,16.4869433 129.4096,16.2913166 C129.520534,16.2913166 129.589866,16.3052897 129.6176,16.3332364 C129.7008,16.3611831 129.707734,16.4031025 129.6384,16.4589958 C129.569066,16.5148892 129.5344,16.5568085 129.5344,16.5847552 L129.5344,16.8781939 L129.368,17.0458731 C129.368,17.1576598 129.381866,17.2275254 129.4096,17.2554721 C129.381866,17.2834188 129.354133,17.2973919 129.3264,17.2973919 C129.2432,17.2973919 129.229333,17.3393113 129.2848,17.4231513 C129.340267,17.367258 129.381866,17.3113655 129.4096,17.2554721 C129.4928,17.2834188 129.562133,17.2414994 129.6176,17.1297127 C129.645333,17.017926 129.7008,16.9131275 129.784,16.8153142 C129.8672,16.7175008 129.964266,16.6127023 130.0752,16.5009156 L130.3248,16.2493968 C130.380267,16.3052901 130.463466,16.3751558 130.5744,16.4589958 C130.6576,16.4031025 130.837865,16.3052906 131.1152,16.1655572 L131.6144,16.1655572 L131.6352,16.2493968 C131.649067,16.3052901 131.656,16.3472095 131.656,16.3751562 L131.3232,16.7105146 L131.3232,16.8781939 L131.448,16.9620335 C131.669868,16.9620335 131.808533,17.017926 131.864,17.1297127 C131.9472,16.9061393 132.127465,16.6825692 132.4048,16.4589958 L132.4672,16.4589958 C132.5088,16.4589958 132.543466,16.4729689 132.5712,16.5009156 L132.6128,16.5428354 L132.6128,16.8362741 C132.640533,16.8642207 132.668266,16.8991536 132.696,16.9410736 C132.723733,16.9829936 132.751466,17.0179264 132.7792,17.0458731 C132.751466,17.0458731 132.723733,17.0668328 132.696,17.1087528 C132.668266,17.1506728 132.640533,17.1856056 132.6128,17.2135523 C132.640533,17.241499 132.702933,17.2764318 132.8,17.3183518 C132.897067,17.3602718 132.973333,17.3952046 133.0288,17.4231513 L133.1952,17.2973919 C133.2784,17.3532853 133.292267,17.4930166 133.2368,17.71659 C133.209066,17.7445366 133.160534,17.7724829 133.0912,17.8004296 C133.021866,17.8283762 132.959467,17.8423494 132.904,17.8423494 C132.959467,17.8702961 133.0288,17.8982423 133.112,17.926189 C133.1952,17.9541357 133.250666,17.9820819 133.2784,18.0100286 L133.2784,18.1777078 C133.1952,18.2336012 133.139733,18.2894937 133.112,18.345387 L133.112,18.5969059 L133.0288,18.5969059 C133.001066,18.6248525 132.973333,18.6737585 132.9456,18.7436252 C132.917866,18.8134919 132.890133,18.876371 132.8624,18.9322643 C132.834666,18.9322643 132.786134,18.9671971 132.7168,19.0370638 C132.647466,19.1069305 132.6128,19.1837827 132.6128,19.2676228 C132.6128,19.2955694 132.6336,19.3374888 132.6752,19.3933822 C132.7168,19.4492755 132.751466,19.4911949 132.7792,19.5191416 C132.696,19.5750349 132.640533,19.6728468 132.6128,19.8125802 C132.6128,19.8405269 132.515734,19.9523119 132.3216,20.1479387 C132.293866,20.2317787 132.28,20.3295906 132.28,20.4413773 C132.28,20.4972706 132.224534,20.5671363 132.1136,20.6509763 C132.002666,20.7348164 131.9472,20.8326283 131.9472,20.944415 C131.9472,20.9723616 131.933333,21.014281 131.9056,21.0701744 L131.8224,21.1959338 L131.8224,21.4474526 C131.766933,21.4753993 131.704534,21.5312918 131.6352,21.6151318 C131.565866,21.6989719 131.517333,21.7548644 131.4896,21.7828111 C131.517333,21.8107577 131.552,21.8526771 131.5936,21.9085705 C131.6352,21.9644638 131.669866,22.0063832 131.6976,22.0343299 C131.6144,22.0902232 131.517334,22.1600889 131.4064,22.2439289 C131.295466,22.3277689 131.212267,22.3836615 131.1568,22.4116081 L131.1568,22.6212072 L131.24,22.663127 C131.267733,22.6351803 131.309333,22.607234 131.3648,22.5792874 C131.420267,22.5513407 131.475733,22.530381 131.5312,22.5164077 C131.586667,22.5024343 131.6144,22.4814746 131.6144,22.4535279 C131.725334,22.3137946 131.947198,22.1740633 132.28,22.0343299 C132.335467,22.0063832 132.397866,21.9574773 132.4672,21.8876106 C132.536534,21.8177439 132.598933,21.7828111 132.6544,21.7828111 C132.848534,21.6710244 133.001066,21.5871856 133.112,21.5312922 C133.167467,21.5033456 133.2368,21.447453 133.32,21.363613 C133.4032,21.279773 133.458666,21.2378536 133.4864,21.2378536 C133.541867,21.2378536 133.666666,21.2238805 133.8608,21.1959338 C133.888533,21.1400404 133.916266,21.0562017 133.944,20.944415 C134.332269,20.7487882 134.540266,20.6370032 134.568,20.6090565 C134.623467,20.5531632 134.720533,20.4902841 134.8592,20.4204174 C134.997867,20.3505507 135.094933,20.2876716 135.1504,20.2317783 C135.177452,20.2317783 135.19131,20.2184831 135.191975,20.1918922 C135.194119,20.2219232 135.20791,20.2478104 135.2336,20.2736981 C135.2336,20.3575381 135.2752,20.3715112 135.3584,20.3156179 C135.302933,20.2597245 135.247467,20.2178051 135.192,20.1898585 L135.2336,20.1479387 C135.2336,20.119992 135.247466,20.1060189 135.2752,20.1060189 C135.330667,20.0780722 135.497065,20.0082065 135.7744,19.8964198 L135.9408,20.064099 C135.996267,20.0082057 136.065599,19.9243669 136.1488,19.8125802 L136.024,19.644901 C136.079467,19.6169543 136.211199,19.5540752 136.4192,19.4562619 C136.627201,19.3584485 136.772799,19.25365 136.856,19.1418633 C136.9392,19.1139167 137.077866,19.044051 137.272,18.9322643 C137.466134,18.8204776 137.618666,18.7645851 137.7296,18.7645851 C137.7296,18.7366384 137.840532,18.6248534 138.0624,18.4292266 L138.8528,18.4292266 L139.6848,17.5908305 L139.9344,17.5908305 L139.9344,17.7585098 C139.795733,17.7585098 139.740266,17.8144023 139.768,17.926189 L139.7264,17.926189 C139.615466,17.9541357 139.587733,18.0100282 139.6432,18.0938682 C139.698667,18.0379749 139.740266,17.9820823 139.768,17.926189 C139.823467,17.926189 139.865066,17.9122159 139.8928,17.8842692 C139.920533,17.8563225 139.9344,17.8144031 139.9344,17.7585098 L140.0592,17.71659 C140.0592,17.6327499 140.0176,17.5908305 139.9344,17.5908305 C139.9344,17.5349372 139.982933,17.458085 140.08,17.3602716 L140.2672,17.1716325 C140.294933,17.1157391 140.364266,17.0598466 140.4752,17.0039533 C140.586134,16.9480599 140.655466,16.9061405 140.6832,16.8781939 C140.738667,16.8502472 140.794133,16.8292875 140.8496,16.8153142 C140.905067,16.8013408 140.960533,16.7803811 141.016,16.7524344 C141.071467,16.7244878 141.113066,16.6825684 141.1408,16.626675 C141.224,16.626675 141.2864,16.6127019 141.328,16.5847552 C141.3696,16.5568085 141.425066,16.5148892 141.4944,16.4589958 C141.563734,16.4031025 141.639999,16.3611831 141.7232,16.3332364 L142.056,16.3332364 L142.1808,16.207477 C142.236267,16.1515836 142.402665,16.0397986 142.68,15.8721185 C142.929601,15.7323852 143.123732,15.5507345 143.2624,15.3271611 C143.373334,15.3271611 143.442666,15.3131879 143.4704,15.2852413 C143.498133,15.397028 143.525866,15.4529205 143.5536,15.4529205 C143.581333,15.4529205 143.609066,15.4389474 143.6368,15.4110007 C143.581333,15.3551073 143.525867,15.3131879 143.4704,15.2852413 C143.498133,15.2852413 143.525866,15.2433219 143.5536,15.1594818 L143.9696,15.1594818 C144.274668,14.9918018 144.441066,14.907963 144.4688,14.907963 C144.524267,14.8800163 144.565866,14.8171373 144.5936,14.7193239 C144.621333,14.6215105 144.662933,14.5586314 144.7184,14.5306848 C144.746133,14.5586314 144.801599,14.6005508 144.8848,14.6564442 L145.176,14.6564442 L145.3424,14.8241234 C145.730668,14.6284967 145.938666,14.5167116 145.9664,14.488765 C146.132801,14.4049249 146.229866,14.307113 146.2576,14.1953263 C146.507201,14.223273 146.659733,14.111488 146.7152,13.8599679 C146.826134,13.8599679 146.8816,13.8040754 146.8816,13.6922887 L147.1312,13.6922887 C147.158933,13.7202353 147.200533,13.7481816 147.256,13.7761283 C147.283733,13.804075 147.2976,13.8320212 147.2976,13.8599679 L147.7136,13.4407698 C147.658133,13.4128232 147.602667,13.3569306 147.5472,13.2730906 L147.5472,12.979652 C147.6304,12.8399186 147.713599,12.8119723 147.7968,12.8958124 C147.963201,13.0355458 148.0464,13.1333577 148.0464,13.189251 L148.0048,13.189251 C147.893866,13.2171977 147.866133,13.2730902 147.9216,13.3569302 C147.977067,13.3010369 148.018666,13.2451444 148.0464,13.189251 L148.296,13.189251 C148.323733,13.1613043 148.365333,13.1054118 148.4208,13.0215718 L148.7536,13.0215718 C148.781333,12.9656784 148.843733,12.923759 148.9408,12.8958124 C149.037867,12.8678657 149.100266,12.8399194 149.128,12.8119728 C149.155733,12.7560794 149.211199,12.7211466 149.2944,12.7071732 C149.3776,12.6931999 149.433066,12.6722402 149.4608,12.6442935 L149.4608,12.3927747 L149.2528,12.3927747 C149.225066,12.3927747 149.1696,12.4486672 149.0864,12.5604539 L148.6704,12.5604539 C148.6704,12.6722406 148.573334,12.7700525 148.3792,12.8538926 C148.3792,12.7421059 148.365333,12.644294 148.3376,12.5604539 C148.448534,12.5604539 148.559466,12.5464808 148.6704,12.5185341 L148.6704,12.3089351 C148.725867,12.2809884 148.802133,12.239069 148.8992,12.1831757 C148.996267,12.1272823 149.079466,12.0853629 149.1488,12.0574163 C149.218133,12.0294696 149.294399,12.0294696 149.3776,12.0574163 C149.516267,11.9176829 149.641066,11.8058979 149.752,11.7220578 C149.752,11.7500045 149.779733,11.7849373 149.8352,11.8268573 C149.890667,11.8687774 149.9184,11.9037102 149.9184,11.9316569 C149.946133,11.9037102 149.994666,11.8757639 150.064,11.8478172 C150.133333,11.8198706 150.195733,11.7919243 150.2512,11.7639776 L150.376,11.889737 C150.542401,11.9176837 150.694932,11.8897375 150.8336,11.8058974 C150.667199,11.7500041 150.556267,11.7080847 150.5008,11.680138 C150.445333,11.596298 150.459199,11.4984861 150.5424,11.3866994 C150.597867,11.330806 150.687999,11.2749135 150.8128,11.2190202 C150.9376,11.1631268 151.013866,11.1212074 151.0416,11.0932608 C151.152534,11.0094207 151.360532,10.9116088 151.6656,10.7998221 C151.776534,10.7439288 151.942932,10.6181706 152.1648,10.4225439 L152.2688,10.4225439 C152.3104,10.4225439 152.345066,10.436517 152.3728,10.4644637 C152.289599,10.6321437 152.261866,10.8277675 152.2896,11.0513409 C152.3728,11.0233943 152.483732,10.9675018 152.6224,10.8836617 C152.761067,10.7998217 152.844266,10.7579023 152.872,10.7579023 L153.288,10.7579023 C153.315733,10.7299556 153.3504,10.7020094 153.392,10.6740627 C153.4336,10.646116 153.4544,10.6181698 153.4544,10.5902231 L153.8288,10.7998221 L153.8288,10.8417419 C153.773333,10.9255819 153.620801,11.0792864 153.3712,11.3028598 L153.5792,11.5124588 C153.385065,11.5404055 153.218667,11.5683517 153.08,11.5962984 L153.1216,11.7220578 C153.149333,11.7220578 153.177066,11.7500041 153.2048,11.8058974 C153.260267,11.8617908 153.315733,11.889737 153.3712,11.889737 C153.4544,11.7779503 153.565332,11.7500041 153.704,11.8058974 C153.676266,11.8617908 153.606934,11.889737 153.496,11.889737 L153.3712,11.889737 L153.3712,12.1412559 C153.4544,12.1692026 153.509866,12.1692026 153.5376,12.1412559 C153.565333,12.1133092 153.613866,12.0853629 153.6832,12.0574163 C153.752533,12.0294696 153.801066,12.0154965 153.8288,12.0154965 C153.856533,12.0434431 154.022932,11.9875506 154.328,11.8478172 L154.328,11.4286192 C154.300266,11.4286192 154.258667,11.4216326 154.2032,11.4076593 L154.12,11.3866994 C154.036799,11.246966 154.064532,11.135181 154.2032,11.0513409 L154.2032,11.0932608 C154.230933,11.2050475 154.272533,11.2329937 154.328,11.1771004 L154.2032,11.0513409 L154.328,10.7998221 L154.2448,10.7159825 C154.2448,10.6041958 154.286399,10.5273436 154.3696,10.4854236 C154.4528,10.4435036 154.542933,10.4015842 154.64,10.3596642 C154.737067,10.3177441 154.799466,10.2548651 154.8272,10.171025 C154.660799,10.087185 154.563733,10.0312925 154.536,10.0033458 L154.536,9.8356666 C154.563733,9.8356666 154.626133,9.80772034 154.7232,9.75182699 C154.820267,9.69593363 154.910399,9.65401425 154.9936,9.62606757 L155.368,9.62606757 C155.4512,9.57017422 155.4928,9.52825483 155.4928,9.50030816 C155.520533,9.50030816 155.562133,9.4723619 155.6176,9.41646855 C155.7008,9.30468184 155.783999,9.26276245 155.8672,9.29070913 C155.922667,9.23481578 156.033599,9.15796357 156.2,9.0601502 C156.366401,8.96233683 156.477333,8.8715115 156.5328,8.78767147 L157.032,8.78767147 C157.281601,8.53615138 157.489599,8.39642009 157.656,8.36847342 C157.600533,8.34052674 157.5312,8.31258048 157.448,8.28463381 C157.364799,8.25668713 157.309333,8.242714 157.2816,8.242714 L157.2816,8.03311498 C157.309333,8.0051683 157.350933,7.98420861 157.4064,7.97023527 C157.461867,7.95626193 157.5104,7.95626193 157.552,7.97023527 C157.5936,7.98420861 157.642133,7.97722204 157.6976,7.94927537 C157.725333,7.92132869 157.766933,7.87242274 157.8224,7.80255605 C157.877867,7.73268936 157.919466,7.68378341 157.9472,7.65583673 L158.7376,7.65583673 L158.7376,7.82351595 L158.5296,7.82351595 L158.4048,7.94927537 C158.377066,7.97722204 158.335467,7.97722204 158.28,7.94927537 C158.196799,8.00516872 158.141333,8.0470881 158.1136,8.07503478 C158.252267,8.10298146 158.349333,8.06106207 158.4048,7.94927537 C158.515734,7.97722204 158.585066,7.97722204 158.6128,7.94927537 C158.640533,7.94927537 158.682133,7.90735598 158.7376,7.82351595 L159.1536,7.82351595 C159.1536,7.79556927 159.292265,7.7117305 159.5696,7.57199712 C159.541866,7.51610377 159.514133,7.43226499 159.4864,7.32047829 L159.2368,7.32047829 L159.2784,7.19471887 C159.333867,7.19471887 159.430932,7.15279949 159.5696,7.06895946 C159.708267,6.98511943 159.833066,6.95717317 159.944,6.98511985 C159.971733,6.98511985 159.999466,7.0130661 160.0272,7.06895946 C160.1104,7.15279949 160.193599,7.18074574 160.2768,7.15279907 L160.4432,6.98511985 C160.470933,7.01306652 160.491733,7.06197247 160.5056,7.13183917 C160.519466,7.20170586 160.540266,7.25061181 160.568,7.27855848 C160.706667,7.25061181 160.803733,7.16677303 160.8592,7.02703965 C160.775999,6.94319962 160.720533,6.90128024 160.6928,6.90128024 C160.776,6.84538688 160.831466,6.87333314 160.8592,6.98511985 L162.3152,6.98511985 C162.3152,7.09690655 162.370666,7.15279907 162.4816,7.15279907 L162.4816,7.4043179 C162.204265,7.5161046 161.982401,7.62788963 161.816,7.73967634 C161.816,7.79556969 161.906132,7.81652939 162.0864,7.80255605 C162.266667,7.78858271 162.3568,7.78858271 162.3568,7.80255605 C162.3568,7.81652939 162.398399,7.85146221 162.4816,7.90735556 C162.5648,7.96324891 162.634133,7.97722204 162.6896,7.94927537 C162.7728,7.89338201 162.828266,7.85146263 162.856,7.82351595 L163.2304,7.82351595 L163.272,7.99119517 C163.299733,8.10298188 163.355199,8.14490126 163.4384,8.11695459 C163.493867,8.22874129 163.528533,8.28463381 163.5424,8.28463381 L163.7712,8.28463381 L163.7712,8.45231303 C163.868267,8.46628637 163.944533,8.4802596 164,8.49423283 L163.895999,8.55711285 Z M132.5,17.6133335 C132.366666,17.4533327 132.366666,17.2933343 132.5,17.1333335 C132.633334,17.2933343 132.633334,17.4533327 132.5,17.6133335 Z M132.42,16.4533339 C132.473333,16.4533339 132.526666,16.4266671 132.58,16.3733335 C132.526666,16.3199999 132.473333,16.2933331 132.42,16.2933331 L132.42,16.4533339 Z M128.4,18.5390479 L128.64,18.2590479 C128.56,18.1790475 128.466667,18.1923807 128.36,18.2990479 C128.36,18.3257147 128.366667,18.3657143 128.38,18.4190479 C128.393333,18.4723815 128.4,18.5123811 128.4,18.5390479 Z M128.32,18.3733335 L128.4,18.5333335 C128.426667,18.5333335 128.453333,18.5200003 128.48,18.4933335 C128.506667,18.4666667 128.54,18.4466669 128.58,18.4333335 C128.62,18.4200001 128.653333,18.4000003 128.68,18.3733335 L128.68,18.2933335 L128.64,18.2133335 L128.32,18.3733335 Z M130.420003,16.5893295 C130.44667,16.5093323 130.493335,16.4360024 130.56,16.3693377 C130.626667,16.3026707 130.66,16.2426713 130.66,16.1893377 C130.553333,16.1360041 130.446667,16.1493373 130.34,16.2293377 C130.365904,16.3329548 130.391808,16.4491521 130.417712,16.5779328 L130.420003,16.5893295 Z M130.489841,16.2133335 C130.596509,16.3466675 130.609842,16.4533331 130.529841,16.5333335 C130.396507,16.4799999 130.383174,16.3733343 130.489841,16.2133335 Z M134.48,20.4533335 L134.56,20.4133335 C134.533333,20.4133335 134.513333,20.4000003 134.5,20.3733335 C134.486667,20.3466667 134.48,20.3200003 134.48,20.2933335 L134.44,20.3733335 L134.48,20.4533335 Z M137.466667,19.1066669 L137.666667,19.1066669 C137.844445,19.1333337 137.955555,19.1066673 138,19.0266669 C137.777777,18.9733333 137.600001,18.9999997 137.466667,19.1066669 C137.288888,19.1066669 137.2,19.1599997 137.2,19.2666669 L136.266667,19.2666669 C136.266667,19.2933337 136.244445,19.3200001 136.2,19.3466669 L136.066667,19.4266669 C136.022222,19.4533337 136,19.4933333 136,19.5466669 C136,19.5733337 136.044444,19.6066667 136.133333,19.6466669 C136.222223,19.6866671 136.288889,19.7200001 136.333333,19.7466669 C136.377778,19.6933333 136.533332,19.6333339 136.8,19.5666669 C137.066668,19.4999999 137.2,19.4000009 137.2,19.2666669 C137.377779,19.2666669 137.466667,19.2133341 137.466667,19.1066669 Z M137.455,18.4540481 C137.501667,18.4473815 137.538333,18.4107147 137.565,18.3440477 C137.525,18.3040475 137.481667,18.2873807 137.435,18.2940473 L137.455,18.4540481 Z M138.42,18.4433338 C138.473333,18.4433338 138.533333,18.4233337 138.6,18.3833335 C138.52,18.3299999 138.453333,18.3033331 138.4,18.3033331 L138.42,18.4433338 Z M142.42,16.4633339 C142.473333,16.4633339 142.526666,16.4300004 142.58,16.3633334 C142.526666,16.3099998 142.473333,16.283333 142.42,16.283333 L142.42,16.4633339 Z M142.48,16.5533335 C142.506667,16.5266667 142.546666,16.4733339 142.6,16.3933335 L142.68,16.2733335 L142.64,16.2333335 L142.6,16.2333335 L142.52,16.1933335 C142.52,16.2200003 142.493334,16.2666665 142.44,16.3333335 C142.386666,16.4000005 142.346667,16.4466667 142.32,16.4733335 L142.48,16.5533335 Z M147.46,16.5133337 C147.513334,16.4333333 147.58,16.3666673 147.66,16.3133337 C147.553333,16.2066665 147.446667,16.2066665 147.34,16.3133337 C147.366667,16.4466677 147.406666,16.5133337 147.46,16.5133337 Z M148.78,13.3133335 L148.74,13.3133335 C148.74,13.2866667 148.7,13.2333339 148.62,13.1533335 L148.4,13.1533335 C148.279999,13.1533335 148.22,13.1666667 148.22,13.1933335 C148.326667,13.3533343 148.406666,13.4866663 148.46,13.5933335 C148.620001,13.4866663 148.713333,13.3933339 148.74,13.3133335 L148.78,13.3133335 Z M148.28,13.4550004 C148.413334,13.2683328 148.559999,13.2416664 148.72,13.3750004 C148.666666,13.428334 148.520001,13.4550004 148.28,13.4550004 Z M149.48,12.4533335 L149.56,12.4133335 L149.48,12.2933335 L149.48,12.3333335 L149.44,12.3733335 L149.48,12.4533335 Z M149.4,12.5990479 C149.426667,12.5190475 149.473333,12.4457149 149.54,12.3790479 C149.606667,12.3123809 149.64,12.2523815 149.64,12.1990479 C149.533333,12.1190475 149.44,12.1323807 149.36,12.2390479 C149.36,12.3723819 149.373333,12.4923807 149.4,12.5990479 Z M150.46,12.4333335 C150.513334,12.4066667 150.553333,12.3800003 150.58,12.3533335 L150.54,12.3133335 C150.513333,12.3133335 150.473334,12.3266667 150.42,12.3533335 C150.42,12.3800003 150.433333,12.4066667 150.46,12.4333335 Z M150.52,11.4533335 L150.56,11.3733335 L150.52,11.2933335 L150.48,11.3733335 L150.44,11.4133335 C150.466667,11.4133335 150.493333,11.4266667 150.52,11.4533335 Z M152.46,11.4333335 C152.486667,11.4066667 152.526666,11.3800003 152.58,11.3533335 L152.54,11.3133335 C152.513333,11.3133335 152.473334,11.3266667 152.42,11.3533335 L152.46,11.4333335 Z M152.48,12.4533335 L152.56,12.3733335 L152.48,12.2933335 L152.44,12.3333335 L152.48,12.4533335 Z M156.41928,8.28138903 C156.419764,8.28093878 156.420244,8.2804758 156.42072,8.28000009 L156.42072,8.36000009 C156.447387,8.41333369 156.467387,8.44666669 156.48072,8.46000009 C156.494053,8.47333349 156.527386,8.46666689 156.58072,8.44000009 C156.527386,8.38666649 156.487387,8.37333329 156.46072,8.40000009 C156.434053,8.37333329 156.42072,8.34666689 156.42072,8.32000009 C156.42072,8.30568983 156.42024,8.29281948 156.41928,8.28138903 Z M156.48,8.29333345 L156.44,8.33333345 L156.48,8.45333345 L156.56,8.37333345 L156.48,8.29333345 Z M154.52,11.4333335 L154.56,11.3933335 L154.52,11.3133335 C154.493333,11.3133335 154.466667,11.3266667 154.44,11.3533335 L154.52,11.4333335 Z M154.435,10.4633339 C154.481667,10.4633339 154.525,10.4366671 154.565,10.3833335 C154.525,10.3166665 154.481667,10.283333 154.435,10.283333 L154.435,10.4633339 Z M154.36,12.3733335 C154.386667,12.4266671 154.406667,12.4533335 154.42,12.4533335 C154.433333,12.4533335 154.506666,12.4400003 154.64,12.4133335 L154.64,12.3333335 C154.506666,12.3066667 154.426667,12.2933335 154.4,12.2933335 L154.38,12.3133335 C154.366667,12.3266669 154.36,12.3466667 154.36,12.3733335 Z M154.48,10.4333335 L154.5,10.4133335 C154.513333,10.4000001 154.533333,10.3933335 154.56,10.3933335 L154.48,10.3133335 L154.44,10.3533335 L154.48,10.4333335 Z M156.42,10.3033335 L156.42,10.3233335 C156.446667,10.4033339 156.466667,10.4433335 156.48,10.4433335 C156.493333,10.4433335 156.526666,10.4300003 156.58,10.4033335 C156.526666,10.3499999 156.473334,10.3233335 156.42,10.3233335 L156.42,10.3033335 Z M155.588785,9.70025618 L155.588785,9.33487163 C155.619938,9.30923048 155.744547,9.28358972 155.962617,9.25794857 C155.962617,9.48871891 156.009345,9.62974311 156.102804,9.68102541 C156.133957,9.68102541 156.149533,9.6169235 156.149533,9.48871776 L156.149533,9.25794857 C156.242991,9.28358972 156.28972,9.30923048 156.28972,9.33487163 C156.320872,9.33487163 156.367601,9.41179393 156.429907,9.56564082 L156.663551,9.56564082 C156.788163,9.56564082 156.850467,9.55282044 156.850467,9.52717929 C156.788162,9.39897354 156.741433,9.33487163 156.71028,9.33487163 C156.772586,9.23230704 156.866043,9.21307646 156.990654,9.27717934 C157.115265,9.34128221 157.17757,9.38615355 157.17757,9.41179469 C157.239876,9.3605124 157.255452,9.2835901 157.224299,9.18102551 C157.037382,9.00153747 157.00623,8.8348725 157.130841,8.6810256 C157.193147,8.70666675 157.239875,8.84769096 157.271028,9.10410245 L157.598131,9.06564091 C157.598131,9.03999977 157.574767,9.00794881 157.528037,8.96948709 C157.481308,8.93102536 157.457944,8.89897441 157.457944,8.87333326 C157.676014,8.71948637 157.831775,8.64256407 157.925234,8.64256407 L157.971963,8.52717948 L158.11215,8.52717948 C158.205608,8.52717948 158.275701,8.50794891 158.32243,8.46948718 C158.369159,8.43102546 158.595014,8.33487259 159,8.1810257 C159,8.1297434 158.937695,8.02718035 158.813084,7.87333345 C158.626167,7.9502569 158.517134,7.98871805 158.485981,7.98871805 C158.485981,8.01435919 158.392524,8.05282034 158.205607,8.10410264 C158.174455,8.12974379 158.15109,8.18743551 158.135514,8.27717953 C158.119938,8.36692355 158.080997,8.41179489 158.018692,8.41179489 C157.987539,8.38615374 157.971963,8.36051297 157.971963,8.33487182 C157.94081,8.23230723 157.894081,8.20666646 157.831776,8.25794876 L157.971963,8.37333336 L157.971963,8.52717948 L157.691589,8.52717948 C157.691589,8.50153833 157.660436,8.47589757 157.598131,8.45025642 L157.504673,8.37333336 L156.990654,8.37333336 C156.772585,8.52718025 156.663551,8.61692292 156.663551,8.64256407 C156.632399,8.64256407 156.523365,8.66820484 156.336449,8.71948714 L156.336449,8.98871785 C156.305296,9.0656413 156.242991,9.15538397 156.149533,9.25794857 L155.962617,9.25794857 L155.915888,9.14256398 L155.121495,9.14256398 C155.090343,9.16820513 155.012462,9.22589685 154.88785,9.31564087 C154.763239,9.40538489 154.700935,9.48871737 154.700935,9.56564082 L154.46729,9.56564082 L154.327103,9.68102541 C154.327103,9.70666656 154.280374,9.71948694 154.186916,9.71948694 C154.093457,9.71948694 154.031153,9.74512771 154,9.79641001 C154.155764,9.8476923 154.264797,9.82205154 154.327103,9.71948694 L154.514019,9.79641001 C154.669783,9.8989746 154.794392,9.8989746 154.88785,9.79641001 L154.700935,9.64256388 L154.700935,9.56564082 L154.981308,9.56564082 L155.168224,9.41179469 C155.168224,9.43743584 155.214953,9.48871737 155.308411,9.56564082 C155.40187,9.64256427 155.495327,9.68102541 155.588785,9.68102541 L155.588785,9.70025618 Z M159.48,8.29333345 L159.44,8.37333345 L159.48,8.45333345 L159.56,8.41333345 C159.533333,8.35999985 159.506667,8.32000025 159.48,8.29333345 Z M159.48,8.45333345 L159.56,8.41333345 C159.533333,8.38666665 159.506667,8.34666705 159.48,8.29333345 L159.44,8.33333345 C159.44,8.36000025 159.453333,8.39999985 159.48,8.45333345 Z M159.42,8.29333345 C159.42,8.34666665 159.446666,8.39999985 159.5,8.45333345 C159.553334,8.39999985 159.58,8.34666665 159.58,8.29333345 L159.42,8.29333345 Z M160.48,8.45333345 C160.506667,8.39999985 160.533333,8.37333345 160.56,8.37333345 L160.48,8.29333345 C160.453333,8.34666705 160.44,8.38666665 160.44,8.41333345 L160.48,8.45333345 Z M160.64,7.53333345 C160.693334,7.58666705 160.773333,7.62666665 160.88,7.65333345 C160.88,7.19999785 160.853334,6.96000025 160.8,6.93333345 C160.746666,7.04000065 160.706667,7.13333305 160.68,7.21333345 C160.653333,7.21333345 160.6,7.22666665 160.52,7.25333345 L160.44,7.29333345 L160.44,7.53333345 C160.413333,7.56000025 160.373334,7.56000025 160.32,7.53333345 C160.213333,7.56000025 160.146667,7.59999985 160.12,7.65333345 C160.146667,7.65333345 160.173333,7.67333325 160.2,7.71333345 C160.226667,7.75333365 160.253333,7.78000005 160.28,7.79333345 C160.306667,7.80666685 160.346666,7.81333345 160.4,7.81333345 C160.4,7.70666625 160.413333,7.61333385 160.44,7.53333345 L160.64,7.53333345 Z M161.3,8.37333345 C161.326667,8.40000025 161.373333,8.43333325 161.44,8.47333345 C161.506667,8.51333365 161.566666,8.54666665 161.62,8.57333345 C161.646667,8.51999985 161.673333,8.45333385 161.7,8.37333345 C161.566666,8.29333305 161.46,8.22666705 161.38,8.17333345 C161.353333,8.22666705 161.326667,8.29333305 161.3,8.37333345 Z M162.48,8.45333345 L162.56,8.37333345 L162.48,8.29333345 L162.44,8.33333345 C162.466667,8.36000025 162.48,8.39999985 162.48,8.45333345 Z M162.16,6.64 C162.16,6.5333328 162.106667,6.48 162,6.48 C162,6.4266664 162.013333,6.3866668 162.04,6.36 L162.2,6.2 L163.12,6.2 L163.28,6.04 C163.306667,6.04 163.36,6.0266668 163.44,6 L163.6,6.16 L163.72,6.16 L163.96,6.2 L164,6.28 C163.973333,6.28 163.913334,6.2999998 163.82,6.34 C163.726666,6.3800002 163.653334,6.4266664 163.6,6.48 C163.6,6.4533332 163.58,6.4266668 163.54,6.4 C163.5,6.3733332 163.48,6.3466668 163.48,6.32 L163,6.32 L162.8,6.52 C162.746666,6.4933332 162.653334,6.4400004 162.52,6.36 C162.493333,6.3866668 162.466667,6.466666 162.44,6.6 C162.52,6.6533336 162.573333,6.6933332 162.6,6.72 C162.52,6.7733336 162.466667,6.7466672 162.44,6.64 L162.16,6.64 Z M145.826087,13.3123578 C145.565216,13.2879674 145.405797,13.3855274 145.347826,13.6050407 L144.913043,13.6050407 L144.608696,13.8611382 C144.347825,13.8855286 144.144928,13.8733336 144,13.8245529 C144.028986,13.7757721 144.065217,13.7452846 144.108696,13.7330895 C144.152174,13.7208943 144.202898,13.7208943 144.26087,13.7330895 C144.318841,13.7452846 144.376811,13.7391871 144.434783,13.7147968 C144.463768,13.6416257 144.521739,13.5562607 144.608696,13.4586992 L145.043478,13.4586992 C145.10145,13.4343089 145.173913,13.3794314 145.26087,13.2940651 C145.347827,13.2086988 145.434782,13.1660163 145.521739,13.1660163 C145.57971,13.141626 145.652173,13.092846 145.73913,13.0196749 C145.826087,12.9465038 145.89855,12.8977238 145.956522,12.8733335 C145.956522,12.8977238 145.971014,12.9952838 146,13.1660163 C145.884057,13.1660163 145.826087,13.2147963 145.826087,13.3123578 Z M165,8.33476209 C164.96347,8.31476214 164.936073,8.29809554 164.917808,8.28476214 C164.917808,8.15142814 164.826485,8.11142854 164.643836,8.16476214 L164.315069,8.28476214 L163.547945,8.28476214 L163.328767,8.44476214 L163,8.44476214 L163,8.60476214 L163.931507,8.60476214 C164.077626,8.52476174 164.150685,8.47142894 164.150685,8.44476214 L164.534247,8.44476214 C164.607306,8.41809534 164.735159,8.36476254 164.917808,8.28476214 C164.936073,8.35142914 164.96347,8.39476254 165,8.41476249 L165,8.33476209 Z M163.3,7.58933357 C163.273333,7.58933357 163.26,7.52933417 163.26,7.40933357 L163.26,7.22933357 C163.313334,7.14933317 163.459999,7.13599997 163.7,7.18933357 L163.72,7.26933357 C163.733333,7.32266717 163.74,7.36266677 163.74,7.38933357 C163.633333,7.44266717 163.486668,7.50933317 163.3,7.58933357 Z M162.42,6.47333345 C162.42,6.36666625 162.366667,6.31333345 162.26,6.31333345 C162.313334,6.20666625 162.346667,6.15333345 162.36,6.15333345 L162.58,6.15333345 C162.553333,6.26000065 162.606666,6.31333345 162.74,6.31333345 C162.713333,6.50000105 162.686667,6.59333345 162.66,6.59333345 C162.633333,6.59333345 162.593334,6.58000025 162.54,6.55333345 C162.486666,6.52666665 162.446667,6.50000025 162.42,6.47333345 Z M163.18,6.40533348 C163.18,6.35199988 163.206666,6.31866688 163.26,6.30533348 C163.313334,6.29200008 163.499998,6.31199988 163.82,6.36533348 C163.766666,6.39200028 163.620001,6.41866668 163.38,6.44533348 L163.18,6.40533348 Z M153.74,9.34361911 C153.553332,9.45028631 153.393334,9.46361951 153.26,9.38361911 C153.34,9.30361871 153.499999,9.29028551 153.74,9.34361911 Z M156.674,12.5233333 C156.620667,12.51 156.547334,12.4966667 156.454,12.4833333 L156.454,12.3233333 C156.560667,12.2966665 156.587334,12.2433337 156.534,12.1633333 C156.534,12.1900001 156.520667,12.2166665 156.494,12.2433333 L156.414,12.3233333 L156.334,12.3633333 C156.307333,12.4433337 156.347333,12.4833333 156.454,12.4833333 C156.480667,12.5366669 156.520667,12.5700003 156.574,12.5833336 L156.674,12.5233333 Z M160.34,10.4219048 C160.366667,10.3685712 160.42,10.3352382 160.5,10.3219048 C160.58,10.3085714 160.633333,10.3019048 160.66,10.3019048 C160.58,10.4352388 160.473334,10.4752384 160.34,10.4219048 Z M160.34,10.4373335 C160.42,10.3306663 160.526666,10.2906667 160.66,10.3173335 C160.633333,10.3973339 160.58,10.4373335 160.5,10.4373335 L160.34,10.4373335 Z M160.36,10.3333335 C160.493334,10.3066667 160.566667,10.2933335 160.58,10.2933335 C160.593333,10.2933335 160.613333,10.3199999 160.64,10.3733335 C160.64,10.4000003 160.633333,10.4200001 160.62,10.4333335 C160.606667,10.4466669 160.586667,10.4533335 160.56,10.4533335 L160.36,10.4133335 L160.36,10.3333335 Z M152.55,9.29261877 C152.496667,9.29928542 152.456667,9.33595222 152.43,9.40261922 C152.47,9.44261942 152.516667,9.45928622 152.57,9.45261957 L152.55,9.29261877 Z M152.4,9.2938886 C152.453333,9.28722195 152.52,9.31055545 152.6,9.36388905 C152.533333,9.41722265 152.473333,9.44722275 152.42,9.4538894 L152.4,9.2938886 Z M133.55,18.3883332 C133.536667,18.3416666 133.503333,18.3050001 133.45,18.2783333 C133.45,18.3583337 133.456666,18.421667 133.47,18.4683336 L133.55,18.3883332 Z M156.62,8.41333345 C156.513333,8.44000025 156.453333,8.45333345 156.44,8.45333345 C156.426667,8.45333345 156.406667,8.42666705 156.38,8.37333345 L156.42,8.29333345 C156.446667,8.29333345 156.513333,8.30666665 156.62,8.33333345 L156.62,8.41333345 Z M163.536,8.29333345 C163.642667,8.32000025 163.682667,8.37333305 163.656,8.45333345 L163.336,8.45333345 C163.336,8.34666625 163.402666,8.29333345 163.536,8.29333345 Z M158.66,7.29333345 C158.58,7.37333385 158.54,7.42000005 158.54,7.43333345 C158.54,7.44666685 158.473334,7.45333345 158.34,7.45333345 C158.393334,7.34666625 158.426667,7.29333345 158.44,7.29333345 L158.66,7.29333345 Z M160.52,9.43333355 C160.546667,9.40666695 160.56,9.36666695 160.56,9.31333335 C160.506667,9.31333335 160.466667,9.32666655 160.44,9.35333315 L160.52,9.43333355 Z M160.56,9.39333375 C160.533334,9.42000035 160.493334,9.43333355 160.44,9.43333355 C160.44,9.37999995 160.453333,9.33999995 160.48,9.31333335 L160.56,9.39333375 Z M162.48,9.35333345 L162.6,9.23333345 C162.653334,9.31333385 162.626667,9.35333345 162.52,9.35333345 L162.4,9.51333345 C162.346666,9.43333305 162.373333,9.38000025 162.48,9.35333345 Z M153.54,11.3133335 L153.58,11.3533335 L153.5,11.4333335 L153.42,11.3533335 C153.473334,11.3266667 153.513333,11.3133335 153.54,11.3133335 Z M165.604783,7.23705808 C165.651582,7.3129287 165.623321,7.36377846 165.52,7.38960882 L165.4,7.50960882 C165.346666,7.42960842 165.373333,7.38960882 165.48,7.38960882 L165.56,7.30960882 C165.581918,7.28769129 165.594828,7.26577404 165.598731,7.24385661 L165.604783,7.23705808 Z M163.42,8.39333345 L163.5,8.31333345 L163.58,8.39333345 L163.46,8.43333345 L163.42,8.39333345 Z M154.52,8.39333345 C154.493333,8.39333345 154.466667,8.41999985 154.44,8.47333345 L154.4,8.51333345 C154.346666,8.43333305 154.373333,8.39333345 154.48,8.39333345 C154.533334,8.31333305 154.573333,8.26000025 154.6,8.23333345 C154.653334,8.31333385 154.626667,8.36666665 154.52,8.39333345 Z M163.44,8.33333345 L163.48,8.29333345 C163.506667,8.29333345 163.526667,8.30666665 163.54,8.33333345 L163.56,8.37333345 L163.48,8.45333345 C163.453333,8.39999985 163.44,8.36000025 163.44,8.33333345 Z M156.56,8.41333345 L156.52,8.45333345 C156.466666,8.39999985 156.44,8.36000025 156.44,8.33333345 L156.52,8.29333345 C156.52,8.32000025 156.526667,8.34000005 156.54,8.35333345 C156.553333,8.36666685 156.56,8.38666665 156.56,8.41333345 Z M158.56,7.39333375 C158.533333,7.42000035 158.493333,7.43333355 158.44,7.43333355 C158.44,7.37999995 158.453333,7.33999995 158.48,7.31333335 L158.56,7.39333375 Z M158.52,7.43333355 C158.546667,7.40666695 158.56,7.36666695 158.56,7.31333335 C158.506666,7.31333335 158.466667,7.32666655 158.44,7.35333315 L158.52,7.43333355 Z M164.36,6.29333345 C164.44,6.23999985 164.493333,6.25333305 164.52,6.33333345 C164.546667,6.38666705 164.586666,6.42666665 164.64,6.45333345 C164.586666,6.50666705 164.546667,6.49333385 164.52,6.41333345 L164.44,6.33333345 C164.413333,6.30666665 164.386667,6.29333345 164.36,6.29333345 Z M161.58,6.35333345 L161.5,6.43333345 L161.42,6.35333345 L161.46,6.31333345 L161.58,6.35333345 Z M156.374286,9.23333345 C156.480953,9.23333345 156.547619,9.22000025 156.574286,9.19333345 C156.654286,9.32666745 156.640953,9.44666625 156.534286,9.55333345 C156.507619,9.52666665 156.474286,9.47333385 156.434286,9.39333345 C156.394285,9.31333305 156.374286,9.26000025 156.374286,9.23333345 Z" id="y"></path>
            <text id="VOTE-YES" font-family="tamaki-zero" font-size="40" font-weight="normal" letter-spacing="-1">
                <tspan x="0" y="30">VOTE YES</tspan>
            </text>
        </g>
    </g>
</svg>